Kurale.ufo
<glyph name="percent" format="2">
  <advance width="1042"/>
  <unicode hex="0025"/>
  <outline>
    <contour>
      <point x="366.0" y="0.0" type="line"/>
      <point x="646.0" y="666.0" type="line"/>
      <point x="579.0" y="666.0" type="line"/>
      <point x="301.0" y="0.0" type="line"/>
    </contour>
    <contour>
      <point x="566.0" y="197.0" type="curve" smooth="yes"/>
      <point x="566.0" y="98.0"/>
      <point x="605.0" y="-13.0"/>
      <point x="723.0" y="-13.0" type="curve" smooth="yes"/>
      <point x="835.0" y="-13.0"/>
      <point x="898.0" y="89.0"/>
      <point x="898.0" y="210.0" type="curve" smooth="yes"/>
      <point x="898.0" y="320.0"/>
      <point x="843.0" y="406.0"/>
      <point x="738.0" y="406.0" type="curve" smooth="yes"/>
      <point x="629.0" y="406.0"/>
      <point x="566.0" y="313.0"/>
    </contour>
    <contour>
      <point x="644.0" y="197.0" type="curve" smooth="yes"/>
      <point x="644.0" y="287.0"/>
      <point x="671.0" y="363.0"/>
      <point x="732.0" y="363.0" type="curve" smooth="yes"/>
      <point x="792.0" y="363.0"/>
      <point x="819.0" y="287.0"/>
      <point x="819.0" y="197.0" type="curve" smooth="yes"/>
      <point x="819.0" y="104.0"/>
      <point x="792.0" y="31.0"/>
      <point x="732.0" y="31.0" type="curve" smooth="yes"/>
      <point x="671.0" y="31.0"/>
      <point x="644.0" y="104.0"/>
    </contour>
    <contour>
      <point x="47.0" y="468.0" type="curve" smooth="yes"/>
      <point x="47.0" y="369.0"/>
      <point x="86.0" y="259.0"/>
      <point x="204.0" y="259.0" type="curve" smooth="yes"/>
      <point x="316.0" y="259.0"/>
      <point x="379.0" y="360.0"/>
      <point x="379.0" y="481.0" type="curve" smooth="yes"/>
      <point x="379.0" y="591.0"/>
      <point x="324.0" y="678.0"/>
      <point x="219.0" y="678.0" type="curve" smooth="yes"/>
      <point x="110.0" y="678.0"/>
      <point x="47.0" y="584.0"/>
    </contour>
    <contour>
      <point x="124.0" y="468.0" type="curve" smooth="yes"/>
      <point x="124.0" y="558.0"/>
      <point x="152.0" y="634.0"/>
      <point x="213.0" y="634.0" type="curve" smooth="yes"/>
      <point x="273.0" y="634.0"/>
      <point x="300.0" y="558.0"/>
      <point x="300.0" y="468.0" type="curve" smooth="yes"/>
      <point x="300.0" y="375.0"/>
      <point x="273.0" y="302.0"/>
      <point x="213.0" y="302.0" type="curve" smooth="yes"/>
      <point x="152.0" y="302.0"/>
      <point x="124.0" y="375.0"/>
    </contour>
  </outline>
</glyph>
<glyph name="slash" format="2">
  <advance width="380"/>
  <unicode hex="002F"/>
  <outline>
    <contour>
      <point x="65.0" y="-59.0" type="line"/>
      <point x="345.0" y="725.0" type="line"/>
      <point x="278.0" y="725.0" type="line"/>
      <point x="0.0" y="-59.0" type="line"/>
    </contour>
  </outline>
</glyph>
<glyph name="six" format="2">
  <advance width="662"/>
  <unicode hex="0036"/>
  <outline>
    <contour>
      <point x="334.0" y="627.0" type="curve" smooth="yes"/>
      <point x="391.0" y="627.0"/>
      <point x="429.0" y="590.0"/>
      <point x="429.0" y="533.0" type="curve" smooth="yes"/>
      <point x="429.0" y="489.0"/>
      <point x="402.0" y="465.0"/>
      <point x="402.0" y="456.0" type="curve" smooth="yes"/>
      <point x="402.0" y="449.0"/>
      <point x="407.0" y="446.0"/>
      <point x="421.0" y="446.0" type="curve" smooth="yes"/>
      <point x="478.0" y="446.0"/>
      <point x="520.0" y="490.0"/>
      <point x="520.0" y="553.0" type="curve" smooth="yes"/>
      <point x="520.0" y="627.0"/>
      <point x="445.0" y="679.0"/>
      <point x="336.0" y="679.0" type="curve" smooth="yes"/>
      <point x="147.0" y="679.0"/>
      <point x="53.0" y="508.0"/>
      <point x="53.0" y="304.0" type="curve" smooth="yes"/>
      <point x="53.0" y="134.0"/>
      <point x="140.0" y="-13.0"/>
      <point x="311.0" y="-13.0" type="curve" smooth="yes"/>
      <point x="459.0" y="-13.0"/>
      <point x="533.0" y="84.0"/>
      <point x="533.0" y="202.0" type="curve" smooth="yes"/>
      <point x="533.0" y="306.0"/>
      <point x="472.0" y="389.0"/>
      <point x="345.0" y="389.0" type="curve" smooth="yes"/>
      <point x="241.0" y="389.0"/>
      <point x="177.0" y="334.0"/>
      <point x="154.0" y="260.0" type="curve"/>
      <point x="153.0" y="273.0"/>
      <point x="153.0" y="287.0"/>
      <point x="153.0" y="303.0" type="curve" smooth="yes"/>
      <point x="153.0" y="448.0"/>
      <point x="197.0" y="627.0"/>
    </contour>
    <contour>
      <point x="311.0" y="326.0" type="curve" smooth="yes"/>
      <point x="388.0" y="326.0"/>
      <point x="420.0" y="264.0"/>
      <point x="420.0" y="188.0" type="curve" smooth="yes"/>
      <point x="420.0" y="106.0"/>
      <point x="378.0" y="46.0"/>
      <point x="298.0" y="46.0" type="curve" smooth="yes"/>
      <point x="221.0" y="46.0"/>
      <point x="190.0" y="105.0"/>
      <point x="190.0" y="181.0" type="curve" smooth="yes"/>
      <point x="190.0" y="258.0"/>
      <point x="231.0" y="326.0"/>
    </contour>
  </outline>
</glyph>
<glyph name="nine" format="2">
  <advance width="662"/>
  <unicode hex="0039"/>
  <outline>
    <contour>
      <point x="298.0" y="679.0" type="curve" smooth="yes"/>
      <point x="147.0" y="679.0"/>
      <point x="72.0" y="561.0"/>
      <point x="72.0" y="450.0" type="curve" smooth="yes"/>
      <point x="72.0" y="351.0"/>
      <point x="133.0" y="256.0"/>
      <point x="253.0" y="256.0" type="curve" smooth="yes"/>
      <point x="339.0" y="256.0"/>
      <point x="403.0" y="300.0"/>
      <point x="434.0" y="363.0" type="curve"/>
      <point x="435.0" y="347.0"/>
      <point x="435.0" y="330.0"/>
      <point x="435.0" y="313.0" type="curve" smooth="yes"/>
      <point x="435.0" y="179.0"/>
      <point x="396.0" y="40.0"/>
      <point x="270.0" y="40.0" type="curve" smooth="yes"/>
      <point x="216.0" y="40.0"/>
      <point x="177.0" y="72.0"/>
      <point x="177.0" y="122.0" type="curve" smooth="yes"/>
      <point x="177.0" y="160.0"/>
      <point x="199.0" y="181.0"/>
      <point x="199.0" y="190.0" type="curve" smooth="yes"/>
      <point x="199.0" y="196.0"/>
      <point x="193.0" y="201.0"/>
      <point x="179.0" y="201.0" type="curve" smooth="yes"/>
      <point x="126.0" y="201.0"/>
      <point x="86.0" y="168.0"/>
      <point x="86.0" y="117.0" type="curve" smooth="yes"/>
      <point x="86.0" y="40.0"/>
      <point x="164.0" y="-13.0"/>
      <point x="271.0" y="-13.0" type="curve" smooth="yes"/>
      <point x="449.0" y="-13.0"/>
      <point x="533.0" y="133.0"/>
      <point x="533.0" y="316.0" type="curve" smooth="yes"/>
      <point x="533.0" y="514.0"/>
      <point x="465.0" y="679.0"/>
    </contour>
    <contour>
      <point x="296.0" y="322.0" type="curve" smooth="yes"/>
      <point x="220.0" y="322.0"/>
      <point x="183.0" y="397.0"/>
      <point x="183.0" y="470.0" type="curve" smooth="yes"/>
      <point x="183.0" y="544.0"/>
      <point x="222.0" y="619.0"/>
      <point x="305.0" y="619.0" type="curve" smooth="yes"/>
      <point x="382.0" y="619.0"/>
      <point x="421.0" y="543.0"/>
      <point x="421.0" y="469.0" type="curve" smooth="yes"/>
      <point x="421.0" y="397.0"/>
      <point x="380.0" y="322.0"/>
    </contour>
  </outline>
</glyph>
<glyph name="semicolon" format="2">
  <advance width="196"/>
  <unicode hex="003B"/>
  <outline>
    <contour>
      <point x="17.0" y="93.0" type="line"/>
      <point x="21.0" y="71.0" type="line"/>
      <point x="39.0" y="59.0" type="line" smooth="yes"/>
      <point x="53.0" y="49.0"/>
      <point x="60.0" y="40.0"/>
      <point x="60.0" y="26.0" type="curve" smooth="yes"/>
      <point x="60.0" y="15.0"/>
      <point x="56.0" y="2.0"/>
      <point x="49.0" y="-13.0" type="curve" smooth="yes"/>
      <point x="6.0" y="-97.0" type="line"/>
      <point x="34.0" y="-115.0" type="line"/>
      <point x="70.0" y="-76.0" type="line" smooth="yes"/>
      <point x="113.0" y="-29.0"/>
      <point x="146.0" y="10.0"/>
      <point x="146.0" y="48.0" type="curve" smooth="yes"/>
      <point x="146.0" y="94.0"/>
      <point x="119.0" y="110.0"/>
      <point x="85.0" y="110.0" type="curve" smooth="yes"/>
      <point x="69.0" y="110.0"/>
      <point x="50.0" y="105.0"/>
      <point x="34.0" y="99.0" type="curve" smooth="yes"/>
    </contour>
    <contour>
      <point x="31.0" y="381.0" type="curve" smooth="yes"/>
      <point x="31.0" y="358.0"/>
      <point x="65.0" y="321.0"/>
      <point x="87.0" y="321.0" type="curve" smooth="yes"/>
      <point x="109.0" y="321.0"/>
      <point x="146.0" y="358.0"/>
      <point x="146.0" y="381.0" type="curve" smooth="yes"/>
      <point x="146.0" y="407.0"/>
      <point x="109.0" y="443.0"/>
      <point x="87.0" y="443.0" type="curve" smooth="yes"/>
      <point x="65.0" y="443.0"/>
      <point x="31.0" y="407.0"/>
    </contour>
  </outline>
</glyph>
<glyph name="U" format="2">
  <advance width="685"/>
  <unicode hex="0055"/>
  <outline>
    <contour>
      <point x="195.0" y="480.0" type="line" smooth="yes"/>
      <point x="195.0" y="554.0"/>
      <point x="206.0" y="594.0"/>
      <point x="236.0" y="634.0" type="curve" smooth="yes"/>
      <point x="248.0" y="651.0" type="line"/>
      <point x="236.0" y="666.0" type="line"/>
      <point x="34.0" y="666.0" type="line"/>
      <point x="21.0" y="634.0" type="line"/>
      <point x="44.0" y="629.0" type="line"/>
      <point x="91.0" y="616.0"/>
      <point x="103.0" y="600.0"/>
      <point x="103.0" y="543.0" type="curve" smooth="yes"/>
      <point x="103.0" y="203.0" type="line" smooth="yes"/>
      <point x="103.0" y="51.0"/>
      <point x="211.0" y="-13.0"/>
      <point x="347.0" y="-13.0" type="curve" smooth="yes"/>
      <point x="480.0" y="-13.0"/>
      <point x="586.0" y="51.0"/>
      <point x="586.0" y="203.0" type="curve" smooth="yes"/>
      <point x="586.0" y="480.0" type="line" smooth="yes"/>
      <point x="586.0" y="554.0"/>
      <point x="597.0" y="594.0"/>
      <point x="628.0" y="634.0" type="curve" smooth="yes"/>
      <point x="640.0" y="651.0" type="line"/>
      <point x="628.0" y="666.0" type="line"/>
      <point x="452.0" y="666.0" type="line"/>
      <point x="440.0" y="634.0" type="line"/>
      <point x="462.0" y="629.0" type="line" smooth="yes"/>
      <point x="509.0" y="616.0"/>
      <point x="521.0" y="600.0"/>
      <point x="521.0" y="543.0" type="curve" smooth="yes"/>
      <point x="521.0" y="203.0" type="line" smooth="yes"/>
      <point x="521.0" y="103.0"/>
      <point x="449.0" y="46.0"/>
      <point x="359.0" y="46.0" type="curve" smooth="yes"/>
      <point x="268.0" y="46.0"/>
      <point x="195.0" y="103.0"/>
      <point x="195.0" y="203.0" type="curve" smooth="yes"/>
    </contour>
  </outline>
</glyph>
<glyph name="bracketright" format="2">
  <advance width="396"/>
  <unicode hex="005D"/>
  <outline>
    <contour>
      <point x="243.0" y="-103.0" type="line"/>
      <point x="26.0" y="-103.0" type="line"/>
      <point x="26.0" y="-59.0" type="line"/>
      <point x="100.0" y="-48.0" type="line" smooth="yes"/>
      <point x="134.0" y="-43.0"/>
      <point x="150.0" y="-34.0"/>
      <point x="150.0" y="1.0" type="curve" smooth="yes"/>
      <point x="150.0" y="614.0" type="line" smooth="yes"/>
      <point x="150.0" y="647.0"/>
      <point x="134.0" y="657.0"/>
      <point x="100.0" y="663.0" type="curve" smooth="yes"/>
      <point x="26.0" y="673.0" type="line"/>
      <point x="26.0" y="718.0" type="line"/>
      <point x="243.0" y="718.0" type="line"/>
    </contour>
  </outline>
</glyph>
<glyph name="grave" format="2">
  <advance width="295"/>
  <unicode hex="0060"/>
  <outline>
    <contour>
      <point x="89.0" y="705.0" type="line"/>
      <point x="65.0" y="693.0"/>
      <point x="50.0" y="674.0"/>
      <point x="50.0" y="646.0" type="curve" smooth="yes"/>
      <point x="50.0" y="620.0"/>
      <point x="64.0" y="598.0"/>
      <point x="102.0" y="580.0" type="curve" smooth="yes"/>
      <point x="207.0" y="529.0" type="line"/>
      <point x="234.0" y="560.0" type="line"/>
    </contour>
  </outline>
</glyph>
<glyph name="c" format="2">
  <advance width="471"/>
  <unicode hex="0063"/>
  <outline>
    <contour>
      <point x="403.0" y="96.0" type="curve"/>
      <point x="365.0" y="64.0"/>
      <point x="327.0" y="49.0"/>
      <point x="281.0" y="49.0" type="curve" smooth="yes"/>
      <point x="193.0" y="49.0"/>
      <point x="138.0" y="122.0"/>
      <point x="138.0" y="236.0" type="curve" smooth="yes"/>
      <point x="138.0" y="349.0"/>
      <point x="185.0" y="424.0"/>
      <point x="256.0" y="424.0" type="curve" smooth="yes"/>
      <point x="309.0" y="424.0"/>
      <point x="344.0" y="394.0"/>
      <point x="344.0" y="345.0" type="curve" smooth="yes"/>
      <point x="344.0" y="292.0"/>
      <point x="321.0" y="277.0"/>
      <point x="321.0" y="268.0" type="curve" smooth="yes"/>
      <point x="321.0" y="261.0"/>
      <point x="326.0" y="259.0"/>
      <point x="338.0" y="259.0" type="curve" smooth="yes"/>
      <point x="391.0" y="259.0"/>
      <point x="429.0" y="296.0"/>
      <point x="429.0" y="349.0" type="curve" smooth="yes"/>
      <point x="429.0" y="421.0"/>
      <point x="362.0" y="472.0"/>
      <point x="266.0" y="472.0" type="curve" smooth="yes"/>
      <point x="130.0" y="472.0"/>
      <point x="41.0" y="378.0"/>
      <point x="41.0" y="229.0" type="curve" smooth="yes"/>
      <point x="41.0" y="90.0"/>
      <point x="135.0" y="-13.0"/>
      <point x="266.0" y="-13.0" type="curve" smooth="yes"/>
      <point x="329.0" y="-13.0"/>
      <point x="389.0" y="14.0"/>
      <point x="433.0" y="64.0" type="curve"/>
      <point x="435.0" y="65.0"/>
      <point x="435.0" y="69.0"/>
      <point x="435.0" y="72.0" type="curve" smooth="yes"/>
      <point x="435.0" y="84.0"/>
      <point x="422.0" y="98.0"/>
      <point x="412.0" y="98.0" type="curve" smooth="yes"/>
      <point x="408.0" y="98.0"/>
      <point x="404.0" y="97.0"/>
    </contour>
  </outline>
</glyph>
<glyph name="d" format="2">
  <advance width="559"/>
  <unicode hex="0064"/>
  <outline>
    <contour>
      <point x="139.0" y="230.0" type="curve" smooth="yes"/>
      <point x="139.0" y="352.0"/>
      <point x="191.0" y="421.0"/>
      <point x="281.0" y="421.0" type="curve" smooth="yes"/>
      <point x="312.0" y="421.0"/>
      <point x="343.0" y="413.0"/>
      <point x="371.0" y="394.0" type="curve"/>
      <point x="371.0" y="143.0" type="line"/>
      <point x="337.0" y="84.0"/>
      <point x="292.0" y="59.0"/>
      <point x="245.0" y="59.0" type="curve" smooth="yes"/>
      <point x="191.0" y="59.0"/>
      <point x="139.0" y="103.0"/>
    </contour>
    <contour>
      <point x="454.0" y="696.0" type="line" smooth="yes"/>
      <point x="454.0" y="714.0"/>
      <point x="442.0" y="726.0"/>
      <point x="424.0" y="726.0" type="curve" smooth="yes"/>
      <point x="390.0" y="726.0"/>
      <point x="338.0" y="702.0"/>
      <point x="303.0" y="670.0" type="curve"/>
      <point x="311.0" y="646.0" type="line"/>
      <point x="352.0" y="646.0" type="line" smooth="yes"/>
      <point x="365.0" y="646.0"/>
      <point x="370.0" y="641.0"/>
      <point x="370.0" y="626.0" type="curve" smooth="yes"/>
      <point x="370.0" y="461.0" type="line"/>
      <point x="342.0" y="470.0"/>
      <point x="314.0" y="472.0"/>
      <point x="282.0" y="472.0" type="curve" smooth="yes"/>
      <point x="134.0" y="472.0"/>
      <point x="41.0" y="373.0"/>
      <point x="41.0" y="213.0" type="curve" smooth="yes"/>
      <point x="41.0" y="62.0"/>
      <point x="122.0" y="-13.0"/>
      <point x="209.0" y="-13.0" type="curve" smooth="yes"/>
      <point x="266.0" y="-13.0"/>
      <point x="318.0" y="9.0"/>
      <point x="371.0" y="85.0" type="curve"/>
      <point x="371.0" y="15.0"/>
      <point x="393.0" y="-13.0"/>
      <point x="444.0" y="-13.0" type="curve" smooth="yes"/>
      <point x="475.0" y="-13.0"/>
      <point x="514.0" y="10.0"/>
      <point x="547.0" y="46.0" type="curve"/>
      <point x="529.0" y="70.0" type="line"/>
      <point x="513.0" y="58.0"/>
      <point x="497.0" y="53.0"/>
      <point x="483.0" y="53.0" type="curve" smooth="yes"/>
      <point x="465.0" y="53.0"/>
      <point x="454.0" y="62.0"/>
      <point x="454.0" y="82.0" type="curve" smooth="yes"/>
    </contour>
  </outline>
</glyph>
<glyph name="k" format="2">
  <advance width="541"/>
  <unicode hex="006B"/>
  <outline>
    <contour>
      <point x="312.0" y="85.0" type="line" smooth="yes"/>
      <point x="345.0" y="23.0"/>
      <point x="364.0" y="-13.0"/>
      <point x="423.0" y="-13.0" type="curve" smooth="yes"/>
      <point x="458.0" y="-13.0"/>
      <point x="492.0" y="3.0"/>
      <point x="523.0" y="46.0" type="curve"/>
      <point x="503.0" y="70.0" type="line"/>
      <point x="490.0" y="55.0"/>
      <point x="471.0" y="46.0"/>
      <point x="454.0" y="46.0" type="curve" smooth="yes"/>
      <point x="439.0" y="46.0"/>
      <point x="426.0" y="51.0"/>
      <point x="415.0" y="72.0" type="curve" smooth="yes"/>
      <point x="344.0" y="210.0" type="line"/>
      <point x="433.0" y="220.0"/>
      <point x="481.0" y="287.0"/>
      <point x="481.0" y="352.0" type="curve" smooth="yes"/>
      <point x="481.0" y="415.0"/>
      <point x="439.0" y="472.0"/>
      <point x="353.0" y="472.0" type="curve" smooth="yes"/>
      <point x="284.0" y="472.0"/>
      <point x="216.0" y="415.0"/>
      <point x="184.0" y="334.0" type="curve"/>
      <point x="184.0" y="696.0" type="line" smooth="yes"/>
      <point x="184.0" y="714.0"/>
      <point x="172.0" y="726.0"/>
      <point x="154.0" y="726.0" type="curve" smooth="yes"/>
      <point x="120.0" y="726.0"/>
      <point x="69.0" y="702.0"/>
      <point x="33.0" y="670.0" type="curve"/>
      <point x="40.0" y="646.0" type="line"/>
      <point x="82.0" y="646.0" type="line" smooth="yes"/>
      <point x="95.0" y="646.0"/>
      <point x="100.0" y="641.0"/>
      <point x="100.0" y="626.0" type="curve" smooth="yes"/>
      <point x="100.0" y="103.0" type="line" smooth="yes"/>
      <point x="100.0" y="56.0"/>
      <point x="93.0" y="40.0"/>
      <point x="61.0" y="34.0" type="curve"/>
      <point x="41.0" y="29.0" type="line"/>
      <point x="52.0" y="0.0" type="line"/>
      <point x="215.0" y="0.0" type="line"/>
      <point x="226.0" y="14.0" type="line"/>
      <point x="215.0" y="29.0" type="line" smooth="yes"/>
      <point x="191.0" y="59.0"/>
      <point x="184.0" y="91.0"/>
      <point x="184.0" y="148.0" type="curve" smooth="yes"/>
      <point x="184.0" y="303.0"/>
      <point x="241.0" y="410.0"/>
      <point x="334.0" y="410.0" type="curve" smooth="yes"/>
      <point x="377.0" y="410.0"/>
      <point x="397.0" y="378.0"/>
      <point x="397.0" y="344.0" type="curve" smooth="yes"/>
      <point x="397.0" y="299.0"/>
      <point x="361.0" y="247.0"/>
      <point x="290.0" y="247.0" type="curve" smooth="yes"/>
      <point x="253.0" y="247.0"/>
      <point x="241.0" y="256.0"/>
      <point x="231.0" y="256.0" type="curve" smooth="yes"/>
      <point x="221.0" y="256.0"/>
      <point x="217.0" y="245.0"/>
      <point x="217.0" y="238.0" type="curve" smooth="yes"/>
      <point x="217.0" y="228.0"/>
      <point x="221.0" y="222.0"/>
      <point x="234.0" y="219.0" type="curve"/>
      <point x="243.0" y="216.0" type="line"/>
    </contour>
  </outline>
</glyph>
<glyph name="m" format="2">
  <advance width="872"/>
  <unicode hex="006D"/>
  <outline>
    <contour>
      <point x="189.0" y="148.0" type="curve" smooth="yes"/>
      <point x="189.0" y="299.0"/>
      <point x="243.0" y="401.0"/>
      <point x="323.0" y="401.0" type="curve" smooth="yes"/>
      <point x="369.0" y="401.0"/>
      <point x="393.0" y="369.0"/>
      <point x="393.0" y="306.0" type="curve" smooth="yes"/>
      <point x="393.0" y="0.0" type="line"/>
      <point x="505.0" y="0.0" type="line"/>
      <point x="516.0" y="14.0" type="line"/>
      <point x="482.0" y="55.0"/>
      <point x="476.0" y="89.0"/>
      <point x="476.0" y="148.0" type="curve" smooth="yes"/>
      <point x="476.0" y="160.0" type="line" smooth="yes"/>
      <point x="479.0" y="304.0"/>
      <point x="533.0" y="401.0"/>
      <point x="610.0" y="401.0" type="curve" smooth="yes"/>
      <point x="656.0" y="401.0"/>
      <point x="679.0" y="369.0"/>
      <point x="679.0" y="306.0" type="curve" smooth="yes"/>
      <point x="679.0" y="85.0" type="line" smooth="yes"/>
      <point x="679.0" y="15.0"/>
      <point x="699.0" y="-13.0"/>
      <point x="751.0" y="-13.0" type="curve" smooth="yes"/>
      <point x="782.0" y="-13.0"/>
      <point x="821.0" y="10.0"/>
      <point x="854.0" y="46.0" type="curve"/>
      <point x="836.0" y="70.0" type="line"/>
      <point x="820.0" y="56.0"/>
      <point x="804.0" y="50.0"/>
      <point x="789.0" y="50.0" type="curve" smooth="yes"/>
      <point x="771.0" y="50.0"/>
      <point x="763.0" y="61.0"/>
      <point x="763.0" y="82.0" type="curve" smooth="yes"/>
      <point x="763.0" y="306.0" type="line" smooth="yes"/>
      <point x="763.0" y="421.0"/>
      <point x="727.0" y="472.0"/>
      <point x="644.0" y="472.0" type="curve" smooth="yes"/>
      <point x="577.0" y="472.0"/>
      <point x="508.0" y="415.0"/>
      <point x="476.0" y="334.0" type="curve"/>
      <point x="470.0" y="430.0"/>
      <point x="433.0" y="472.0"/>
      <point x="357.0" y="472.0" type="curve" smooth="yes"/>
      <point x="289.0" y="472.0"/>
      <point x="221.0" y="415.0"/>
      <point x="189.0" y="334.0" type="curve"/>
      <point x="189.0" y="435.0" type="line" smooth="yes"/>
      <point x="189.0" y="452.0"/>
      <point x="178.0" y="464.0"/>
      <point x="160.0" y="464.0" type="curve" smooth="yes"/>
      <point x="125.0" y="464.0"/>
      <point x="73.0" y="441.0"/>
      <point x="37.0" y="409.0" type="curve"/>
      <point x="46.0" y="384.0" type="line"/>
      <point x="86.0" y="384.0" type="line" smooth="yes"/>
      <point x="99.0" y="384.0"/>
      <point x="104.0" y="378.0"/>
      <point x="104.0" y="364.0" type="curve" smooth="yes"/>
      <point x="104.0" y="103.0" type="line" smooth="yes"/>
      <point x="104.0" y="56.0"/>
      <point x="97.0" y="40.0"/>
      <point x="65.0" y="34.0" type="curve"/>
      <point x="47.0" y="29.0" type="line"/>
      <point x="56.0" y="0.0" type="line"/>
      <point x="219.0" y="0.0" type="line"/>
      <point x="230.0" y="14.0" type="line"/>
      <point x="219.0" y="29.0" type="line" smooth="yes"/>
      <point x="197.0" y="60.0"/>
      <point x="189.0" y="91.0"/>
    </contour>
  </outline>
</glyph>
<glyph name="q" format="2">
  <advance width="546"/>
  <unicode hex="0071"/>
  <outline>
    <contour>
      <point x="456.0" y="384.0" type="line" smooth="yes"/>
      <point x="456.0" y="401.0"/>
      <point x="462.0" y="409.0"/>
      <point x="468.0" y="421.0" type="curve"/>
      <point x="480.0" y="438.0" type="line"/>
      <point x="469.0" y="450.0" type="line"/>
      <point x="406.0" y="454.0"/>
      <point x="339.0" y="472.0"/>
      <point x="282.0" y="472.0" type="curve" smooth="yes"/>
      <point x="134.0" y="472.0"/>
      <point x="41.0" y="373.0"/>
      <point x="41.0" y="213.0" type="curve" smooth="yes"/>
      <point x="41.0" y="62.0"/>
      <point x="122.0" y="-13.0"/>
      <point x="209.0" y="-13.0" type="curve" smooth="yes"/>
      <point x="266.0" y="-13.0"/>
      <point x="318.0" y="9.0"/>
      <point x="371.0" y="85.0" type="curve"/>
      <point x="371.0" y="-135.0" type="line" smooth="yes"/>
      <point x="371.0" y="-176.0"/>
      <point x="362.0" y="-190.0"/>
      <point x="333.0" y="-202.0" type="curve"/>
      <point x="304.0" y="-216.0" type="line"/>
      <point x="304.0" y="-246.0" type="line"/>
      <point x="478.0" y="-246.0" type="line"/>
      <point x="488.0" y="-233.0" type="line"/>
      <point x="479.0" y="-218.0" type="line"/>
      <point x="461.0" y="-192.0"/>
      <point x="456.0" y="-169.0"/>
      <point x="456.0" y="-109.0" type="curve" smooth="yes"/>
    </contour>
    <contour>
      <point x="139.0" y="230.0" type="curve" smooth="yes"/>
      <point x="139.0" y="352.0"/>
      <point x="191.0" y="421.0"/>
      <point x="281.0" y="421.0" type="curve" smooth="yes"/>
      <point x="312.0" y="421.0"/>
      <point x="343.0" y="413.0"/>
      <point x="371.0" y="394.0" type="curve"/>
      <point x="371.0" y="143.0" type="line"/>
      <point x="337.0" y="84.0"/>
      <point x="292.0" y="59.0"/>
      <point x="245.0" y="59.0" type="curve" smooth="yes"/>
      <point x="191.0" y="59.0"/>
      <point x="139.0" y="103.0"/>
    </contour>
  </outline>
</glyph>
<glyph name="w" format="2">
  <advance width="754"/>
  <unicode hex="0077"/>
  <outline>
    <contour>
      <point x="260.0" y="47.0" type="curve" smooth="yes"/>
      <point x="219.0" y="47.0"/>
      <point x="199.0" y="79.0"/>
      <point x="188.0" y="153.0" type="curve" smooth="yes"/>
      <point x="147.0" y="444.0" type="line" smooth="yes"/>
      <point x="144.0" y="462.0"/>
      <point x="134.0" y="472.0"/>
      <point x="117.0" y="472.0" type="curve" smooth="yes"/>
      <point x="83.0" y="472.0"/>
      <point x="33.0" y="449.0"/>
      <point x="0.0" y="417.0" type="curve"/>
      <point x="9.0" y="394.0" type="line"/>
      <point x="49.0" y="394.0" type="line" smooth="yes"/>
      <point x="61.0" y="394.0"/>
      <point x="65.0" y="389.0"/>
      <point x="67.0" y="372.0" type="curve" smooth="yes"/>
      <point x="97.0" y="177.0" type="line" smooth="yes"/>
      <point x="117.0" y="36.0"/>
      <point x="153.0" y="-13.0"/>
      <point x="248.0" y="-13.0" type="curve" smooth="yes"/>
      <point x="302.0" y="-13.0"/>
      <point x="352.0" y="26.0"/>
      <point x="385.0" y="103.0" type="curve"/>
      <point x="408.0" y="18.0"/>
      <point x="446.0" y="-13.0"/>
      <point x="516.0" y="-13.0" type="curve" smooth="yes"/>
      <point x="611.0" y="-13.0"/>
      <point x="698.0" y="119.0"/>
      <point x="698.0" y="374.0" type="curve" smooth="yes"/>
      <point x="698.0" y="405.0"/>
      <point x="696.0" y="439.0"/>
      <point x="694.0" y="472.0" type="curve"/>
      <point x="585.0" y="461.0" type="line"/>
      <point x="575.0" y="449.0" type="line"/>
      <point x="584.0" y="435.0" type="line" smooth="yes"/>
      <point x="611.0" y="390.0"/>
      <point x="625.0" y="330.0"/>
      <point x="625.0" y="273.0" type="curve" smooth="yes"/>
      <point x="625.0" y="159.0"/>
      <point x="585.0" y="47.0"/>
      <point x="523.0" y="47.0" type="curve" smooth="yes"/>
      <point x="479.0" y="47.0"/>
      <point x="460.0" y="79.0"/>
      <point x="449.0" y="153.0" type="curve" smooth="yes"/>
      <point x="429.0" y="284.0" type="line"/>
      <point x="433.0" y="313.0"/>
      <point x="435.0" y="342.0"/>
      <point x="435.0" y="374.0" type="curve" smooth="yes"/>
      <point x="435.0" y="405.0"/>
      <point x="433.0" y="439.0"/>
      <point x="429.0" y="472.0" type="curve"/>
      <point x="321.0" y="461.0" type="line"/>
      <point x="310.0" y="449.0" type="line"/>
      <point x="319.0" y="435.0" type="line" smooth="yes"/>
      <point x="347.0" y="390.0"/>
      <point x="360.0" y="330.0"/>
      <point x="360.0" y="273.0" type="curve" smooth="yes"/>
      <point x="360.0" y="159.0"/>
      <point x="322.0" y="47.0"/>
    </contour>
  </outline>
</glyph>
<glyph name="braceright" format="2">
  <advance width="324"/>
  <unicode hex="007D"/>
  <outline>
    <contour>
      <point x="119.0" y="148.0" type="curve" smooth="yes"/>
      <point x="119.0" y="253.0"/>
      <point x="160.0" y="295.0"/>
      <point x="220.0" y="307.0" type="curve"/>
      <point x="160.0" y="320.0"/>
      <point x="119.0" y="362.0"/>
      <point x="119.0" y="465.0" type="curve" smooth="yes"/>
      <point x="119.0" y="572.0"/>
      <point x="91.0" y="661.0"/>
      <point x="24.0" y="677.0" type="curve"/>
      <point x="31.0" y="718.0" type="line"/>
      <point x="170.0" y="701.0"/>
      <point x="221.0" y="594.0"/>
      <point x="221.0" y="465.0" type="curve" smooth="yes"/>
      <point x="221.0" y="369.0"/>
      <point x="240.0" y="334.0"/>
      <point x="293.0" y="324.0" type="curve"/>
      <point x="293.0" y="289.0" type="line"/>
      <point x="240.0" y="278.0"/>
      <point x="221.0" y="245.0"/>
      <point x="221.0" y="148.0" type="curve" smooth="yes"/>
      <point x="221.0" y="20.0"/>
      <point x="170.0" y="-87.0"/>
      <point x="31.0" y="-103.0" type="curve"/>
      <point x="24.0" y="-62.0" type="line"/>
      <point x="91.0" y="-47.0"/>
      <point x="119.0" y="43.0"/>
    </contour>
  </outline>
</glyph>
<glyph name="yen" format="2">
  <advance width="580"/>
  <unicode hex="00A5"/>
  <outline>
    <contour>
      <point x="211.0" y="530.0" type="line"/>
      <point x="200.0" y="547.0"/>
      <point x="182.0" y="576.0"/>
      <point x="182.0" y="588.0" type="curve" smooth="yes"/>
      <point x="182.0" y="610.0"/>
      <point x="194.0" y="623.0"/>
      <point x="224.0" y="629.0" type="curve" smooth="yes"/>
      <point x="245.0" y="634.0" type="line"/>
      <point x="234.0" y="666.0" type="line"/>
      <point x="24.0" y="666.0" type="line"/>
      <point x="13.0" y="651.0" type="line"/>
      <point x="53.0" y="621.0"/>
      <point x="73.0" y="590.0"/>
      <point x="105.0" y="534.0" type="curve" smooth="yes"/>
      <point x="168.0" y="424.0" type="line"/>
      <point x="83.0" y="424.0" type="line"/>
      <point x="65.0" y="412.0"/>
      <point x="61.0" y="387.0"/>
      <point x="61.0" y="366.0" type="curve"/>
      <point x="201.0" y="366.0" type="line"/>
      <point x="253.0" y="274.0" type="line"/>
      <point x="83.0" y="274.0" type="line"/>
      <point x="65.0" y="262.0"/>
      <point x="61.0" y="236.0"/>
      <point x="61.0" y="216.0" type="curve"/>
      <point x="254.0" y="216.0" type="line"/>
      <point x="254.0" y="186.0" type="line" smooth="yes"/>
      <point x="254.0" y="109.0"/>
      <point x="241.0" y="72.0"/>
      <point x="211.0" y="32.0" type="curve" smooth="yes"/>
      <point x="199.0" y="15.0" type="line"/>
      <point x="211.0" y="0.0" type="line"/>
      <point x="414.0" y="0.0" type="line"/>
      <point x="424.0" y="32.0" type="line"/>
      <point x="404.0" y="37.0" type="line" smooth="yes"/>
      <point x="357.0" y="49.0"/>
      <point x="343.0" y="66.0"/>
      <point x="343.0" y="123.0" type="curve" smooth="yes"/>
      <point x="343.0" y="216.0" type="line"/>
      <point x="515.0" y="216.0" type="line"/>
      <point x="532.0" y="229.0"/>
      <point x="537.0" y="254.0"/>
      <point x="537.0" y="274.0" type="curve"/>
      <point x="343.0" y="274.0" type="line"/>
      <point x="343.0" y="281.0" type="line"/>
      <point x="390.0" y="366.0" type="line"/>
      <point x="515.0" y="366.0" type="line"/>
      <point x="532.0" y="379.0"/>
      <point x="537.0" y="404.0"/>
      <point x="537.0" y="424.0" type="curve"/>
      <point x="423.0" y="424.0" type="line"/>
      <point x="487.0" y="536.0" type="line" smooth="yes"/>
      <point x="504.0" y="568.0"/>
      <point x="528.0" y="605.0"/>
      <point x="552.0" y="634.0" type="curve" smooth="yes"/>
      <point x="566.0" y="651.0" type="line"/>
      <point x="554.0" y="666.0" type="line"/>
      <point x="378.0" y="666.0" type="line"/>
      <point x="367.0" y="634.0" type="line"/>
      <point x="387.0" y="629.0" type="line" smooth="yes"/>
      <point x="407.0" y="624.0"/>
      <point x="427.0" y="607.0"/>
      <point x="427.0" y="580.0" type="curve" smooth="yes"/>
      <point x="427.0" y="569.0"/>
      <point x="423.0" y="556.0"/>
      <point x="416.0" y="542.0" type="curve" smooth="yes"/>
      <point x="312.0" y="354.0" type="line"/>
    </contour>
  </outline>
</glyph>
<glyph name="copyright" format="2">
  <advance width="721"/>
  <unicode hex="00A9"/>
  <outline>
    <contour>
      <point x="447.0" y="533.0" type="line"/>
      <point x="458.0" y="533.0"/>
      <point x="473.0" y="536.0"/>
      <point x="479.0" y="546.0" type="curve"/>
      <point x="479.0" y="646.0" type="line"/>
      <point x="455.0" y="646.0" type="line"/>
      <point x="447.0" y="630.0" type="line"/>
      <point x="423.0" y="645.0"/>
      <point x="397.0" y="652.0"/>
      <point x="365.0" y="652.0" type="curve" smooth="yes"/>
      <point x="253.0" y="652.0"/>
      <point x="200.0" y="566.0"/>
      <point x="200.0" y="465.0" type="curve" smooth="yes"/>
      <point x="200.0" y="361.0"/>
      <point x="253.0" y="277.0"/>
      <point x="365.0" y="277.0" type="curve" smooth="yes"/>
      <point x="420.0" y="277.0"/>
      <point x="458.0" y="303.0"/>
      <point x="487.0" y="347.0" type="curve"/>
      <point x="463.0" y="367.0" type="line"/>
      <point x="443.0" y="336.0"/>
      <point x="411.0" y="317.0"/>
      <point x="368.0" y="317.0" type="curve" smooth="yes"/>
      <point x="303.0" y="317.0"/>
      <point x="265.0" y="383.0"/>
      <point x="265.0" y="465.0" type="curve" smooth="yes"/>
      <point x="265.0" y="537.0"/>
      <point x="289.0" y="618.0"/>
      <point x="365.0" y="618.0" type="curve" smooth="yes"/>
      <point x="395.0" y="618.0"/>
      <point x="418.0" y="603.0"/>
      <point x="435.0" y="581.0" type="curve"/>
    </contour>
    <contour>
      <point x="117.0" y="462.0" type="curve" smooth="yes"/>
      <point x="117.0" y="597.0"/>
      <point x="227.0" y="706.0"/>
      <point x="361.0" y="706.0" type="curve" smooth="yes"/>
      <point x="496.0" y="706.0"/>
      <point x="604.0" y="597.0"/>
      <point x="604.0" y="462.0" type="curve" smooth="yes"/>
      <point x="604.0" y="328.0"/>
      <point x="496.0" y="218.0"/>
      <point x="361.0" y="218.0" type="curve" smooth="yes"/>
      <point x="227.0" y="218.0"/>
      <point x="117.0" y="328.0"/>
    </contour>
    <contour>
      <point x="93.0" y="462.0" type="curve" smooth="yes"/>
      <point x="93.0" y="315.0"/>
      <point x="214.0" y="194.0"/>
      <point x="361.0" y="194.0" type="curve" smooth="yes"/>
      <point x="509.0" y="194.0"/>
      <point x="629.0" y="315.0"/>
      <point x="629.0" y="462.0" type="curve" smooth="yes"/>
      <point x="629.0" y="609.0"/>
      <point x="509.0" y="730.0"/>
      <point x="361.0" y="730.0" type="curve" smooth="yes"/>
      <point x="214.0" y="730.0"/>
      <point x="93.0" y="609.0"/>
    </contour>
  </outline>
</glyph>
<glyph name="logicalnot" format="2">
  <advance width="576"/>
  <unicode hex="00AC"/>
  <outline>
    <contour>
      <point x="91.0" y="297.0" type="line"/>
      <point x="421.0" y="297.0" type="line"/>
      <point x="421.0" y="155.0" type="line"/>
      <point x="484.0" y="155.0" type="line"/>
      <point x="484.0" y="366.0" type="line"/>
      <point x="91.0" y="366.0" type="line"/>
    </contour>
  </outline>
</glyph>
<glyph name="macron" format="2">
  <advance width="377"/>
  <unicode hex="00AF"/>
  <outline>
    <contour>
      <point x="302.0" y="572.0" type="line"/>
      <point x="320.0" y="588.0"/>
      <point x="326.0" y="623.0"/>
      <point x="326.0" y="646.0" type="curve"/>
      <point x="77.0" y="646.0" type="line"/>
      <point x="59.0" y="631.0"/>
      <point x="52.0" y="596.0"/>
      <point x="52.0" y="572.0" type="curve"/>
    </contour>
  </outline>
</glyph>
<glyph name="twosuperior" format="2">
  <advance width="359"/>
  <unicode hex="00B2"/>
  <outline>
    <contour>
      <point x="305.0" y="267.0" type="line"/>
      <point x="323.0" y="282.0"/>
      <point x="329.0" y="308.0"/>
      <point x="329.0" y="330.0" type="curve"/>
      <point x="132.0" y="330.0" type="line"/>
      <point x="231.0" y="411.0"/>
      <point x="318.0" y="494.0"/>
      <point x="318.0" y="570.0" type="curve" smooth="yes"/>
      <point x="318.0" y="640.0"/>
      <point x="263.0" y="679.0"/>
      <point x="176.0" y="679.0" type="curve" smooth="yes"/>
      <point x="106.0" y="679.0"/>
      <point x="39.0" y="645.0"/>
      <point x="39.0" y="577.0" type="curve" smooth="yes"/>
      <point x="39.0" y="539.0"/>
      <point x="69.0" y="513.0"/>
      <point x="107.0" y="513.0" type="curve" smooth="yes"/>
      <point x="121.0" y="513.0"/>
      <point x="129.0" y="516.0"/>
      <point x="129.0" y="523.0" type="curve" smooth="yes"/>
      <point x="129.0" y="534.0"/>
      <point x="112.0" y="552.0"/>
      <point x="112.0" y="573.0" type="curve" smooth="yes"/>
      <point x="112.0" y="613.0"/>
      <point x="142.0" y="635.0"/>
      <point x="174.0" y="635.0" type="curve" smooth="yes"/>
      <point x="205.0" y="635.0"/>
      <point x="235.0" y="615.0"/>
      <point x="235.0" y="571.0" type="curve" smooth="yes"/>
      <point x="235.0" y="505.0"/>
      <point x="204.0" y="448.0"/>
      <point x="26.0" y="302.0" type="curve"/>
      <point x="43.0" y="267.0" type="line"/>
    </contour>
  </outline>
</glyph>
<glyph name="periodcentered" format="2">
  <advance width="177"/>
  <unicode hex="00B7"/>
  <outline>
    <contour>
      <point x="31.0" y="298.0" type="curve" smooth="yes"/>
      <point x="31.0" y="275.0"/>
      <point x="65.0" y="238.0"/>
      <point x="87.0" y="238.0" type="curve" smooth="yes"/>
      <point x="109.0" y="238.0"/>
      <point x="146.0" y="275.0"/>
      <point x="146.0" y="298.0" type="curve" smooth="yes"/>
      <point x="146.0" y="324.0"/>
      <point x="109.0" y="360.0"/>
      <point x="87.0" y="360.0" type="curve" smooth="yes"/>
      <point x="65.0" y="360.0"/>
      <point x="31.0" y="324.0"/>
    </contour>
  </outline>
</glyph>
<glyph name="cedilla" format="2">
  <advance width="324"/>
  <unicode hex="00B8"/>
  <outline>
    <contour>
      <point x="151.0" y="-234.0" type="curve" smooth="yes"/>
      <point x="132.0" y="-234.0"/>
      <point x="113.0" y="-221.0"/>
      <point x="113.0" y="-198.0" type="curve" smooth="yes"/>
      <point x="113.0" y="-171.0"/>
      <point x="127.0" y="-166.0"/>
      <point x="127.0" y="-157.0" type="curve" smooth="yes"/>
      <point x="127.0" y="-152.0"/>
      <point x="121.0" y="-148.0"/>
      <point x="110.0" y="-148.0" type="curve" smooth="yes"/>
      <point x="79.0" y="-148.0"/>
      <point x="51.0" y="-169.0"/>
      <point x="51.0" y="-202.0" type="curve" smooth="yes"/>
      <point x="51.0" y="-249.0"/>
      <point x="101.0" y="-273.0"/>
      <point x="152.0" y="-273.0" type="curve" smooth="yes"/>
      <point x="224.0" y="-273.0"/>
      <point x="278.0" y="-225.0"/>
      <point x="278.0" y="-166.0" type="curve" smooth="yes"/>
      <point x="278.0" y="-95.0"/>
      <point x="227.0" y="-61.0"/>
      <point x="173.0" y="-61.0" type="curve" smooth="yes"/>
      <point x="161.0" y="-61.0"/>
      <point x="150.0" y="-62.0"/>
      <point x="138.0" y="-65.0" type="curve"/>
      <point x="211.0" y="29.0" type="line"/>
      <point x="173.0" y="29.0" type="line"/>
      <point x="79.0" y="-95.0" type="line"/>
      <point x="97.0" y="-111.0" type="line"/>
      <point x="116.0" y="-100.0"/>
      <point x="133.0" y="-96.0"/>
      <point x="147.0" y="-96.0" type="curve" smooth="yes"/>
      <point x="190.0" y="-96.0"/>
      <point x="210.0" y="-130.0"/>
      <point x="210.0" y="-165.0" type="curve" smooth="yes"/>
      <point x="210.0" y="-199.0"/>
      <point x="189.0" y="-234.0"/>
    </contour>
  </outline>
</glyph>
<glyph name="questiondown" format="2">
  <advance width="498"/>
  <unicode hex="00BF"/>
  <outline>
    <contour>
      <point x="339.0" y="414.0" type="curve" smooth="yes"/>
      <point x="339.0" y="437.0"/>
      <point x="304.0" y="473.0"/>
      <point x="283.0" y="473.0" type="curve" smooth="yes"/>
      <point x="260.0" y="473.0"/>
      <point x="224.0" y="437.0"/>
      <point x="224.0" y="414.0" type="curve" smooth="yes"/>
      <point x="224.0" y="388.0"/>
      <point x="260.0" y="352.0"/>
      <point x="283.0" y="352.0" type="curve" smooth="yes"/>
      <point x="305.0" y="352.0"/>
      <point x="339.0" y="388.0"/>
    </contour>
    <contour>
      <point x="189.0" y="143.0" type="curve" smooth="yes"/>
      <point x="108.0" y="64.0"/>
      <point x="59.0" y="-11.0"/>
      <point x="59.0" y="-81.0" type="curve" smooth="yes"/>
      <point x="59.0" y="-185.0"/>
      <point x="149.0" y="-244.0"/>
      <point x="256.0" y="-244.0" type="curve" smooth="yes"/>
      <point x="370.0" y="-244.0"/>
      <point x="452.0" y="-191.0"/>
      <point x="452.0" y="-115.0" type="curve" smooth="yes"/>
      <point x="452.0" y="-61.0"/>
      <point x="414.0" y="-23.0"/>
      <point x="361.0" y="-23.0" type="curve" smooth="yes"/>
      <point x="349.0" y="-23.0"/>
      <point x="344.0" y="-27.0"/>
      <point x="344.0" y="-34.0" type="curve" smooth="yes"/>
      <point x="344.0" y="-43.0"/>
      <point x="365.0" y="-58.0"/>
      <point x="365.0" y="-111.0" type="curve" smooth="yes"/>
      <point x="365.0" y="-160.0"/>
      <point x="331.0" y="-190.0"/>
      <point x="278.0" y="-190.0" type="curve" smooth="yes"/>
      <point x="212.0" y="-190.0"/>
      <point x="165.0" y="-154.0"/>
      <point x="165.0" y="-76.0" type="curve" smooth="yes"/>
      <point x="165.0" y="-12.0"/>
      <point x="184.0" y="62.0"/>
      <point x="347.0" y="202.0" type="curve"/>
      <point x="289.0" y="261.0" type="line"/>
      <point x="271.0" y="261.0" type="line"/>
      <point x="267.0" y="243.0" type="line"/>
      <point x="256.0" y="206.0"/>
      <point x="233.0" y="183.0"/>
    </contour>
  </outline>
</glyph>
<glyph name="Ccedilla" format="2">
  <advance width="572"/>
  <unicode hex="00C7"/>
  <outline>
    <contour>
      <point x="274.0" y="-234.0" type="curve" smooth="yes"/>
      <point x="255.0" y="-234.0"/>
      <point x="236.0" y="-221.0"/>
      <point x="236.0" y="-198.0" type="curve" smooth="yes"/>
      <point x="236.0" y="-171.0"/>
      <point x="250.0" y="-166.0"/>
      <point x="250.0" y="-157.0" type="curve" smooth="yes"/>
      <point x="250.0" y="-152.0"/>
      <point x="244.0" y="-148.0"/>
      <point x="233.0" y="-148.0" type="curve" smooth="yes"/>
      <point x="202.0" y="-148.0"/>
      <point x="174.0" y="-169.0"/>
      <point x="174.0" y="-202.0" type="curve" smooth="yes"/>
      <point x="174.0" y="-249.0"/>
      <point x="225.0" y="-273.0"/>
      <point x="276.0" y="-273.0" type="curve" smooth="yes"/>
      <point x="348.0" y="-273.0"/>
      <point x="401.0" y="-225.0"/>
      <point x="401.0" y="-166.0" type="curve" smooth="yes"/>
      <point x="401.0" y="-95.0"/>
      <point x="351.0" y="-61.0"/>
      <point x="297.0" y="-61.0" type="curve" smooth="yes"/>
      <point x="285.0" y="-61.0"/>
      <point x="274.0" y="-62.0"/>
      <point x="262.0" y="-65.0" type="curve"/>
      <point x="302.0" y="-12.0" type="line"/>
      <point x="311.0" y="-12.0"/>
      <point x="319.0" y="-13.0"/>
      <point x="329.0" y="-13.0" type="curve" smooth="yes"/>
      <point x="428.0" y="-13.0"/>
      <point x="497.0" y="34.0"/>
      <point x="546.0" y="104.0" type="curve"/>
      <point x="547.0" y="107.0"/>
      <point x="548.0" y="110.0"/>
      <point x="548.0" y="112.0" type="curve" smooth="yes"/>
      <point x="548.0" y="125.0"/>
      <point x="530.0" y="138.0"/>
      <point x="518.0" y="138.0" type="curve" smooth="yes"/>
      <point x="515.0" y="138.0"/>
      <point x="514.0" y="137.0"/>
      <point x="512.0" y="134.0" type="curve" smooth="yes"/>
      <point x="478.0" y="84.0"/>
      <point x="419.0" y="51.0"/>
      <point x="337.0" y="51.0" type="curve" smooth="yes"/>
      <point x="214.0" y="51.0"/>
      <point x="137.0" y="178.0"/>
      <point x="137.0" y="332.0" type="curve" smooth="yes"/>
      <point x="137.0" y="471.0"/>
      <point x="186.0" y="628.0"/>
      <point x="332.0" y="628.0" type="curve" smooth="yes"/>
      <point x="403.0" y="628.0"/>
      <point x="450.0" y="587.0"/>
      <point x="450.0" y="530.0" type="curve" smooth="yes"/>
      <point x="450.0" y="479.0"/>
      <point x="421.0" y="455.0"/>
      <point x="421.0" y="446.0" type="curve" smooth="yes"/>
      <point x="421.0" y="439.0"/>
      <point x="428.0" y="435.0"/>
      <point x="442.0" y="435.0" type="curve" smooth="yes"/>
      <point x="498.0" y="435.0"/>
      <point x="540.0" y="479.0"/>
      <point x="540.0" y="543.0" type="curve" smooth="yes"/>
      <point x="540.0" y="624.0"/>
      <point x="454.0" y="679.0"/>
      <point x="332.0" y="679.0" type="curve" smooth="yes"/>
      <point x="129.0" y="679.0"/>
      <point x="33.0" y="524.0"/>
      <point x="33.0" y="332.0" type="curve" smooth="yes"/>
      <point x="33.0" y="162.0"/>
      <point x="109.0" y="21.0"/>
      <point x="268.0" y="-7.0" type="curve"/>
      <point x="202.0" y="-95.0" type="line"/>
      <point x="220.0" y="-111.0" type="line"/>
      <point x="239.0" y="-100.0"/>
      <point x="256.0" y="-96.0"/>
      <point x="270.0" y="-96.0" type="curve" smooth="yes"/>
      <point x="313.0" y="-96.0"/>
      <point x="333.0" y="-130.0"/>
      <point x="333.0" y="-165.0" type="curve" smooth="yes"/>
      <point x="333.0" y="-199.0"/>
      <point x="312.0" y="-234.0"/>
    </contour>
  </outline>
</glyph>
<glyph name="Icircumflex" format="2">
  <advance width="327"/>
  <unicode hex="00CE"/>
  <outline>
    <contour>
      <point x="276.0" y="0.0" type="line"/>
      <point x="285.0" y="30.0" type="line"/>
      <point x="266.0" y="35.0" type="line" smooth="yes"/>
      <point x="222.0" y="48.0"/>
      <point x="210.0" y="62.0"/>
      <point x="210.0" y="117.0" type="curve" smooth="yes"/>
      <point x="210.0" y="480.0" type="line" smooth="yes"/>
      <point x="210.0" y="554.0"/>
      <point x="221.0" y="594.0"/>
      <point x="252.0" y="634.0" type="curve" smooth="yes"/>
      <point x="264.0" y="651.0" type="line"/>
      <point x="252.0" y="666.0" type="line"/>
      <point x="48.0" y="666.0" type="line"/>
      <point x="37.0" y="634.0" type="line"/>
      <point x="59.0" y="629.0" type="line"/>
      <point x="105.0" y="616.0"/>
      <point x="118.0" y="600.0"/>
      <point x="118.0" y="543.0" type="curve" smooth="yes"/>
      <point x="118.0" y="123.0" type="line" smooth="yes"/>
      <point x="118.0" y="64.0"/>
      <point x="105.0" y="51.0"/>
      <point x="59.0" y="37.0" type="curve"/>
      <point x="37.0" y="32.0" type="line"/>
      <point x="48.0" y="0.0" type="line"/>
    </contour>
    <contour>
      <point x="152.0" y="905.0" type="line"/>
      <point x="128.0" y="891.0"/>
      <point x="77.0" y="830.0"/>
      <point x="37.0" y="759.0" type="curve"/>
      <point x="68.0" y="734.0" type="line"/>
      <point x="164.0" y="810.0" type="line"/>
      <point x="262.0" y="734.0" type="line"/>
      <point x="292.0" y="759.0" type="line"/>
      <point x="251.0" y="832.0"/>
      <point x="198.0" y="893.0"/>
      <point x="177.0" y="905.0" type="curve"/>
    </contour>
  </outline>
</glyph>
<glyph name="Ntilde" format="2">
  <advance width="722"/>
  <unicode hex="00D1"/>
  <outline>
    <contour>
      <point x="531.0" y="0.0" type="line"/>
      <point x="625.0" y="0.0" type="line"/>
      <point x="636.0" y="15.0" type="line"/>
      <point x="625.0" y="32.0" type="line" smooth="yes"/>
      <point x="616.0" y="45.0"/>
      <point x="611.0" y="58.0"/>
      <point x="611.0" y="82.0" type="curve" smooth="yes"/>
      <point x="611.0" y="480.0" type="line" smooth="yes"/>
      <point x="611.0" y="554.0"/>
      <point x="622.0" y="594.0"/>
      <point x="652.0" y="634.0" type="curve" smooth="yes"/>
      <point x="666.0" y="651.0" type="line"/>
      <point x="652.0" y="666.0" type="line"/>
      <point x="478.0" y="666.0" type="line"/>
      <point x="465.0" y="634.0" type="line"/>
      <point x="487.0" y="629.0" type="line" smooth="yes"/>
      <point x="534.0" y="616.0"/>
      <point x="547.0" y="600.0"/>
      <point x="547.0" y="543.0" type="curve" smooth="yes"/>
      <point x="547.0" y="140.0" type="line"/>
      <point x="192.0" y="666.0" type="line"/>
      <point x="43.0" y="666.0" type="line"/>
      <point x="32.0" y="634.0" type="line"/>
      <point x="53.0" y="629.0" type="line" smooth="yes"/>
      <point x="99.0" y="616.0"/>
      <point x="112.0" y="600.0"/>
      <point x="112.0" y="543.0" type="curve" smooth="yes"/>
      <point x="112.0" y="123.0" type="line" smooth="yes"/>
      <point x="112.0" y="64.0"/>
      <point x="99.0" y="51.0"/>
      <point x="53.0" y="37.0" type="curve"/>
      <point x="32.0" y="32.0" type="line"/>
      <point x="43.0" y="0.0" type="line"/>
      <point x="219.0" y="0.0" type="line"/>
      <point x="231.0" y="15.0" type="line"/>
      <point x="219.0" y="32.0" type="line" smooth="yes"/>
      <point x="188.0" y="72.0"/>
      <point x="178.0" y="110.0"/>
      <point x="178.0" y="186.0" type="curve" smooth="yes"/>
      <point x="178.0" y="525.0" type="line"/>
    </contour>
    <contour>
      <point x="488.0" y="877.0" type="line"/>
      <point x="460.0" y="850.0"/>
      <point x="440.0" y="839.0"/>
      <point x="424.0" y="839.0" type="curve" smooth="yes"/>
      <point x="395.0" y="839.0"/>
      <point x="376.0" y="872.0"/>
      <point x="337.0" y="872.0" type="curve" smooth="yes"/>
      <point x="302.0" y="872.0"/>
      <point x="258.0" y="837.0"/>
      <point x="218.0" y="783.0" type="curve"/>
      <point x="251.0" y="753.0" type="line"/>
      <point x="275.0" y="779.0"/>
      <point x="298.0" y="789.0"/>
      <point x="313.0" y="789.0" type="curve" smooth="yes"/>
      <point x="343.0" y="789.0"/>
      <point x="358.0" y="757.0"/>
      <point x="401.0" y="757.0" type="curve" smooth="yes"/>
      <point x="436.0" y="757.0"/>
      <point x="481.0" y="793.0"/>
      <point x="519.0" y="847.0" type="curve"/>
    </contour>
  </outline>
</glyph>
<glyph name="Odieresis" format="2">
  <advance width="679"/>
  <unicode hex="00D6"/>
  <outline>
    <contour>
      <point x="547.0" y="329.0" type="curve" smooth="yes"/>
      <point x="547.0" y="170.0"/>
      <point x="469.0" y="41.0"/>
      <point x="335.0" y="41.0" type="curve" smooth="yes"/>
      <point x="201.0" y="41.0"/>
      <point x="133.0" y="167.0"/>
      <point x="133.0" y="324.0" type="curve" smooth="yes"/>
      <point x="133.0" y="489.0"/>
      <point x="210.0" y="627.0"/>
      <point x="345.0" y="627.0" type="curve" smooth="yes"/>
      <point x="502.0" y="627.0"/>
      <point x="547.0" y="446.0"/>
    </contour>
    <contour>
      <point x="33.0" y="332.0" type="curve" smooth="yes"/>
      <point x="33.0" y="140.0"/>
      <point x="132.0" y="-13.0"/>
      <point x="339.0" y="-13.0" type="curve" smooth="yes"/>
      <point x="546.0" y="-13.0"/>
      <point x="647.0" y="140.0"/>
      <point x="647.0" y="332.0" type="curve" smooth="yes"/>
      <point x="647.0" y="524.0"/>
      <point x="546.0" y="679.0"/>
      <point x="339.0" y="679.0" type="curve" smooth="yes"/>
      <point x="132.0" y="679.0"/>
      <point x="33.0" y="524.0"/>
    </contour>
    <contour>
      <point x="195.0" y="815.0" type="curve" smooth="yes"/>
      <point x="195.0" y="792.0"/>
      <point x="230.0" y="755.0"/>
      <point x="251.0" y="755.0" type="curve" smooth="yes"/>
      <point x="274.0" y="755.0"/>
      <point x="311.0" y="792.0"/>
      <point x="311.0" y="815.0" type="curve" smooth="yes"/>
      <point x="311.0" y="839.0"/>
      <point x="274.0" y="877.0"/>
      <point x="251.0" y="877.0" type="curve" smooth="yes"/>
      <point x="229.0" y="877.0"/>
      <point x="195.0" y="839.0"/>
    </contour>
    <contour>
      <point x="370.0" y="815.0" type="curve" smooth="yes"/>
      <point x="370.0" y="792.0"/>
      <point x="406.0" y="755.0"/>
      <point x="427.0" y="755.0" type="curve" smooth="yes"/>
      <point x="450.0" y="755.0"/>
      <point x="486.0" y="792.0"/>
      <point x="486.0" y="815.0" type="curve" smooth="yes"/>
      <point x="486.0" y="839.0"/>
      <point x="450.0" y="877.0"/>
      <point x="427.0" y="877.0" type="curve" smooth="yes"/>
      <point x="405.0" y="877.0"/>
      <point x="370.0" y="839.0"/>
    </contour>
  </outline>
</glyph>
<glyph name="Uacute" format="2">
  <advance width="685"/>
  <unicode hex="00DA"/>
  <outline>
    <contour>
      <point x="195.0" y="480.0" type="line" smooth="yes"/>
      <point x="195.0" y="554.0"/>
      <point x="206.0" y="594.0"/>
      <point x="236.0" y="634.0" type="curve" smooth="yes"/>
      <point x="248.0" y="651.0" type="line"/>
      <point x="236.0" y="666.0" type="line"/>
      <point x="34.0" y="666.0" type="line"/>
      <point x="21.0" y="634.0" type="line"/>
      <point x="44.0" y="629.0" type="line"/>
      <point x="91.0" y="616.0"/>
      <point x="103.0" y="600.0"/>
      <point x="103.0" y="543.0" type="curve" smooth="yes"/>
      <point x="103.0" y="203.0" type="line" smooth="yes"/>
      <point x="103.0" y="51.0"/>
      <point x="211.0" y="-13.0"/>
      <point x="347.0" y="-13.0" type="curve" smooth="yes"/>
      <point x="480.0" y="-13.0"/>
      <point x="586.0" y="51.0"/>
      <point x="586.0" y="203.0" type="curve" smooth="yes"/>
      <point x="586.0" y="480.0" type="line" smooth="yes"/>
      <point x="586.0" y="554.0"/>
      <point x="597.0" y="594.0"/>
      <point x="628.0" y="634.0" type="curve" smooth="yes"/>
      <point x="640.0" y="651.0" type="line"/>
      <point x="628.0" y="666.0" type="line"/>
      <point x="452.0" y="666.0" type="line"/>
      <point x="440.0" y="634.0" type="line"/>
      <point x="462.0" y="629.0" type="line" smooth="yes"/>
      <point x="509.0" y="616.0"/>
      <point x="521.0" y="600.0"/>
      <point x="521.0" y="543.0" type="curve" smooth="yes"/>
      <point x="521.0" y="203.0" type="line" smooth="yes"/>
      <point x="521.0" y="103.0"/>
      <point x="449.0" y="46.0"/>
      <point x="359.0" y="46.0" type="curve" smooth="yes"/>
      <point x="268.0" y="46.0"/>
      <point x="195.0" y="103.0"/>
      <point x="195.0" y="203.0" type="curve" smooth="yes"/>
    </contour>
    <contour>
      <point x="284.0" y="765.0" type="line"/>
      <point x="311.0" y="734.0" type="line"/>
      <point x="416.0" y="785.0" type="line" smooth="yes"/>
      <point x="453.0" y="803.0"/>
      <point x="467.0" y="825.0"/>
      <point x="467.0" y="851.0" type="curve" smooth="yes"/>
      <point x="467.0" y="879.0"/>
      <point x="452.0" y="899.0"/>
      <point x="428.0" y="911.0" type="curve"/>
    </contour>
  </outline>
</glyph>
<glyph name="Ucircumflex" format="2">
  <advance width="685"/>
  <unicode hex="00DB"/>
  <outline>
    <contour>
      <point x="195.0" y="480.0" type="line" smooth="yes"/>
      <point x="195.0" y="554.0"/>
      <point x="206.0" y="594.0"/>
      <point x="236.0" y="634.0" type="curve" smooth="yes"/>
      <point x="248.0" y="651.0" type="line"/>
      <point x="236.0" y="666.0" type="line"/>
      <point x="34.0" y="666.0" type="line"/>
      <point x="21.0" y="634.0" type="line"/>
      <point x="44.0" y="629.0" type="line"/>
      <point x="91.0" y="616.0"/>
      <point x="103.0" y="600.0"/>
      <point x="103.0" y="543.0" type="curve" smooth="yes"/>
      <point x="103.0" y="203.0" type="line" smooth="yes"/>
      <point x="103.0" y="51.0"/>
      <point x="211.0" y="-13.0"/>
      <point x="347.0" y="-13.0" type="curve" smooth="yes"/>
      <point x="480.0" y="-13.0"/>
      <point x="586.0" y="51.0"/>
      <point x="586.0" y="203.0" type="curve" smooth="yes"/>
      <point x="586.0" y="480.0" type="line" smooth="yes"/>
      <point x="586.0" y="554.0"/>
      <point x="597.0" y="594.0"/>
      <point x="628.0" y="634.0" type="curve" smooth="yes"/>
      <point x="640.0" y="651.0" type="line"/>
      <point x="628.0" y="666.0" type="line"/>
      <point x="452.0" y="666.0" type="line"/>
      <point x="440.0" y="634.0" type="line"/>
      <point x="462.0" y="629.0" type="line" smooth="yes"/>
      <point x="509.0" y="616.0"/>
      <point x="521.0" y="600.0"/>
      <point x="521.0" y="543.0" type="curve" smooth="yes"/>
      <point x="521.0" y="203.0" type="line" smooth="yes"/>
      <point x="521.0" y="103.0"/>
      <point x="449.0" y="46.0"/>
      <point x="359.0" y="46.0" type="curve" smooth="yes"/>
      <point x="268.0" y="46.0"/>
      <point x="195.0" y="103.0"/>
      <point x="195.0" y="203.0" type="curve" smooth="yes"/>
    </contour>
    <contour>
      <point x="346.0" y="905.0" type="line"/>
      <point x="322.0" y="891.0"/>
      <point x="271.0" y="830.0"/>
      <point x="231.0" y="759.0" type="curve"/>
      <point x="262.0" y="734.0" type="line"/>
      <point x="357.0" y="810.0" type="line"/>
      <point x="455.0" y="734.0" type="line"/>
      <point x="485.0" y="759.0" type="line"/>
      <point x="444.0" y="832.0"/>
      <point x="391.0" y="893.0"/>
      <point x="370.0" y="905.0" type="curve"/>
    </contour>
  </outline>
</glyph>
<glyph name="ae" format="2">
  <advance width="803"/>
  <unicode hex="00E6"/>
  <outline>
    <contour>
      <point x="235.0" y="472.0" type="curve" smooth="yes"/>
      <point x="129.0" y="472.0"/>
      <point x="54.0" y="415.0"/>
      <point x="54.0" y="397.0" type="curve" smooth="yes"/>
      <point x="54.0" y="384.0"/>
      <point x="69.0" y="370.0"/>
      <point x="79.0" y="370.0" type="curve" smooth="yes"/>
      <point x="92.0" y="370.0"/>
      <point x="115.0" y="412.0"/>
      <point x="216.0" y="412.0" type="curve" smooth="yes"/>
      <point x="306.0" y="412.0"/>
      <point x="353.0" y="345.0"/>
      <point x="353.0" y="235.0" type="curve" smooth="yes"/>
      <point x="353.0" y="107.0"/>
      <point x="303.0" y="37.0"/>
      <point x="218.0" y="37.0" type="curve" smooth="yes"/>
      <point x="159.0" y="37.0"/>
      <point x="130.0" y="78.0"/>
      <point x="130.0" y="122.0" type="curve" smooth="yes"/>
      <point x="130.0" y="177.0"/>
      <point x="169.0" y="232.0"/>
      <point x="247.0" y="232.0" type="curve" smooth="yes"/>
      <point x="291.0" y="232.0"/>
      <point x="305.0" y="220.0"/>
      <point x="316.0" y="220.0" type="curve" smooth="yes"/>
      <point x="323.0" y="220.0"/>
      <point x="330.0" y="229.0"/>
      <point x="330.0" y="240.0" type="curve" smooth="yes"/>
      <point x="330.0" y="272.0"/>
      <point x="247.0" y="284.0"/>
      <point x="219.0" y="284.0" type="curve" smooth="yes"/>
      <point x="103.0" y="284.0"/>
      <point x="41.0" y="201.0"/>
      <point x="41.0" y="123.0" type="curve" smooth="yes"/>
      <point x="41.0" y="53.0"/>
      <point x="93.0" y="-13.0"/>
      <point x="199.0" y="-13.0" type="curve" smooth="yes"/>
      <point x="285.0" y="-13.0"/>
      <point x="349.0" y="29.0"/>
      <point x="380.0" y="98.0" type="curve"/>
      <point x="415.0" y="29.0"/>
      <point x="481.0" y="-13.0"/>
      <point x="566.0" y="-13.0" type="curve" smooth="yes"/>
      <point x="640.0" y="-13.0"/>
      <point x="704.0" y="15.0"/>
      <point x="751.0" y="70.0" type="curve"/>
      <point x="753.0" y="72.0"/>
      <point x="754.0" y="75.0"/>
      <point x="754.0" y="79.0" type="curve" smooth="yes"/>
      <point x="754.0" y="91.0"/>
      <point x="740.0" y="104.0"/>
      <point x="730.0" y="104.0" type="curve" smooth="yes"/>
      <point x="726.0" y="104.0"/>
      <point x="723.0" y="103.0"/>
      <point x="721.0" y="101.0" type="curve" smooth="yes"/>
      <point x="684.0" y="65.0"/>
      <point x="638.0" y="48.0"/>
      <point x="586.0" y="48.0" type="curve" smooth="yes"/>
      <point x="497.0" y="48.0"/>
      <point x="449.0" y="115.0"/>
      <point x="449.0" y="224.0" type="curve" smooth="yes"/>
      <point x="449.0" y="355.0"/>
      <point x="497.0" y="427.0"/>
      <point x="576.0" y="427.0" type="curve" smooth="yes"/>
      <point x="635.0" y="427.0"/>
      <point x="664.0" y="383.0"/>
      <point x="664.0" y="337.0" type="curve" smooth="yes"/>
      <point x="664.0" y="284.0"/>
      <point x="625.0" y="232.0"/>
      <point x="546.0" y="232.0" type="curve" smooth="yes"/>
      <point x="508.0" y="232.0"/>
      <point x="496.0" y="244.0"/>
      <point x="486.0" y="244.0" type="curve" smooth="yes"/>
      <point x="479.0" y="244.0"/>
      <point x="471.0" y="234.0"/>
      <point x="471.0" y="223.0" type="curve" smooth="yes"/>
      <point x="471.0" y="190.0"/>
      <point x="548.0" y="180.0"/>
      <point x="575.0" y="180.0" type="curve" smooth="yes"/>
      <point x="691.0" y="180.0"/>
      <point x="752.0" y="260.0"/>
      <point x="752.0" y="336.0" type="curve" smooth="yes"/>
      <point x="752.0" y="406.0"/>
      <point x="700.0" y="472.0"/>
      <point x="594.0" y="472.0" type="curve" smooth="yes"/>
      <point x="512.0" y="472.0"/>
      <point x="446.0" y="441.0"/>
      <point x="405.0" y="389.0" type="curve"/>
      <point x="368.0" y="441.0"/>
      <point x="309.0" y="472.0"/>
    </contour>
  </outline>
</glyph>
<glyph name="iacute" format="2">
  <advance width="289"/>
  <unicode hex="00ED"/>
  <outline>
    <contour>
      <point x="184.0" y="444.0" type="line" smooth="yes"/>
      <point x="184.0" y="461.0"/>
      <point x="172.0" y="472.0"/>
      <point x="154.0" y="472.0" type="curve" smooth="yes"/>
      <point x="120.0" y="472.0"/>
      <point x="69.0" y="450.0"/>
      <point x="33.0" y="417.0" type="curve"/>
      <point x="40.0" y="394.0" type="line"/>
      <point x="82.0" y="394.0" type="line" smooth="yes"/>
      <point x="95.0" y="394.0"/>
      <point x="100.0" y="388.0"/>
      <point x="100.0" y="372.0" type="curve" smooth="yes"/>
      <point x="100.0" y="85.0" type="line" smooth="yes"/>
      <point x="100.0" y="15.0"/>
      <point x="121.0" y="-13.0"/>
      <point x="172.0" y="-13.0" type="curve" smooth="yes"/>
      <point x="202.0" y="-13.0"/>
      <point x="243.0" y="10.0"/>
      <point x="276.0" y="46.0" type="curve"/>
      <point x="259.0" y="70.0" type="line"/>
      <point x="242.0" y="56.0"/>
      <point x="226.0" y="50.0"/>
      <point x="212.0" y="50.0" type="curve" smooth="yes"/>
      <point x="193.0" y="50.0"/>
      <point x="184.0" y="61.0"/>
      <point x="184.0" y="82.0" type="curve" smooth="yes"/>
    </contour>
    <contour>
      <point x="53.0" y="560.0" type="line"/>
      <point x="80.0" y="529.0" type="line"/>
      <point x="185.0" y="580.0" type="line" smooth="yes"/>
      <point x="222.0" y="598.0"/>
      <point x="236.0" y="620.0"/>
      <point x="236.0" y="646.0" type="curve" smooth="yes"/>
      <point x="236.0" y="674.0"/>
      <point x="221.0" y="693.0"/>
      <point x="197.0" y="705.0" type="curve"/>
    </contour>
  </outline>
</glyph>
<glyph name="oacute" format="2">
  <advance width="536"/>
  <unicode hex="00F3"/>
  <outline>
    <contour>
      <point x="397.0" y="228.0" type="curve" smooth="yes"/>
      <point x="397.0" y="113.0"/>
      <point x="343.0" y="37.0"/>
      <point x="266.0" y="37.0" type="curve" smooth="yes"/>
      <point x="187.0" y="37.0"/>
      <point x="138.0" y="112.0"/>
      <point x="138.0" y="229.0" type="curve" smooth="yes"/>
      <point x="138.0" y="346.0"/>
      <point x="191.0" y="424.0"/>
      <point x="271.0" y="424.0" type="curve" smooth="yes"/>
      <point x="369.0" y="424.0"/>
      <point x="397.0" y="304.0"/>
    </contour>
    <contour>
      <point x="41.0" y="230.0" type="curve" smooth="yes"/>
      <point x="41.0" y="82.0"/>
      <point x="129.0" y="-13.0"/>
      <point x="268.0" y="-13.0" type="curve" smooth="yes"/>
      <point x="406.0" y="-13.0"/>
      <point x="495.0" y="82.0"/>
      <point x="495.0" y="230.0" type="curve" smooth="yes"/>
      <point x="495.0" y="379.0"/>
      <point x="406.0" y="472.0"/>
      <point x="268.0" y="472.0" type="curve" smooth="yes"/>
      <point x="129.0" y="472.0"/>
      <point x="41.0" y="379.0"/>
    </contour>
    <contour>
      <point x="196.0" y="560.0" type="line"/>
      <point x="222.0" y="529.0" type="line"/>
      <point x="328.0" y="580.0" type="line" smooth="yes"/>
      <point x="365.0" y="598.0"/>
      <point x="379.0" y="620.0"/>
      <point x="379.0" y="646.0" type="curve" smooth="yes"/>
      <point x="379.0" y="674.0"/>
      <point x="363.0" y="693.0"/>
      <point x="339.0" y="705.0" type="curve"/>
    </contour>
  </outline>
</glyph>
<glyph name="odieresis" format="2">
  <advance width="536"/>
  <unicode hex="00F6"/>
  <outline>
    <contour>
      <point x="397.0" y="228.0" type="curve" smooth="yes"/>
      <point x="397.0" y="113.0"/>
      <point x="343.0" y="37.0"/>
      <point x="266.0" y="37.0" type="curve" smooth="yes"/>
      <point x="187.0" y="37.0"/>
      <point x="138.0" y="112.0"/>
      <point x="138.0" y="229.0" type="curve" smooth="yes"/>
      <point x="138.0" y="346.0"/>
      <point x="191.0" y="424.0"/>
      <point x="271.0" y="424.0" type="curve" smooth="yes"/>
      <point x="369.0" y="424.0"/>
      <point x="397.0" y="304.0"/>
    </contour>
    <contour>
      <point x="41.0" y="230.0" type="curve" smooth="yes"/>
      <point x="41.0" y="82.0"/>
      <point x="129.0" y="-13.0"/>
      <point x="268.0" y="-13.0" type="curve" smooth="yes"/>
      <point x="406.0" y="-13.0"/>
      <point x="495.0" y="82.0"/>
      <point x="495.0" y="230.0" type="curve" smooth="yes"/>
      <point x="495.0" y="379.0"/>
      <point x="406.0" y="472.0"/>
      <point x="268.0" y="472.0" type="curve" smooth="yes"/>
      <point x="129.0" y="472.0"/>
      <point x="41.0" y="379.0"/>
    </contour>
    <contour>
      <point x="126.0" y="610.0" type="curve" smooth="yes"/>
      <point x="126.0" y="587.0"/>
      <point x="161.0" y="550.0"/>
      <point x="182.0" y="550.0" type="curve" smooth="yes"/>
      <point x="205.0" y="550.0"/>
      <point x="242.0" y="587.0"/>
      <point x="242.0" y="610.0" type="curve" smooth="yes"/>
      <point x="242.0" y="634.0"/>
      <point x="205.0" y="671.0"/>
      <point x="182.0" y="671.0" type="curve" smooth="yes"/>
      <point x="160.0" y="671.0"/>
      <point x="126.0" y="634.0"/>
    </contour>
    <contour>
      <point x="301.0" y="610.0" type="curve" smooth="yes"/>
      <point x="301.0" y="587.0"/>
      <point x="336.0" y="550.0"/>
      <point x="357.0" y="550.0" type="curve" smooth="yes"/>
      <point x="380.0" y="550.0"/>
      <point x="417.0" y="587.0"/>
      <point x="417.0" y="610.0" type="curve" smooth="yes"/>
      <point x="417.0" y="634.0"/>
      <point x="380.0" y="671.0"/>
      <point x="357.0" y="671.0" type="curve" smooth="yes"/>
      <point x="335.0" y="671.0"/>
      <point x="301.0" y="634.0"/>
    </contour>
  </outline>
</glyph>
<glyph name="ucircumflex" format="2">
  <advance width="570"/>
  <unicode hex="00FB"/>
  <outline>
    <contour>
      <point x="479.0" y="472.0" type="line"/>
      <point x="365.0" y="461.0" type="line"/>
      <point x="353.0" y="447.0" type="line"/>
      <point x="365.0" y="433.0" type="line"/>
      <point x="393.0" y="384.0"/>
      <point x="401.0" y="342.0"/>
      <point x="401.0" y="252.0" type="curve" smooth="yes"/>
      <point x="401.0" y="125.0"/>
      <point x="352.0" y="49.0"/>
      <point x="269.0" y="49.0" type="curve" smooth="yes"/>
      <point x="210.0" y="49.0"/>
      <point x="180.0" y="89.0"/>
      <point x="180.0" y="163.0" type="curve" smooth="yes"/>
      <point x="180.0" y="444.0" type="line" smooth="yes"/>
      <point x="180.0" y="461.0"/>
      <point x="168.0" y="472.0"/>
      <point x="150.0" y="472.0" type="curve" smooth="yes"/>
      <point x="112.0" y="472.0"/>
      <point x="60.0" y="450.0"/>
      <point x="29.0" y="417.0" type="curve"/>
      <point x="36.0" y="394.0" type="line"/>
      <point x="78.0" y="394.0" type="line" smooth="yes"/>
      <point x="90.0" y="394.0"/>
      <point x="96.0" y="388.0"/>
      <point x="96.0" y="372.0" type="curve" smooth="yes"/>
      <point x="96.0" y="140.0" type="line" smooth="yes"/>
      <point x="96.0" y="43.0"/>
      <point x="148.0" y="-13.0"/>
      <point x="237.0" y="-13.0" type="curve" smooth="yes"/>
      <point x="306.0" y="-13.0"/>
      <point x="366.0" y="22.0"/>
      <point x="395.0" y="77.0" type="curve"/>
      <point x="395.0" y="15.0"/>
      <point x="416.0" y="-13.0"/>
      <point x="465.0" y="-13.0" type="curve" smooth="yes"/>
      <point x="498.0" y="-13.0"/>
      <point x="539.0" y="10.0"/>
      <point x="568.0" y="46.0" type="curve"/>
      <point x="550.0" y="70.0" type="line"/>
      <point x="535.0" y="58.0"/>
      <point x="518.0" y="53.0"/>
      <point x="504.0" y="53.0" type="curve" smooth="yes"/>
      <point x="487.0" y="53.0"/>
      <point x="479.0" y="62.0"/>
      <point x="479.0" y="82.0" type="curve" smooth="yes"/>
    </contour>
    <contour>
      <point x="272.0" y="700.0" type="line"/>
      <point x="248.0" y="686.0"/>
      <point x="197.0" y="624.0"/>
      <point x="157.0" y="553.0" type="curve"/>
      <point x="188.0" y="529.0" type="line"/>
      <point x="284.0" y="604.0" type="line"/>
      <point x="382.0" y="529.0" type="line"/>
      <point x="412.0" y="553.0" type="line"/>
      <point x="371.0" y="626.0"/>
      <point x="318.0" y="688.0"/>
      <point x="297.0" y="700.0" type="curve"/>
    </contour>
  </outline>
</glyph>
<glyph name="Eogonek" format="2">
  <advance width="564"/>
  <unicode hex="0118"/>
  <outline>
    <contour>
      <point x="288.0" y="312.0" type="line" smooth="yes"/>
      <point x="354.0" y="312.0"/>
      <point x="377.0" y="304.0"/>
      <point x="390.0" y="260.0" type="curve" smooth="yes"/>
      <point x="396.0" y="237.0" type="line"/>
      <point x="427.0" y="248.0" type="line"/>
      <point x="427.0" y="407.0" type="line"/>
      <point x="409.0" y="417.0" type="line"/>
      <point x="401.0" y="407.0" type="line"/>
      <point x="378.0" y="374.0"/>
      <point x="357.0" y="365.0"/>
      <point x="328.0" y="365.0" type="curve" smooth="yes"/>
      <point x="210.0" y="365.0" type="line"/>
      <point x="210.0" y="543.0" type="line" smooth="yes"/>
      <point x="210.0" y="600.0"/>
      <point x="221.0" y="614.0"/>
      <point x="269.0" y="614.0" type="curve" smooth="yes"/>
      <point x="360.0" y="614.0" type="line" smooth="yes"/>
      <point x="425.0" y="614.0"/>
      <point x="443.0" y="597.0"/>
      <point x="460.0" y="531.0" type="curve" smooth="yes"/>
      <point x="465.0" y="509.0" type="line"/>
      <point x="497.0" y="520.0" type="line"/>
      <point x="497.0" y="685.0" type="line"/>
      <point x="483.0" y="697.0" type="line"/>
      <point x="465.0" y="685.0" type="line"/>
      <point x="447.0" y="671.0"/>
      <point x="414.0" y="666.0"/>
      <point x="360.0" y="666.0" type="curve" smooth="yes"/>
      <point x="77.0" y="666.0" type="line"/>
      <point x="64.0" y="651.0" type="line"/>
      <point x="77.0" y="634.0" type="line" smooth="yes"/>
      <point x="107.0" y="594.0"/>
      <point x="118.0" y="554.0"/>
      <point x="118.0" y="480.0" type="curve" smooth="yes"/>
      <point x="118.0" y="117.0" type="line" smooth="yes"/>
      <point x="118.0" y="62.0"/>
      <point x="106.0" y="48.0"/>
      <point x="61.0" y="35.0" type="curve" smooth="yes"/>
      <point x="41.0" y="30.0" type="line"/>
      <point x="52.0" y="0.0" type="line"/>
      <point x="383.0" y="0.0" type="line"/>
      <point x="304.0" y="-57.0"/>
      <point x="266.0" y="-102.0"/>
      <point x="266.0" y="-161.0" type="curve" smooth="yes"/>
      <point x="266.0" y="-223.0"/>
      <point x="310.0" y="-259.0"/>
      <point x="369.0" y="-259.0" type="curve" smooth="yes"/>
      <point x="430.0" y="-259.0"/>
      <point x="482.0" y="-228.0"/>
      <point x="533.0" y="-164.0" type="curve"/>
      <point x="502.0" y="-136.0" type="line"/>
      <point x="470.0" y="-174.0"/>
      <point x="428.0" y="-195.0"/>
      <point x="395.0" y="-195.0" type="curve" smooth="yes"/>
      <point x="363.0" y="-195.0"/>
      <point x="342.0" y="-177.0"/>
      <point x="342.0" y="-140.0" type="curve" smooth="yes"/>
      <point x="342.0" y="-104.0"/>
      <point x="371.0" y="-55.0"/>
      <point x="453.0" y="0.0" type="curve"/>
      <point x="466.0" y="-1.0"/>
      <point x="475.0" y="-6.0"/>
      <point x="482.0" y="-13.0" type="curve"/>
      <point x="489.0" y="-23.0" type="line"/>
      <point x="507.0" y="-13.0" type="line"/>
      <point x="507.0" y="146.0" type="line"/>
      <point x="476.0" y="156.0" type="line"/>
      <point x="470.0" y="135.0" type="line" smooth="yes"/>
      <point x="453.0" y="70.0"/>
      <point x="435.0" y="53.0"/>
      <point x="369.0" y="53.0" type="curve" smooth="yes"/>
      <point x="269.0" y="53.0" type="line" smooth="yes"/>
      <point x="221.0" y="53.0"/>
      <point x="210.0" y="64.0"/>
      <point x="210.0" y="123.0" type="curve" smooth="yes"/>
      <point x="210.0" y="312.0" type="line"/>
    </contour>
  </outline>
</glyph>
<glyph name="uni0122" format="2">
  <advance width="640"/>
  <unicode hex="0122"/>
  <outline>
    <contour>
      <point x="484.0" y="-11.0" type="line" smooth="yes"/>
      <point x="484.0" y="-156.0"/>
      <point x="441.0" y="-210.0"/>
      <point x="362.0" y="-210.0" type="curve" smooth="yes"/>
      <point x="302.0" y="-210.0"/>
      <point x="267.0" y="-171.0"/>
      <point x="267.0" y="-123.0" type="curve" smooth="yes"/>
      <point x="267.0" y="-55.0"/>
      <point x="313.0" y="-35.0"/>
      <point x="313.0" y="-23.0" type="curve" smooth="yes"/>
      <point x="313.0" y="-18.0"/>
      <point x="309.0" y="-13.0"/>
      <point x="296.0" y="-13.0" type="curve" smooth="yes"/>
      <point x="218.0" y="-13.0"/>
      <point x="178.0" y="-67.0"/>
      <point x="178.0" y="-126.0" type="curve" smooth="yes"/>
      <point x="178.0" y="-191.0"/>
      <point x="232.0" y="-259.0"/>
      <point x="347.0" y="-259.0" type="curve" smooth="yes"/>
      <point x="481.0" y="-259.0"/>
      <point x="566.0" y="-183.0"/>
      <point x="566.0" y="15.0" type="curve" smooth="yes"/>
      <point x="566.0" y="122.0" type="line" smooth="yes"/>
      <point x="566.0" y="196.0"/>
      <point x="578.0" y="237.0"/>
      <point x="609.0" y="278.0" type="curve" smooth="yes"/>
      <point x="621.0" y="294.0" type="line"/>
      <point x="609.0" y="310.0" type="line"/>
      <point x="414.0" y="310.0" type="line"/>
      <point x="403.0" y="278.0" type="line"/>
      <point x="423.0" y="271.0" type="line"/>
      <point x="470.0" y="258.0"/>
      <point x="484.0" y="242.0"/>
      <point x="484.0" y="185.0" type="curve" smooth="yes"/>
      <point x="484.0" y="138.0" type="line"/>
      <point x="444.0" y="98.0"/>
      <point x="393.0" y="76.0"/>
      <point x="328.0" y="76.0" type="curve" smooth="yes"/>
      <point x="207.0" y="76.0"/>
      <point x="133.0" y="200.0"/>
      <point x="133.0" y="353.0" type="curve" smooth="yes"/>
      <point x="133.0" y="471.0"/>
      <point x="184.0" y="628.0"/>
      <point x="339.0" y="628.0" type="curve" smooth="yes"/>
      <point x="419.0" y="628.0"/>
      <point x="471.0" y="584.0"/>
      <point x="471.0" y="520.0" type="curve" smooth="yes"/>
      <point x="471.0" y="468.0"/>
      <point x="445.0" y="446.0"/>
      <point x="445.0" y="436.0" type="curve" smooth="yes"/>
      <point x="445.0" y="426.0"/>
      <point x="445.0" y="424.0"/>
      <point x="464.0" y="424.0" type="curve" smooth="yes"/>
      <point x="520.0" y="424.0"/>
      <point x="563.0" y="469.0"/>
      <point x="563.0" y="534.0" type="curve" smooth="yes"/>
      <point x="563.0" y="620.0"/>
      <point x="470.0" y="679.0"/>
      <point x="339.0" y="679.0" type="curve" smooth="yes"/>
      <point x="132.0" y="679.0"/>
      <point x="33.0" y="523.0"/>
      <point x="33.0" y="349.0" type="curve" smooth="yes"/>
      <point x="33.0" y="165.0"/>
      <point x="126.0" y="15.0"/>
      <point x="320.0" y="15.0" type="curve" smooth="yes"/>
      <point x="384.0" y="15.0"/>
      <point x="439.0" y="40.0"/>
      <point x="484.0" y="77.0" type="curve"/>
    </contour>
    <contour>
      <point x="402.0" y="760.0" type="line"/>
      <point x="398.0" y="782.0" type="line"/>
      <point x="380.0" y="793.0" type="line"/>
      <point x="366.0" y="804.0"/>
      <point x="360.0" y="814.0"/>
      <point x="360.0" y="828.0" type="curve" smooth="yes"/>
      <point x="360.0" y="838.0"/>
      <point x="363.0" y="850.0"/>
      <point x="370.0" y="866.0" type="curve"/>
      <point x="413.0" y="949.0" type="line"/>
      <point x="385.0" y="967.0" type="line"/>
      <point x="349.0" y="928.0" type="line" smooth="yes"/>
      <point x="306.0" y="881.0"/>
      <point x="273.0" y="842.0"/>
      <point x="273.0" y="804.0" type="curve" smooth="yes"/>
      <point x="273.0" y="758.0"/>
      <point x="300.0" y="743.0"/>
      <point x="334.0" y="743.0" type="curve" smooth="yes"/>
      <point x="350.0" y="743.0"/>
      <point x="369.0" y="747.0"/>
      <point x="385.0" y="753.0" type="curve" smooth="yes"/>
    </contour>
  </outline>
</glyph>
<glyph name="Itilde" format="2">
  <advance width="327"/>
  <unicode hex="0128"/>
  <outline>
    <contour>
      <point x="276.0" y="0.0" type="line"/>
      <point x="285.0" y="30.0" type="line"/>
      <point x="266.0" y="35.0" type="line" smooth="yes"/>
      <point x="222.0" y="48.0"/>
      <point x="210.0" y="62.0"/>
      <point x="210.0" y="117.0" type="curve" smooth="yes"/>
      <point x="210.0" y="480.0" type="line" smooth="yes"/>
      <point x="210.0" y="554.0"/>
      <point x="221.0" y="594.0"/>
      <point x="252.0" y="634.0" type="curve" smooth="yes"/>
      <point x="264.0" y="651.0" type="line"/>
      <point x="252.0" y="666.0" type="line"/>
      <point x="48.0" y="666.0" type="line"/>
      <point x="37.0" y="634.0" type="line"/>
      <point x="59.0" y="629.0" type="line"/>
      <point x="105.0" y="616.0"/>
      <point x="118.0" y="600.0"/>
      <point x="118.0" y="543.0" type="curve" smooth="yes"/>
      <point x="118.0" y="123.0" type="line" smooth="yes"/>
      <point x="118.0" y="64.0"/>
      <point x="105.0" y="51.0"/>
      <point x="59.0" y="37.0" type="curve"/>
      <point x="37.0" y="32.0" type="line"/>
      <point x="48.0" y="0.0" type="line"/>
    </contour>
    <contour>
      <point x="282.0" y="876.0" type="line"/>
      <point x="256.0" y="850.0"/>
      <point x="235.0" y="840.0"/>
      <point x="220.0" y="840.0" type="curve" smooth="yes"/>
      <point x="189.0" y="840.0"/>
      <point x="172.0" y="871.0"/>
      <point x="133.0" y="871.0" type="curve" smooth="yes"/>
      <point x="96.0" y="871.0"/>
      <point x="52.0" y="836.0"/>
      <point x="13.0" y="782.0" type="curve"/>
      <point x="46.0" y="753.0" type="line"/>
      <point x="72.0" y="777.0"/>
      <point x="93.0" y="789.0"/>
      <point x="109.0" y="789.0" type="curve" smooth="yes"/>
      <point x="138.0" y="789.0"/>
      <point x="155.0" y="757.0"/>
      <point x="196.0" y="757.0" type="curve" smooth="yes"/>
      <point x="231.0" y="757.0"/>
      <point x="276.0" y="792.0"/>
      <point x="314.0" y="847.0" type="curve"/>
    </contour>
  </outline>
</glyph>
<glyph name="itilde" format="2">
  <advance width="269"/>
  <unicode hex="0129"/>
  <outline>
    <contour>
      <point x="184.0" y="444.0" type="line" smooth="yes"/>
      <point x="184.0" y="461.0"/>
      <point x="172.0" y="472.0"/>
      <point x="154.0" y="472.0" type="curve" smooth="yes"/>
      <point x="120.0" y="472.0"/>
      <point x="69.0" y="450.0"/>
      <point x="33.0" y="417.0" type="curve"/>
      <point x="40.0" y="394.0" type="line"/>
      <point x="82.0" y="394.0" type="line" smooth="yes"/>
      <point x="95.0" y="394.0"/>
      <point x="100.0" y="388.0"/>
      <point x="100.0" y="372.0" type="curve" smooth="yes"/>
      <point x="100.0" y="85.0" type="line" smooth="yes"/>
      <point x="100.0" y="15.0"/>
      <point x="121.0" y="-13.0"/>
      <point x="172.0" y="-13.0" type="curve" smooth="yes"/>
      <point x="202.0" y="-13.0"/>
      <point x="243.0" y="10.0"/>
      <point x="276.0" y="46.0" type="curve"/>
      <point x="259.0" y="70.0" type="line"/>
      <point x="242.0" y="56.0"/>
      <point x="226.0" y="50.0"/>
      <point x="212.0" y="50.0" type="curve" smooth="yes"/>
      <point x="193.0" y="50.0"/>
      <point x="184.0" y="61.0"/>
      <point x="184.0" y="82.0" type="curve" smooth="yes"/>
    </contour>
    <contour>
      <point x="253.0" y="671.0" type="line"/>
      <point x="225.0" y="644.0"/>
      <point x="205.0" y="634.0"/>
      <point x="189.0" y="634.0" type="curve" smooth="yes"/>
      <point x="160.0" y="634.0"/>
      <point x="141.0" y="667.0"/>
      <point x="102.0" y="667.0" type="curve" smooth="yes"/>
      <point x="67.0" y="667.0"/>
      <point x="23.0" y="632.0"/>
      <point x="-17.0" y="578.0" type="curve"/>
      <point x="16.0" y="548.0" type="line"/>
      <point x="40.0" y="574.0"/>
      <point x="63.0" y="584.0"/>
      <point x="78.0" y="584.0" type="curve" smooth="yes"/>
      <point x="108.0" y="584.0"/>
      <point x="123.0" y="552.0"/>
      <point x="166.0" y="552.0" type="curve" smooth="yes"/>
      <point x="201.0" y="552.0"/>
      <point x="246.0" y="588.0"/>
      <point x="284.0" y="642.0" type="curve"/>
    </contour>
  </outline>
</glyph>
<glyph name="Imacron" format="2">
  <advance width="327"/>
  <unicode hex="012A"/>
  <outline>
    <contour>
      <point x="276.0" y="0.0" type="line"/>
      <point x="285.0" y="30.0" type="line"/>
      <point x="266.0" y="35.0" type="line" smooth="yes"/>
      <point x="222.0" y="48.0"/>
      <point x="210.0" y="62.0"/>
      <point x="210.0" y="117.0" type="curve" smooth="yes"/>
      <point x="210.0" y="480.0" type="line" smooth="yes"/>
      <point x="210.0" y="554.0"/>
      <point x="221.0" y="594.0"/>
      <point x="252.0" y="634.0" type="curve" smooth="yes"/>
      <point x="264.0" y="651.0" type="line"/>
      <point x="252.0" y="666.0" type="line"/>
      <point x="48.0" y="666.0" type="line"/>
      <point x="37.0" y="634.0" type="line"/>
      <point x="59.0" y="629.0" type="line"/>
      <point x="105.0" y="616.0"/>
      <point x="118.0" y="600.0"/>
      <point x="118.0" y="543.0" type="curve" smooth="yes"/>
      <point x="118.0" y="123.0" type="line" smooth="yes"/>
      <point x="118.0" y="64.0"/>
      <point x="105.0" y="51.0"/>
      <point x="59.0" y="37.0" type="curve"/>
      <point x="37.0" y="32.0" type="line"/>
      <point x="48.0" y="0.0" type="line"/>
    </contour>
    <contour>
      <point x="277.0" y="778.0" type="line"/>
      <point x="296.0" y="793.0"/>
      <point x="301.0" y="826.0"/>
      <point x="301.0" y="852.0" type="curve"/>
      <point x="51.0" y="852.0" type="line"/>
      <point x="33.0" y="835.0"/>
      <point x="27.0" y="804.0"/>
      <point x="27.0" y="778.0" type="curve"/>
    </contour>
  </outline>
</glyph>
<glyph name="dotlessi" format="2">
  <advance width="289"/>
  <unicode hex="0131"/>
  <outline>
    <contour>
      <point x="184.0" y="444.0" type="line" smooth="yes"/>
      <point x="184.0" y="461.0"/>
      <point x="172.0" y="472.0"/>
      <point x="154.0" y="472.0" type="curve" smooth="yes"/>
      <point x="120.0" y="472.0"/>
      <point x="69.0" y="450.0"/>
      <point x="33.0" y="417.0" type="curve"/>
      <point x="40.0" y="394.0" type="line"/>
      <point x="82.0" y="394.0" type="line" smooth="yes"/>
      <point x="95.0" y="394.0"/>
      <point x="100.0" y="388.0"/>
      <point x="100.0" y="372.0" type="curve" smooth="yes"/>
      <point x="100.0" y="85.0" type="line" smooth="yes"/>
      <point x="100.0" y="15.0"/>
      <point x="121.0" y="-13.0"/>
      <point x="172.0" y="-13.0" type="curve" smooth="yes"/>
      <point x="202.0" y="-13.0"/>
      <point x="243.0" y="10.0"/>
      <point x="276.0" y="46.0" type="curve"/>
      <point x="259.0" y="70.0" type="line"/>
      <point x="242.0" y="56.0"/>
      <point x="226.0" y="50.0"/>
      <point x="212.0" y="50.0" type="curve" smooth="yes"/>
      <point x="193.0" y="50.0"/>
      <point x="184.0" y="61.0"/>
      <point x="184.0" y="82.0" type="curve" smooth="yes"/>
    </contour>
  </outline>
</glyph>
<glyph name="lslash" format="2">
  <advance width="279"/>
  <unicode hex="0142"/>
  <outline>
    <contour>
      <point x="254.0" y="356.0" type="line" smooth="yes"/>
      <point x="273.0" y="365.0"/>
      <point x="278.0" y="387.0"/>
      <point x="278.0" y="440.0" type="curve"/>
      <point x="174.0" y="388.0" type="line"/>
      <point x="176.0" y="696.0" type="line" smooth="yes"/>
      <point x="176.0" y="714.0"/>
      <point x="164.0" y="726.0"/>
      <point x="146.0" y="726.0" type="curve" smooth="yes"/>
      <point x="110.0" y="726.0"/>
      <point x="58.0" y="702.0"/>
      <point x="23.0" y="670.0" type="curve"/>
      <point x="32.0" y="646.0" type="line"/>
      <point x="72.0" y="646.0" type="line" smooth="yes"/>
      <point x="85.0" y="646.0"/>
      <point x="90.0" y="641.0"/>
      <point x="90.0" y="626.0" type="curve" smooth="yes"/>
      <point x="90.0" y="346.0" type="line"/>
      <point x="17.0" y="310.0" type="line" smooth="yes"/>
      <point x="-1.0" y="301.0"/>
      <point x="-5.0" y="279.0"/>
      <point x="-5.0" y="227.0" type="curve"/>
      <point x="90.0" y="274.0" type="line"/>
      <point x="90.0" y="85.0" type="line" smooth="yes"/>
      <point x="90.0" y="15.0"/>
      <point x="111.0" y="-13.0"/>
      <point x="163.0" y="-13.0" type="curve" smooth="yes"/>
      <point x="194.0" y="-13.0"/>
      <point x="234.0" y="10.0"/>
      <point x="266.0" y="46.0" type="curve"/>
      <point x="248.0" y="70.0" type="line"/>
      <point x="233.0" y="56.0"/>
      <point x="216.0" y="50.0"/>
      <point x="202.0" y="50.0" type="curve" smooth="yes"/>
      <point x="184.0" y="50.0"/>
      <point x="174.0" y="61.0"/>
      <point x="174.0" y="82.0" type="curve" smooth="yes"/>
      <point x="174.0" y="316.0" type="line"/>
    </contour>
  </outline>
</glyph>
<glyph name="ncaron" format="2">
  <advance width="596"/>
  <unicode hex="0148"/>
  <outline>
    <contour>
      <point x="189.0" y="148.0" type="curve" smooth="yes"/>
      <point x="189.0" y="299.0"/>
      <point x="243.0" y="401.0"/>
      <point x="323.0" y="401.0" type="curve" smooth="yes"/>
      <point x="376.0" y="401.0"/>
      <point x="403.0" y="369.0"/>
      <point x="403.0" y="306.0" type="curve" smooth="yes"/>
      <point x="403.0" y="85.0" type="line" smooth="yes"/>
      <point x="403.0" y="15.0"/>
      <point x="423.0" y="-13.0"/>
      <point x="474.0" y="-13.0" type="curve" smooth="yes"/>
      <point x="506.0" y="-13.0"/>
      <point x="547.0" y="10.0"/>
      <point x="579.0" y="46.0" type="curve"/>
      <point x="561.0" y="70.0" type="line"/>
      <point x="545.0" y="56.0"/>
      <point x="529.0" y="50.0"/>
      <point x="515.0" y="50.0" type="curve" smooth="yes"/>
      <point x="497.0" y="50.0"/>
      <point x="487.0" y="61.0"/>
      <point x="487.0" y="82.0" type="curve" smooth="yes"/>
      <point x="487.0" y="306.0" type="line" smooth="yes"/>
      <point x="487.0" y="421.0"/>
      <point x="449.0" y="472.0"/>
      <point x="363.0" y="472.0" type="curve" smooth="yes"/>
      <point x="292.0" y="472.0"/>
      <point x="221.0" y="415.0"/>
      <point x="189.0" y="334.0" type="curve"/>
      <point x="189.0" y="435.0" type="line" smooth="yes"/>
      <point x="189.0" y="452.0"/>
      <point x="178.0" y="464.0"/>
      <point x="160.0" y="464.0" type="curve" smooth="yes"/>
      <point x="125.0" y="464.0"/>
      <point x="73.0" y="441.0"/>
      <point x="37.0" y="409.0" type="curve"/>
      <point x="46.0" y="384.0" type="line"/>
      <point x="86.0" y="384.0" type="line" smooth="yes"/>
      <point x="99.0" y="384.0"/>
      <point x="104.0" y="378.0"/>
      <point x="104.0" y="364.0" type="curve" smooth="yes"/>
      <point x="104.0" y="103.0" type="line" smooth="yes"/>
      <point x="104.0" y="56.0"/>
      <point x="97.0" y="40.0"/>
      <point x="65.0" y="34.0" type="curve"/>
      <point x="47.0" y="29.0" type="line"/>
      <point x="56.0" y="0.0" type="line"/>
      <point x="219.0" y="0.0" type="line"/>
      <point x="230.0" y="14.0" type="line"/>
      <point x="219.0" y="29.0" type="line" smooth="yes"/>
      <point x="197.0" y="60.0"/>
      <point x="189.0" y="91.0"/>
    </contour>
    <contour>
      <point x="312.0" y="536.0" type="line"/>
      <point x="333.0" y="548.0"/>
      <point x="386.0" y="610.0"/>
      <point x="427.0" y="683.0" type="curve"/>
      <point x="397.0" y="710.0" type="line"/>
      <point x="299.0" y="631.0" type="line"/>
      <point x="203.0" y="710.0" type="line"/>
      <point x="172.0" y="683.0" type="line"/>
      <point x="212.0" y="612.0"/>
      <point x="263.0" y="550.0"/>
      <point x="287.0" y="536.0" type="curve"/>
    </contour>
  </outline>
</glyph>
<glyph name="Eng" format="2">
  <advance width="722"/>
  <unicode hex="014A"/>
  <outline>
    <contour>
      <point x="611.0" y="480.0" type="line" smooth="yes"/>
      <point x="611.0" y="554.0"/>
      <point x="622.0" y="594.0"/>
      <point x="652.0" y="634.0" type="curve" smooth="yes"/>
      <point x="666.0" y="651.0" type="line"/>
      <point x="652.0" y="666.0" type="line"/>
      <point x="478.0" y="666.0" type="line"/>
      <point x="465.0" y="634.0" type="line"/>
      <point x="487.0" y="629.0" type="line" smooth="yes"/>
      <point x="534.0" y="616.0"/>
      <point x="547.0" y="600.0"/>
      <point x="547.0" y="543.0" type="curve" smooth="yes"/>
      <point x="547.0" y="140.0" type="line"/>
      <point x="192.0" y="666.0" type="line"/>
      <point x="43.0" y="666.0" type="line"/>
      <point x="32.0" y="634.0" type="line"/>
      <point x="53.0" y="629.0" type="line" smooth="yes"/>
      <point x="99.0" y="616.0"/>
      <point x="112.0" y="600.0"/>
      <point x="112.0" y="543.0" type="curve" smooth="yes"/>
      <point x="112.0" y="123.0" type="line" smooth="yes"/>
      <point x="112.0" y="64.0"/>
      <point x="99.0" y="51.0"/>
      <point x="53.0" y="37.0" type="curve"/>
      <point x="32.0" y="32.0" type="line"/>
      <point x="43.0" y="0.0" type="line"/>
      <point x="219.0" y="0.0" type="line"/>
      <point x="231.0" y="15.0" type="line"/>
      <point x="219.0" y="32.0" type="line" smooth="yes"/>
      <point x="188.0" y="72.0"/>
      <point x="178.0" y="110.0"/>
      <point x="178.0" y="186.0" type="curve" smooth="yes"/>
      <point x="178.0" y="525.0" type="line"/>
      <point x="528.0" y="5.0" type="line"/>
      <point x="528.0" y="-121.0" type="line" smooth="yes"/>
      <point x="528.0" y="-188.0"/>
      <point x="497.0" y="-218.0"/>
      <point x="462.0" y="-218.0" type="curve" smooth="yes"/>
      <point x="434.0" y="-218.0"/>
      <point x="411.0" y="-195.0"/>
      <point x="411.0" y="-156.0" type="curve" smooth="yes"/>
      <point x="411.0" y="-112.0"/>
      <point x="437.0" y="-97.0"/>
      <point x="437.0" y="-90.0" type="curve" smooth="yes"/>
      <point x="437.0" y="-83.0"/>
      <point x="432.0" y="-80.0"/>
      <point x="419.0" y="-80.0" type="curve" smooth="yes"/>
      <point x="366.0" y="-80.0"/>
      <point x="328.0" y="-116.0"/>
      <point x="328.0" y="-164.0" type="curve" smooth="yes"/>
      <point x="328.0" y="-223.0"/>
      <point x="378.0" y="-259.0"/>
      <point x="444.0" y="-259.0" type="curve" smooth="yes"/>
      <point x="558.0" y="-259.0"/>
      <point x="611.0" y="-173.0"/>
      <point x="611.0" y="-49.0" type="curve" smooth="yes"/>
    </contour>
  </outline>
</glyph>
<glyph name="omacron" format="2">
  <advance width="536"/>
  <unicode hex="014D"/>
  <outline>
    <contour>
      <point x="397.0" y="228.0" type="curve" smooth="yes"/>
      <point x="397.0" y="113.0"/>
      <point x="343.0" y="37.0"/>
      <point x="266.0" y="37.0" type="curve" smooth="yes"/>
      <point x="187.0" y="37.0"/>
      <point x="138.0" y="112.0"/>
      <point x="138.0" y="229.0" type="curve" smooth="yes"/>
      <point x="138.0" y="346.0"/>
      <point x="191.0" y="424.0"/>
      <point x="271.0" y="424.0" type="curve" smooth="yes"/>
      <point x="369.0" y="424.0"/>
      <point x="397.0" y="304.0"/>
    </contour>
    <contour>
      <point x="41.0" y="230.0" type="curve" smooth="yes"/>
      <point x="41.0" y="82.0"/>
      <point x="129.0" y="-13.0"/>
      <point x="268.0" y="-13.0" type="curve" smooth="yes"/>
      <point x="406.0" y="-13.0"/>
      <point x="495.0" y="82.0"/>
      <point x="495.0" y="230.0" type="curve" smooth="yes"/>
      <point x="495.0" y="379.0"/>
      <point x="406.0" y="472.0"/>
      <point x="268.0" y="472.0" type="curve" smooth="yes"/>
      <point x="129.0" y="472.0"/>
      <point x="41.0" y="379.0"/>
    </contour>
    <contour>
      <point x="382.0" y="572.0" type="line"/>
      <point x="400.0" y="588.0"/>
      <point x="405.0" y="623.0"/>
      <point x="405.0" y="646.0" type="curve"/>
      <point x="156.0" y="646.0" type="line"/>
      <point x="138.0" y="631.0"/>
      <point x="132.0" y="596.0"/>
      <point x="132.0" y="572.0" type="curve"/>
    </contour>
  </outline>
</glyph>
<glyph name="Scircumflex" format="2">
  <advance width="530"/>
  <unicode hex="015C"/>
  <outline>
    <contour>
      <point x="271.0" y="39.0" type="curve" smooth="yes"/>
      <point x="190.0" y="39.0"/>
      <point x="137.0" y="84.0"/>
      <point x="137.0" y="149.0" type="curve" smooth="yes"/>
      <point x="137.0" y="201.0"/>
      <point x="167.0" y="225.0"/>
      <point x="167.0" y="234.0" type="curve" smooth="yes"/>
      <point x="167.0" y="239.0"/>
      <point x="162.0" y="245.0"/>
      <point x="147.0" y="245.0" type="curve" smooth="yes"/>
      <point x="87.0" y="245.0"/>
      <point x="41.0" y="200.0"/>
      <point x="41.0" y="136.0" type="curve" smooth="yes"/>
      <point x="41.0" y="48.0"/>
      <point x="136.0" y="-13.0"/>
      <point x="271.0" y="-13.0" type="curve" smooth="yes"/>
      <point x="410.0" y="-13.0"/>
      <point x="484.0" y="59.0"/>
      <point x="484.0" y="168.0" type="curve" smooth="yes"/>
      <point x="484.0" y="398.0"/>
      <point x="145.0" y="358.0"/>
      <point x="145.0" y="520.0" type="curve" smooth="yes"/>
      <point x="145.0" y="575.0"/>
      <point x="182.0" y="628.0"/>
      <point x="260.0" y="628.0" type="curve" smooth="yes"/>
      <point x="329.0" y="628.0"/>
      <point x="377.0" y="587.0"/>
      <point x="377.0" y="530.0" type="curve" smooth="yes"/>
      <point x="377.0" y="479.0"/>
      <point x="349.0" y="455.0"/>
      <point x="349.0" y="446.0" type="curve" smooth="yes"/>
      <point x="349.0" y="439.0"/>
      <point x="354.0" y="435.0"/>
      <point x="368.0" y="435.0" type="curve" smooth="yes"/>
      <point x="424.0" y="435.0"/>
      <point x="467.0" y="479.0"/>
      <point x="467.0" y="543.0" type="curve" smooth="yes"/>
      <point x="467.0" y="624.0"/>
      <point x="381.0" y="679.0"/>
      <point x="260.0" y="679.0" type="curve" smooth="yes"/>
      <point x="123.0" y="679.0"/>
      <point x="56.0" y="590.0"/>
      <point x="56.0" y="499.0" type="curve" smooth="yes"/>
      <point x="56.0" y="272.0"/>
      <point x="390.0" y="325.0"/>
      <point x="390.0" y="144.0" type="curve" smooth="yes"/>
      <point x="390.0" y="78.0"/>
      <point x="341.0" y="39.0"/>
    </contour>
    <contour>
      <point x="252.0" y="905.0" type="line"/>
      <point x="228.0" y="891.0"/>
      <point x="177.0" y="829.0"/>
      <point x="137.0" y="760.0" type="curve"/>
      <point x="168.0" y="733.0" type="line"/>
      <point x="265.0" y="810.0" type="line"/>
      <point x="362.0" y="733.0" type="line"/>
      <point x="392.0" y="760.0" type="line"/>
      <point x="352.0" y="831.0"/>
      <point x="298.0" y="893.0"/>
      <point x="277.0" y="905.0" type="curve"/>
    </contour>
  </outline>
</glyph>
<glyph name="Scaron" format="2">
  <advance width="530"/>
  <unicode hex="0160"/>
  <outline>
    <contour>
      <point x="271.0" y="39.0" type="curve" smooth="yes"/>
      <point x="190.0" y="39.0"/>
      <point x="137.0" y="84.0"/>
      <point x="137.0" y="149.0" type="curve" smooth="yes"/>
      <point x="137.0" y="201.0"/>
      <point x="167.0" y="225.0"/>
      <point x="167.0" y="234.0" type="curve" smooth="yes"/>
      <point x="167.0" y="239.0"/>
      <point x="162.0" y="245.0"/>
      <point x="147.0" y="245.0" type="curve" smooth="yes"/>
      <point x="87.0" y="245.0"/>
      <point x="41.0" y="200.0"/>
      <point x="41.0" y="136.0" type="curve" smooth="yes"/>
      <point x="41.0" y="48.0"/>
      <point x="136.0" y="-13.0"/>
      <point x="271.0" y="-13.0" type="curve" smooth="yes"/>
      <point x="410.0" y="-13.0"/>
      <point x="484.0" y="59.0"/>
      <point x="484.0" y="168.0" type="curve" smooth="yes"/>
      <point x="484.0" y="398.0"/>
      <point x="145.0" y="358.0"/>
      <point x="145.0" y="520.0" type="curve" smooth="yes"/>
      <point x="145.0" y="575.0"/>
      <point x="182.0" y="628.0"/>
      <point x="260.0" y="628.0" type="curve" smooth="yes"/>
      <point x="329.0" y="628.0"/>
      <point x="377.0" y="587.0"/>
      <point x="377.0" y="530.0" type="curve" smooth="yes"/>
      <point x="377.0" y="479.0"/>
      <point x="349.0" y="455.0"/>
      <point x="349.0" y="446.0" type="curve" smooth="yes"/>
      <point x="349.0" y="439.0"/>
      <point x="354.0" y="435.0"/>
      <point x="368.0" y="435.0" type="curve" smooth="yes"/>
      <point x="424.0" y="435.0"/>
      <point x="467.0" y="479.0"/>
      <point x="467.0" y="543.0" type="curve" smooth="yes"/>
      <point x="467.0" y="624.0"/>
      <point x="381.0" y="679.0"/>
      <point x="260.0" y="679.0" type="curve" smooth="yes"/>
      <point x="123.0" y="679.0"/>
      <point x="56.0" y="590.0"/>
      <point x="56.0" y="499.0" type="curve" smooth="yes"/>
      <point x="56.0" y="272.0"/>
      <point x="390.0" y="325.0"/>
      <point x="390.0" y="144.0" type="curve" smooth="yes"/>
      <point x="390.0" y="78.0"/>
      <point x="341.0" y="39.0"/>
    </contour>
    <contour>
      <point x="283.0" y="742.0" type="line"/>
      <point x="304.0" y="754.0"/>
      <point x="357.0" y="815.0"/>
      <point x="398.0" y="888.0" type="curve"/>
      <point x="368.0" y="915.0" type="line"/>
      <point x="270.0" y="836.0" type="line"/>
      <point x="174.0" y="915.0" type="line"/>
      <point x="144.0" y="888.0" type="line"/>
      <point x="184.0" y="817.0"/>
      <point x="235.0" y="756.0"/>
      <point x="259.0" y="742.0" type="curve"/>
    </contour>
  </outline>
</glyph>
<glyph name="uni0162" format="2">
  <advance width="552"/>
  <unicode hex="0162"/>
  <outline>
    <contour>
      <point x="256.0" y="-234.0" type="curve" smooth="yes"/>
      <point x="237.0" y="-234.0"/>
      <point x="218.0" y="-221.0"/>
      <point x="218.0" y="-198.0" type="curve" smooth="yes"/>
      <point x="218.0" y="-171.0"/>
      <point x="232.0" y="-166.0"/>
      <point x="232.0" y="-157.0" type="curve" smooth="yes"/>
      <point x="232.0" y="-152.0"/>
      <point x="226.0" y="-148.0"/>
      <point x="215.0" y="-148.0" type="curve" smooth="yes"/>
      <point x="184.0" y="-148.0"/>
      <point x="156.0" y="-169.0"/>
      <point x="156.0" y="-202.0" type="curve" smooth="yes"/>
      <point x="156.0" y="-249.0"/>
      <point x="206.0" y="-273.0"/>
      <point x="257.0" y="-273.0" type="curve" smooth="yes"/>
      <point x="329.0" y="-273.0"/>
      <point x="383.0" y="-225.0"/>
      <point x="383.0" y="-166.0" type="curve" smooth="yes"/>
      <point x="383.0" y="-95.0"/>
      <point x="333.0" y="-61.0"/>
      <point x="279.0" y="-61.0" type="curve" smooth="yes"/>
      <point x="267.0" y="-61.0"/>
      <point x="256.0" y="-62.0"/>
      <point x="244.0" y="-65.0" type="curve"/>
      <point x="294.0" y="0.0" type="line"/>
      <point x="392.0" y="0.0" type="line"/>
      <point x="403.0" y="32.0" type="line"/>
      <point x="381.0" y="37.0" type="line"/>
      <point x="334.0" y="51.0"/>
      <point x="321.0" y="64.0"/>
      <point x="321.0" y="123.0" type="curve" smooth="yes"/>
      <point x="321.0" y="543.0" type="line" smooth="yes"/>
      <point x="321.0" y="600.0"/>
      <point x="327.0" y="614.0"/>
      <point x="353.0" y="614.0" type="curve" smooth="yes"/>
      <point x="396.0" y="614.0" type="line" smooth="yes"/>
      <point x="461.0" y="614.0"/>
      <point x="479.0" y="597.0"/>
      <point x="497.0" y="531.0" type="curve" smooth="yes"/>
      <point x="502.0" y="509.0" type="line"/>
      <point x="534.0" y="520.0" type="line"/>
      <point x="534.0" y="685.0" type="line"/>
      <point x="518.0" y="697.0" type="line"/>
      <point x="502.0" y="685.0" type="line" smooth="yes"/>
      <point x="484.0" y="671.0"/>
      <point x="450.0" y="666.0"/>
      <point x="397.0" y="666.0" type="curve" smooth="yes"/>
      <point x="155.0" y="666.0" type="line" smooth="yes"/>
      <point x="102.0" y="666.0"/>
      <point x="69.0" y="671.0"/>
      <point x="50.0" y="685.0" type="curve" smooth="yes"/>
      <point x="34.0" y="697.0" type="line"/>
      <point x="18.0" y="685.0" type="line"/>
      <point x="18.0" y="520.0" type="line"/>
      <point x="50.0" y="509.0" type="line"/>
      <point x="55.0" y="531.0" type="line" smooth="yes"/>
      <point x="73.0" y="597.0"/>
      <point x="90.0" y="614.0"/>
      <point x="156.0" y="614.0" type="curve" smooth="yes"/>
      <point x="198.0" y="614.0" type="line" smooth="yes"/>
      <point x="225.0" y="614.0"/>
      <point x="230.0" y="600.0"/>
      <point x="230.0" y="543.0" type="curve" smooth="yes"/>
      <point x="230.0" y="186.0" type="line" smooth="yes"/>
      <point x="230.0" y="110.0"/>
      <point x="219.0" y="72.0"/>
      <point x="188.0" y="32.0" type="curve"/>
      <point x="177.0" y="15.0" type="line"/>
      <point x="188.0" y="0.0" type="line"/>
      <point x="256.0" y="0.0" type="line"/>
      <point x="184.0" y="-95.0" type="line"/>
      <point x="202.0" y="-111.0" type="line"/>
      <point x="221.0" y="-100.0"/>
      <point x="238.0" y="-96.0"/>
      <point x="252.0" y="-96.0" type="curve" smooth="yes"/>
      <point x="295.0" y="-96.0"/>
      <point x="315.0" y="-130.0"/>
      <point x="315.0" y="-165.0" type="curve" smooth="yes"/>
      <point x="315.0" y="-199.0"/>
      <point x="294.0" y="-234.0"/>
    </contour>
  </outline>
</glyph>
<glyph name="tbar" format="2">
  <advance width="315"/>
  <unicode hex="0167"/>
  <outline>
    <contour>
      <point x="283.0" y="223.0" type="line"/>
      <point x="296.0" y="236.0"/>
      <point x="300.0" y="262.0"/>
      <point x="300.0" y="281.0" type="curve"/>
      <point x="177.0" y="281.0" type="line"/>
      <point x="177.0" y="403.0" type="line"/>
      <point x="276.0" y="403.0" type="line"/>
      <point x="289.0" y="413.0"/>
      <point x="297.0" y="435.0"/>
      <point x="297.0" y="461.0" type="curve"/>
      <point x="177.0" y="461.0" type="line"/>
      <point x="177.0" y="586.0" type="line"/>
      <point x="141.0" y="586.0"/>
      <point x="136.0" y="584.0"/>
      <point x="133.0" y="564.0" type="curve"/>
      <point x="122.0" y="512.0"/>
      <point x="104.0" y="465.0"/>
      <point x="33.0" y="447.0" type="curve" smooth="yes"/>
      <point x="13.0" y="442.0"/>
      <point x="10.0" y="436.0"/>
      <point x="10.0" y="403.0" type="curve"/>
      <point x="91.0" y="403.0" type="line"/>
      <point x="91.0" y="281.0" type="line"/>
      <point x="22.0" y="281.0" type="line"/>
      <point x="9.0" y="269.0"/>
      <point x="6.0" y="242.0"/>
      <point x="6.0" y="223.0" type="curve"/>
      <point x="91.0" y="223.0" type="line"/>
      <point x="91.0" y="77.0" type="line" smooth="yes"/>
      <point x="91.0" y="21.0"/>
      <point x="121.0" y="-13.0"/>
      <point x="172.0" y="-13.0" type="curve" smooth="yes"/>
      <point x="211.0" y="-13.0"/>
      <point x="260.0" y="15.0"/>
      <point x="292.0" y="56.0" type="curve"/>
      <point x="274.0" y="81.0" type="line"/>
      <point x="252.0" y="61.0"/>
      <point x="229.0" y="51.0"/>
      <point x="212.0" y="51.0" type="curve" smooth="yes"/>
      <point x="186.0" y="51.0"/>
      <point x="177.0" y="65.0"/>
      <point x="177.0" y="103.0" type="curve" smooth="yes"/>
      <point x="177.0" y="223.0" type="line"/>
    </contour>
  </outline>
</glyph>
<glyph name="utilde" format="2">
  <advance width="586"/>
  <unicode hex="0169"/>
  <outline>
    <contour>
      <point x="479.0" y="472.0" type="line"/>
      <point x="365.0" y="461.0" type="line"/>
      <point x="353.0" y="447.0" type="line"/>
      <point x="365.0" y="433.0" type="line"/>
      <point x="393.0" y="384.0"/>
      <point x="401.0" y="342.0"/>
      <point x="401.0" y="252.0" type="curve" smooth="yes"/>
      <point x="401.0" y="125.0"/>
      <point x="352.0" y="49.0"/>
      <point x="269.0" y="49.0" type="curve" smooth="yes"/>
      <point x="210.0" y="49.0"/>
      <point x="180.0" y="89.0"/>
      <point x="180.0" y="163.0" type="curve" smooth="yes"/>
      <point x="180.0" y="444.0" type="line" smooth="yes"/>
      <point x="180.0" y="461.0"/>
      <point x="168.0" y="472.0"/>
      <point x="150.0" y="472.0" type="curve" smooth="yes"/>
      <point x="112.0" y="472.0"/>
      <point x="60.0" y="450.0"/>
      <point x="29.0" y="417.0" type="curve"/>
      <point x="36.0" y="394.0" type="line"/>
      <point x="78.0" y="394.0" type="line" smooth="yes"/>
      <point x="90.0" y="394.0"/>
      <point x="96.0" y="388.0"/>
      <point x="96.0" y="372.0" type="curve" smooth="yes"/>
      <point x="96.0" y="140.0" type="line" smooth="yes"/>
      <point x="96.0" y="43.0"/>
      <point x="148.0" y="-13.0"/>
      <point x="237.0" y="-13.0" type="curve" smooth="yes"/>
      <point x="306.0" y="-13.0"/>
      <point x="366.0" y="22.0"/>
      <point x="395.0" y="77.0" type="curve"/>
      <point x="395.0" y="15.0"/>
      <point x="416.0" y="-13.0"/>
      <point x="465.0" y="-13.0" type="curve" smooth="yes"/>
      <point x="498.0" y="-13.0"/>
      <point x="539.0" y="10.0"/>
      <point x="568.0" y="46.0" type="curve"/>
      <point x="550.0" y="70.0" type="line"/>
      <point x="535.0" y="58.0"/>
      <point x="518.0" y="53.0"/>
      <point x="504.0" y="53.0" type="curve" smooth="yes"/>
      <point x="487.0" y="53.0"/>
      <point x="479.0" y="62.0"/>
      <point x="479.0" y="82.0" type="curve" smooth="yes"/>
    </contour>
    <contour>
      <point x="413.0" y="671.0" type="line"/>
      <point x="385.0" y="644.0"/>
      <point x="365.0" y="634.0"/>
      <point x="349.0" y="634.0" type="curve" smooth="yes"/>
      <point x="320.0" y="634.0"/>
      <point x="301.0" y="667.0"/>
      <point x="262.0" y="667.0" type="curve" smooth="yes"/>
      <point x="227.0" y="667.0"/>
      <point x="183.0" y="632.0"/>
      <point x="143.0" y="578.0" type="curve"/>
      <point x="176.0" y="548.0" type="line"/>
      <point x="200.0" y="574.0"/>
      <point x="222.0" y="584.0"/>
      <point x="237.0" y="584.0" type="curve" smooth="yes"/>
      <point x="267.0" y="584.0"/>
      <point x="283.0" y="552.0"/>
      <point x="326.0" y="552.0" type="curve" smooth="yes"/>
      <point x="361.0" y="552.0"/>
      <point x="406.0" y="588.0"/>
      <point x="444.0" y="642.0" type="curve"/>
    </contour>
  </outline>
</glyph>
<glyph name="Wcircumflex" format="2">
  <advance width="1008"/>
  <unicode hex="0174"/>
  <outline>
    <contour>
      <point x="929.0" y="542.0" type="line" smooth="yes"/>
      <point x="941.0" y="577.0"/>
      <point x="957.0" y="605.0"/>
      <point x="981.0" y="634.0" type="curve" smooth="yes"/>
      <point x="995.0" y="651.0" type="line"/>
      <point x="983.0" y="666.0" type="line"/>
      <point x="806.0" y="666.0" type="line"/>
      <point x="796.0" y="634.0" type="line"/>
      <point x="816.0" y="629.0" type="line" smooth="yes"/>
      <point x="845.0" y="623.0"/>
      <point x="858.0" y="600.0"/>
      <point x="859.0" y="566.0" type="curve" smooth="yes"/>
      <point x="859.0" y="545.0"/>
      <point x="852.0" y="515.0"/>
      <point x="840.0" y="481.0" type="curve" smooth="yes"/>
      <point x="711.0" y="78.0" type="line"/>
      <point x="559.0" y="543.0" type="line" smooth="yes"/>
      <point x="553.0" y="562.0"/>
      <point x="549.0" y="576.0"/>
      <point x="549.0" y="588.0" type="curve" smooth="yes"/>
      <point x="549.0" y="610.0"/>
      <point x="561.0" y="623.0"/>
      <point x="590.0" y="629.0" type="curve" smooth="yes"/>
      <point x="612.0" y="634.0" type="line"/>
      <point x="601.0" y="666.0" type="line"/>
      <point x="393.0" y="666.0" type="line"/>
      <point x="380.0" y="651.0" type="line"/>
      <point x="420.0" y="621.0"/>
      <point x="444.0" y="599.0"/>
      <point x="464.0" y="538.0" type="curve" smooth="yes"/>
      <point x="472.0" y="509.0" type="line"/>
      <point x="334.0" y="78.0" type="line"/>
      <point x="184.0" y="543.0" type="line" smooth="yes"/>
      <point x="178.0" y="562.0"/>
      <point x="173.0" y="576.0"/>
      <point x="173.0" y="588.0" type="curve" smooth="yes"/>
      <point x="173.0" y="610.0"/>
      <point x="186.0" y="623.0"/>
      <point x="216.0" y="629.0" type="curve" smooth="yes"/>
      <point x="236.0" y="634.0" type="line"/>
      <point x="226.0" y="666.0" type="line"/>
      <point x="16.0" y="666.0" type="line"/>
      <point x="4.0" y="651.0" type="line"/>
      <point x="44.0" y="621.0"/>
      <point x="67.0" y="599.0"/>
      <point x="88.0" y="538.0" type="curve" smooth="yes"/>
      <point x="269.0" y="0.0" type="line"/>
      <point x="374.0" y="0.0" type="line"/>
      <point x="509.0" y="404.0" type="line"/>
      <point x="645.0" y="0.0" type="line"/>
      <point x="751.0" y="0.0" type="line"/>
    </contour>
    <contour>
      <point x="492.0" y="905.0" type="line"/>
      <point x="468.0" y="891.0"/>
      <point x="417.0" y="829.0"/>
      <point x="377.0" y="760.0" type="curve"/>
      <point x="407.0" y="733.0" type="line"/>
      <point x="504.0" y="810.0" type="line"/>
      <point x="601.0" y="733.0" type="line"/>
      <point x="631.0" y="760.0" type="line"/>
      <point x="591.0" y="831.0"/>
      <point x="537.0" y="893.0"/>
      <point x="516.0" y="905.0" type="curve"/>
    </contour>
  </outline>
</glyph>
<glyph name="Zdotaccent" format="2">
  <advance width="546"/>
  <unicode hex="017B"/>
  <outline>
    <contour>
      <point x="90.0" y="531.0" type="line" smooth="yes"/>
      <point x="107.0" y="597.0"/>
      <point x="125.0" y="614.0"/>
      <point x="190.0" y="614.0" type="curve" smooth="yes"/>
      <point x="387.0" y="614.0" type="line"/>
      <point x="18.0" y="0.0" type="line"/>
      <point x="446.0" y="0.0" type="line" smooth="yes"/>
      <point x="465.0" y="0.0"/>
      <point x="478.0" y="-3.0"/>
      <point x="484.0" y="-13.0" type="curve"/>
      <point x="492.0" y="-23.0" type="line"/>
      <point x="510.0" y="-13.0" type="line"/>
      <point x="510.0" y="146.0" type="line"/>
      <point x="479.0" y="156.0" type="line"/>
      <point x="472.0" y="135.0" type="line"/>
      <point x="455.0" y="70.0"/>
      <point x="438.0" y="53.0"/>
      <point x="371.0" y="53.0" type="curve" smooth="yes"/>
      <point x="163.0" y="53.0" type="line"/>
      <point x="529.0" y="666.0" type="line"/>
      <point x="190.0" y="666.0" type="line" smooth="yes"/>
      <point x="136.0" y="666.0"/>
      <point x="103.0" y="671.0"/>
      <point x="84.0" y="685.0" type="curve" smooth="yes"/>
      <point x="67.0" y="697.0" type="line"/>
      <point x="53.0" y="685.0" type="line"/>
      <point x="53.0" y="520.0" type="line"/>
      <point x="84.0" y="509.0" type="line"/>
    </contour>
    <contour>
      <point x="231.0" y="815.0" type="curve" smooth="yes"/>
      <point x="231.0" y="787.0"/>
      <point x="271.0" y="746.0"/>
      <point x="297.0" y="746.0" type="curve" smooth="yes"/>
      <point x="323.0" y="746.0"/>
      <point x="363.0" y="787.0"/>
      <point x="363.0" y="815.0" type="curve" smooth="yes"/>
      <point x="363.0" y="844.0"/>
      <point x="323.0" y="886.0"/>
      <point x="297.0" y="886.0" type="curve" smooth="yes"/>
      <point x="270.0" y="886.0"/>
      <point x="231.0" y="844.0"/>
    </contour>
  </outline>
</glyph>
<glyph name="Zcaron" format="2">
  <advance width="546"/>
  <unicode hex="017D"/>
  <outline>
    <contour>
      <point x="90.0" y="531.0" type="line" smooth="yes"/>
      <point x="107.0" y="597.0"/>
      <point x="125.0" y="614.0"/>
      <point x="190.0" y="614.0" type="curve" smooth="yes"/>
      <point x="387.0" y="614.0" type="line"/>
      <point x="18.0" y="0.0" type="line"/>
      <point x="446.0" y="0.0" type="line" smooth="yes"/>
      <point x="465.0" y="0.0"/>
      <point x="478.0" y="-3.0"/>
      <point x="484.0" y="-13.0" type="curve"/>
      <point x="492.0" y="-23.0" type="line"/>
      <point x="510.0" y="-13.0" type="line"/>
      <point x="510.0" y="146.0" type="line"/>
      <point x="479.0" y="156.0" type="line"/>
      <point x="472.0" y="135.0" type="line"/>
      <point x="455.0" y="70.0"/>
      <point x="438.0" y="53.0"/>
      <point x="371.0" y="53.0" type="curve" smooth="yes"/>
      <point x="163.0" y="53.0" type="line"/>
      <point x="529.0" y="666.0" type="line"/>
      <point x="190.0" y="666.0" type="line" smooth="yes"/>
      <point x="136.0" y="666.0"/>
      <point x="103.0" y="671.0"/>
      <point x="84.0" y="685.0" type="curve" smooth="yes"/>
      <point x="67.0" y="697.0" type="line"/>
      <point x="53.0" y="685.0" type="line"/>
      <point x="53.0" y="520.0" type="line"/>
      <point x="84.0" y="509.0" type="line"/>
    </contour>
    <contour>
      <point x="303.0" y="742.0" type="line"/>
      <point x="324.0" y="754.0"/>
      <point x="377.0" y="815.0"/>
      <point x="418.0" y="888.0" type="curve"/>
      <point x="388.0" y="915.0" type="line"/>
      <point x="290.0" y="836.0" type="line"/>
      <point x="195.0" y="915.0" type="line"/>
      <point x="164.0" y="888.0" type="line"/>
      <point x="204.0" y="817.0"/>
      <point x="255.0" y="756.0"/>
      <point x="279.0" y="742.0" type="curve"/>
    </contour>
  </outline>
</glyph>
<glyph name="zcaron" format="2">
  <advance width="444"/>
  <unicode hex="017E"/>
  <outline>
    <contour>
      <point x="389.0" y="406.0" type="line"/>
      <point x="414.0" y="421.0" type="line"/>
      <point x="414.0" y="438.0"/>
      <point x="409.0" y="450.0"/>
      <point x="396.0" y="461.0" type="curve"/>
      <point x="165.0" y="461.0" type="line" smooth="yes"/>
      <point x="108.0" y="461.0"/>
      <point x="81.0" y="465.0"/>
      <point x="53.0" y="484.0" type="curve"/>
      <point x="43.0" y="471.0" type="line"/>
      <point x="43.0" y="329.0" type="line"/>
      <point x="72.0" y="319.0" type="line"/>
      <point x="83.0" y="368.0" type="line" smooth="yes"/>
      <point x="90.0" y="400.0"/>
      <point x="105.0" y="407.0"/>
      <point x="152.0" y="407.0" type="curve" smooth="yes"/>
      <point x="290.0" y="407.0" type="line"/>
      <point x="31.0" y="29.0" type="line"/>
      <point x="40.0" y="0.0" type="line"/>
      <point x="278.0" y="0.0" type="line" smooth="yes"/>
      <point x="334.0" y="0.0"/>
      <point x="361.0" y="-4.0"/>
      <point x="389.0" y="-21.0" type="curve"/>
      <point x="400.0" y="-11.0" type="line"/>
      <point x="400.0" y="132.0" type="line"/>
      <point x="371.0" y="141.0" type="line"/>
      <point x="360.0" y="93.0" type="line" smooth="yes"/>
      <point x="354.0" y="61.0"/>
      <point x="336.0" y="53.0"/>
      <point x="290.0" y="53.0" type="curve" smooth="yes"/>
      <point x="145.0" y="53.0" type="line"/>
    </contour>
    <contour>
      <point x="239.0" y="536.0" type="line"/>
      <point x="260.0" y="548.0"/>
      <point x="313.0" y="610.0"/>
      <point x="354.0" y="683.0" type="curve"/>
      <point x="324.0" y="710.0" type="line"/>
      <point x="227.0" y="631.0" type="line"/>
      <point x="131.0" y="710.0" type="line"/>
      <point x="100.0" y="683.0" type="line"/>
      <point x="140.0" y="612.0"/>
      <point x="191.0" y="550.0"/>
      <point x="215.0" y="536.0" type="curve"/>
    </contour>
  </outline>
</glyph>
<glyph name="uni0219" format="2">
  <advance width="446"/>
  <unicode hex="0219"/>
  <outline>
    <contour>
      <point x="223.0" y="33.0" type="curve" smooth="yes"/>
      <point x="184.0" y="33.0"/>
      <point x="135.0" y="56.0"/>
      <point x="135.0" y="112.0" type="curve" smooth="yes"/>
      <point x="135.0" y="143.0"/>
      <point x="147.0" y="156.0"/>
      <point x="147.0" y="165.0" type="curve" smooth="yes"/>
      <point x="147.0" y="172.0"/>
      <point x="137.0" y="176.0"/>
      <point x="128.0" y="176.0" type="curve" smooth="yes"/>
      <point x="82.0" y="176.0"/>
      <point x="50.0" y="144.0"/>
      <point x="50.0" y="103.0" type="curve" smooth="yes"/>
      <point x="50.0" y="32.0"/>
      <point x="121.0" y="-13.0"/>
      <point x="212.0" y="-13.0" type="curve" smooth="yes"/>
      <point x="323.0" y="-13.0"/>
      <point x="396.0" y="42.0"/>
      <point x="396.0" y="127.0" type="curve" smooth="yes"/>
      <point x="396.0" y="201.0"/>
      <point x="318.0" y="234.0"/>
      <point x="251.0" y="263.0" type="curve" smooth="yes"/>
      <point x="194.0" y="285.0"/>
      <point x="141.0" y="310.0"/>
      <point x="141.0" y="361.0" type="curve" smooth="yes"/>
      <point x="141.0" y="400.0"/>
      <point x="172.0" y="428.0"/>
      <point x="223.0" y="428.0" type="curve" smooth="yes"/>
      <point x="258.0" y="428.0"/>
      <point x="300.0" y="410.0"/>
      <point x="300.0" y="361.0" type="curve" smooth="yes"/>
      <point x="300.0" y="332.0"/>
      <point x="285.0" y="320.0"/>
      <point x="285.0" y="310.0" type="curve" smooth="yes"/>
      <point x="285.0" y="303.0"/>
      <point x="290.0" y="297.0"/>
      <point x="305.0" y="297.0" type="curve" smooth="yes"/>
      <point x="351.0" y="297.0"/>
      <point x="383.0" y="331.0"/>
      <point x="383.0" y="378.0" type="curve" smooth="yes"/>
      <point x="383.0" y="438.0"/>
      <point x="316.0" y="472.0"/>
      <point x="230.0" y="472.0" type="curve" smooth="yes"/>
      <point x="134.0" y="472.0"/>
      <point x="61.0" y="422.0"/>
      <point x="61.0" y="348.0" type="curve" smooth="yes"/>
      <point x="61.0" y="260.0"/>
      <point x="142.0" y="224.0"/>
      <point x="210.0" y="196.0" type="curve" smooth="yes"/>
      <point x="262.0" y="174.0"/>
      <point x="311.0" y="151.0"/>
      <point x="311.0" y="107.0" type="curve" smooth="yes"/>
      <point x="311.0" y="62.0"/>
      <point x="274.0" y="33.0"/>
    </contour>
    <contour>
      <point x="159.0" y="-64.0" type="line"/>
      <point x="163.0" y="-86.0" type="line"/>
      <point x="181.0" y="-97.0" type="line"/>
      <point x="195.0" y="-108.0"/>
      <point x="201.0" y="-118.0"/>
      <point x="201.0" y="-132.0" type="curve" smooth="yes"/>
      <point x="201.0" y="-142.0"/>
      <point x="197.0" y="-154.0"/>
      <point x="190.0" y="-170.0" type="curve"/>
      <point x="148.0" y="-253.0" type="line"/>
      <point x="176.0" y="-271.0" type="line"/>
      <point x="212.0" y="-232.0" type="line" smooth="yes"/>
      <point x="255.0" y="-185.0"/>
      <point x="287.0" y="-147.0"/>
      <point x="287.0" y="-109.0" type="curve" smooth="yes"/>
      <point x="287.0" y="-63.0"/>
      <point x="261.0" y="-47.0"/>
      <point x="227.0" y="-47.0" type="curve" smooth="yes"/>
      <point x="211.0" y="-47.0"/>
      <point x="192.0" y="-51.0"/>
      <point x="176.0" y="-57.0" type="curve" smooth="yes"/>
    </contour>
  </outline>
</glyph>
<glyph name="breve" format="2">
  <advance width="318"/>
  <unicode hex="02D8"/>
  <outline>
    <contour>
      <point x="160.0" y="538.0" type="curve" smooth="yes"/>
      <point x="225.0" y="538.0"/>
      <point x="274.0" y="581.0"/>
      <point x="274.0" y="668.0" type="curve"/>
      <point x="223.0" y="668.0" type="line"/>
      <point x="223.0" y="631.0"/>
      <point x="195.0" y="609.0"/>
      <point x="160.0" y="609.0" type="curve" smooth="yes"/>
      <point x="124.0" y="609.0"/>
      <point x="95.0" y="631.0"/>
      <point x="95.0" y="668.0" type="curve"/>
      <point x="44.0" y="668.0" type="line"/>
      <point x="44.0" y="581.0"/>
      <point x="94.0" y="538.0"/>
    </contour>
  </outline>
</glyph>
<glyph name="uni0409" format="2">
  <advance width="908"/>
  <unicode hex="0409"/>
  <outline>
    <contour>
      <point x="529.0" y="480.0" type="line" smooth="yes"/>
      <point x="529.0" y="554.0"/>
      <point x="540.0" y="594.0"/>
      <point x="571.0" y="634.0" type="curve" smooth="yes"/>
      <point x="583.0" y="651.0" type="line"/>
      <point x="571.0" y="666.0" type="line"/>
      <point x="122.0" y="666.0" type="line"/>
      <point x="110.0" y="634.0" type="line"/>
      <point x="132.0" y="629.0" type="line" smooth="yes"/>
      <point x="168.0" y="620.0"/>
      <point x="173.0" y="614.0"/>
      <point x="173.0" y="552.0" type="curve" smooth="yes"/>
      <point x="173.0" y="299.0"/>
      <point x="159.0" y="70.0"/>
      <point x="91.0" y="70.0" type="curve" smooth="yes"/>
      <point x="67.0" y="70.0"/>
      <point x="56.0" y="95.0"/>
      <point x="51.0" y="119.0" type="curve" smooth="yes"/>
      <point x="47.0" y="140.0"/>
      <point x="44.0" y="162.0"/>
      <point x="29.0" y="162.0" type="curve" smooth="yes"/>
      <point x="0.0" y="162.0"/>
      <point x="-19.0" y="121.0"/>
      <point x="-19.0" y="80.0" type="curve" smooth="yes"/>
      <point x="-19.0" y="18.0"/>
      <point x="26.0" y="-13.0"/>
      <point x="77.0" y="-13.0" type="curve" smooth="yes"/>
      <point x="144.0" y="-13.0"/>
      <point x="243.0" y="15.0"/>
      <point x="243.0" y="577.0" type="curve" smooth="yes"/>
      <point x="243.0" y="608.0"/>
      <point x="267.0" y="614.0"/>
      <point x="301.0" y="614.0" type="curve" smooth="yes"/>
      <point x="378.0" y="614.0" type="line" smooth="yes"/>
      <point x="426.0" y="614.0"/>
      <point x="437.0" y="600.0"/>
      <point x="437.0" y="543.0" type="curve" smooth="yes"/>
      <point x="437.0" y="123.0" type="line" smooth="yes"/>
      <point x="437.0" y="66.0"/>
      <point x="424.0" y="49.0"/>
      <point x="378.0" y="37.0" type="curve" smooth="yes"/>
      <point x="356.0" y="32.0" type="line"/>
      <point x="367.0" y="0.0" type="line"/>
      <point x="627.0" y="0.0" type="line" smooth="yes"/>
      <point x="804.0" y="0.0"/>
      <point x="867.0" y="82.0"/>
      <point x="867.0" y="195.0" type="curve" smooth="yes"/>
      <point x="867.0" y="299.0"/>
      <point x="780.0" y="389.0"/>
      <point x="639.0" y="389.0" type="curve" smooth="yes"/>
      <point x="593.0" y="389.0"/>
      <point x="549.0" y="379.0"/>
      <point x="549.0" y="356.0" type="curve" smooth="yes"/>
      <point x="549.0" y="345.0"/>
      <point x="552.0" y="335.0"/>
      <point x="562.0" y="335.0" type="curve" smooth="yes"/>
      <point x="573.0" y="335.0"/>
      <point x="585.0" y="343.0"/>
      <point x="623.0" y="343.0" type="curve" smooth="yes"/>
      <point x="712.0" y="343.0"/>
      <point x="771.0" y="279.0"/>
      <point x="771.0" y="199.0" type="curve" smooth="yes"/>
      <point x="771.0" y="111.0"/>
      <point x="721.0" y="48.0"/>
      <point x="632.0" y="48.0" type="curve" smooth="yes"/>
      <point x="596.0" y="48.0"/>
      <point x="529.0" y="53.0"/>
      <point x="529.0" y="170.0" type="curve" smooth="yes"/>
    </contour>
  </outline>
</glyph>
<glyph name="uni040C" format="2">
  <advance width="620"/>
  <unicode hex="040C"/>
  <outline>
    <contour>
      <point x="255.0" y="765.0" type="line"/>
      <point x="282.0" y="734.0" type="line"/>
      <point x="387.0" y="785.0" type="line" smooth="yes"/>
      <point x="424.0" y="803.0"/>
      <point x="438.0" y="825.0"/>
      <point x="438.0" y="851.0" type="curve" smooth="yes"/>
      <point x="438.0" y="879.0"/>
      <point x="423.0" y="899.0"/>
      <point x="399.0" y="911.0" type="curve"/>
    </contour>
  </outline>
</glyph>
<glyph name="uni040F" format="2">
  <advance width="694"/>
  <unicode hex="040F"/>
  <outline>
    <contour>
      <point x="170.0" y="0.0" type="line" smooth="yes"/>
      <point x="293.0" y="0.0"/>
      <point x="327.0" y="-14.0"/>
      <point x="360.0" y="-141.0" type="curve" smooth="yes"/>
      <point x="365.0" y="-164.0" type="line"/>
      <point x="397.0" y="-152.0" type="line"/>
      <point x="397.0" y="0.0" type="line"/>
      <point x="643.0" y="0.0" type="line"/>
      <point x="652.0" y="30.0" type="line"/>
      <point x="634.0" y="35.0" type="line" smooth="yes"/>
      <point x="589.0" y="48.0"/>
      <point x="578.0" y="62.0"/>
      <point x="578.0" y="117.0" type="curve" smooth="yes"/>
      <point x="578.0" y="480.0" type="line" smooth="yes"/>
      <point x="578.0" y="554.0"/>
      <point x="588.0" y="594.0"/>
      <point x="619.0" y="634.0" type="curve" smooth="yes"/>
      <point x="631.0" y="651.0" type="line"/>
      <point x="619.0" y="666.0" type="line"/>
      <point x="415.0" y="666.0" type="line"/>
      <point x="404.0" y="634.0" type="line"/>
      <point x="426.0" y="629.0" type="line"/>
      <point x="472.0" y="616.0"/>
      <point x="485.0" y="600.0"/>
      <point x="485.0" y="543.0" type="curve" smooth="yes"/>
      <point x="485.0" y="123.0" type="line" smooth="yes"/>
      <point x="485.0" y="64.0"/>
      <point x="474.0" y="53.0"/>
      <point x="426.0" y="53.0" type="curve" smooth="yes"/>
      <point x="269.0" y="53.0" type="line" smooth="yes"/>
      <point x="221.0" y="53.0"/>
      <point x="210.0" y="64.0"/>
      <point x="210.0" y="123.0" type="curve" smooth="yes"/>
      <point x="210.0" y="480.0" type="line" smooth="yes"/>
      <point x="210.0" y="554.0"/>
      <point x="221.0" y="594.0"/>
      <point x="252.0" y="634.0" type="curve" smooth="yes"/>
      <point x="264.0" y="651.0" type="line"/>
      <point x="252.0" y="666.0" type="line"/>
      <point x="48.0" y="666.0" type="line"/>
      <point x="37.0" y="634.0" type="line"/>
      <point x="59.0" y="629.0" type="line"/>
      <point x="105.0" y="616.0"/>
      <point x="118.0" y="600.0"/>
      <point x="118.0" y="543.0" type="curve" smooth="yes"/>
      <point x="118.0" y="123.0" type="line" smooth="yes"/>
      <point x="118.0" y="64.0"/>
      <point x="105.0" y="51.0"/>
      <point x="59.0" y="37.0" type="curve"/>
      <point x="37.0" y="32.0" type="line"/>
      <point x="48.0" y="0.0" type="line"/>
    </contour>
  </outline>
</glyph>
<glyph name="uni0410" format="2">
  <advance width="654"/>
  <unicode hex="0410"/>
  <outline>
    <contour>
      <point x="633.0" y="0.0" type="line"/>
      <point x="645.0" y="15.0" type="line"/>
      <point x="605.0" y="46.0"/>
      <point x="583.0" y="66.0"/>
      <point x="561.0" y="129.0" type="curve" smooth="yes"/>
      <point x="374.0" y="666.0" type="line"/>
      <point x="196.0" y="666.0" type="line"/>
      <point x="184.0" y="634.0" type="line"/>
      <point x="206.0" y="629.0" type="line" smooth="yes"/>
      <point x="234.0" y="623.0"/>
      <point x="247.0" y="610.0"/>
      <point x="247.0" y="588.0" type="curve" smooth="yes"/>
      <point x="247.0" y="576.0"/>
      <point x="243.0" y="562.0"/>
      <point x="237.0" y="543.0" type="curve" smooth="yes"/>
      <point x="91.0" y="123.0" type="line" smooth="yes"/>
      <point x="72.0" y="64.0"/>
      <point x="55.0" y="51.0"/>
      <point x="6.0" y="37.0" type="curve" smooth="yes"/>
      <point x="-15.0" y="32.0" type="line"/>
      <point x="-3.0" y="0.0" type="line"/>
      <point x="167.0" y="0.0" type="line"/>
      <point x="184.0" y="15.0" type="line"/>
      <point x="177.0" y="32.0" type="line"/>
      <point x="167.0" y="49.0"/>
      <point x="164.0" y="67.0"/>
      <point x="164.0" y="88.0" type="curve" smooth="yes"/>
      <point x="164.0" y="115.0"/>
      <point x="171.0" y="144.0"/>
      <point x="184.0" y="185.0" type="curve" smooth="yes"/>
      <point x="207.0" y="253.0" type="line"/>
      <point x="421.0" y="253.0" type="line"/>
      <point x="465.0" y="123.0" type="line" smooth="yes"/>
      <point x="471.0" y="103.0"/>
      <point x="476.0" y="91.0"/>
      <point x="476.0" y="79.0" type="curve" smooth="yes"/>
      <point x="476.0" y="55.0"/>
      <point x="463.0" y="44.0"/>
      <point x="435.0" y="37.0" type="curve" smooth="yes"/>
      <point x="413.0" y="32.0" type="line"/>
      <point x="423.0" y="0.0" type="line"/>
    </contour>
    <contour>
      <point x="313.0" y="571.0" type="line"/>
      <point x="402.0" y="311.0" type="line"/>
      <point x="227.0" y="311.0" type="line"/>
    </contour>
  </outline>
</glyph>
<glyph name="uni0411" format="2">
  <advance width="603"/>
  <unicode hex="0411"/>
  <outline>
    <contour>
      <point x="317.0" y="48.0" type="curve" smooth="yes"/>
      <point x="281.0" y="48.0"/>
      <point x="215.0" y="53.0"/>
      <point x="215.0" y="170.0" type="curve" smooth="yes"/>
      <point x="215.0" y="543.0" type="line" smooth="yes"/>
      <point x="215.0" y="600.0"/>
      <point x="225.0" y="614.0"/>
      <point x="273.0" y="614.0" type="curve" smooth="yes"/>
      <point x="364.0" y="614.0" type="line" smooth="yes"/>
      <point x="429.0" y="614.0"/>
      <point x="447.0" y="597.0"/>
      <point x="465.0" y="531.0" type="curve" smooth="yes"/>
      <point x="470.0" y="509.0" type="line"/>
      <point x="502.0" y="520.0" type="line"/>
      <point x="502.0" y="685.0" type="line"/>
      <point x="487.0" y="697.0" type="line"/>
      <point x="470.0" y="685.0" type="line" smooth="yes"/>
      <point x="452.0" y="671.0"/>
      <point x="418.0" y="666.0"/>
      <point x="365.0" y="666.0" type="curve" smooth="yes"/>
      <point x="81.0" y="666.0" type="line"/>
      <point x="69.0" y="651.0" type="line"/>
      <point x="81.0" y="634.0" type="line" smooth="yes"/>
      <point x="111.0" y="594.0"/>
      <point x="122.0" y="554.0"/>
      <point x="122.0" y="480.0" type="curve" smooth="yes"/>
      <point x="122.0" y="123.0" type="line" smooth="yes"/>
      <point x="122.0" y="64.0"/>
      <point x="109.0" y="51.0"/>
      <point x="63.0" y="37.0" type="curve"/>
      <point x="41.0" y="32.0" type="line"/>
      <point x="53.0" y="0.0" type="line"/>
      <point x="312.0" y="0.0" type="line" smooth="yes"/>
      <point x="489.0" y="0.0"/>
      <point x="552.0" y="82.0"/>
      <point x="552.0" y="195.0" type="curve" smooth="yes"/>
      <point x="552.0" y="299.0"/>
      <point x="465.0" y="389.0"/>
      <point x="324.0" y="389.0" type="curve" smooth="yes"/>
      <point x="278.0" y="389.0"/>
      <point x="234.0" y="379.0"/>
      <point x="234.0" y="356.0" type="curve" smooth="yes"/>
      <point x="234.0" y="345.0"/>
      <point x="238.0" y="335.0"/>
      <point x="247.0" y="335.0" type="curve" smooth="yes"/>
      <point x="259.0" y="335.0"/>
      <point x="272.0" y="343.0"/>
      <point x="310.0" y="343.0" type="curve" smooth="yes"/>
      <point x="398.0" y="343.0"/>
      <point x="456.0" y="279.0"/>
      <point x="456.0" y="199.0" type="curve" smooth="yes"/>
      <point x="456.0" y="111.0"/>
      <point x="406.0" y="48.0"/>
    </contour>
  </outline>
</glyph>
<glyph name="uni0416" format="2">
  <advance width="880"/>
  <unicode hex="0416"/>
  <outline>
    <contour>
      <point x="552.0" y="0.0" type="line"/>
      <point x="562.0" y="30.0" type="line"/>
      <point x="543.0" y="35.0" type="line" smooth="yes"/>
      <point x="498.0" y="48.0"/>
      <point x="486.0" y="62.0"/>
      <point x="486.0" y="117.0" type="curve" smooth="yes"/>
      <point x="486.0" y="480.0" type="line" smooth="yes"/>
      <point x="486.0" y="554.0"/>
      <point x="497.0" y="594.0"/>
      <point x="529.0" y="634.0" type="curve"/>
      <point x="540.0" y="651.0" type="line"/>
      <point x="529.0" y="666.0" type="line"/>
      <point x="324.0" y="666.0" type="line"/>
      <point x="314.0" y="634.0" type="line"/>
      <point x="334.0" y="629.0" type="line" smooth="yes"/>
      <point x="381.0" y="616.0"/>
      <point x="395.0" y="600.0"/>
      <point x="395.0" y="543.0" type="curve" smooth="yes"/>
      <point x="395.0" y="123.0" type="line" smooth="yes"/>
      <point x="395.0" y="64.0"/>
      <point x="381.0" y="51.0"/>
      <point x="334.0" y="37.0" type="curve" smooth="yes"/>
      <point x="314.0" y="32.0" type="line"/>
      <point x="324.0" y="0.0" type="line"/>
    </contour>
    <contour>
      <point x="676.0" y="278.0" type="line" smooth="yes"/>
      <point x="658.0" y="309.0"/>
      <point x="635.0" y="326.0"/>
      <point x="611.0" y="337.0" type="curve"/>
      <point x="778.0" y="579.0" type="line" smooth="yes"/>
      <point x="801.0" y="611.0"/>
      <point x="823.0" y="623.0"/>
      <point x="851.0" y="629.0" type="curve" smooth="yes"/>
      <point x="871.0" y="634.0" type="line"/>
      <point x="861.0" y="666.0" type="line"/>
      <point x="693.0" y="666.0" type="line"/>
      <point x="676.0" y="651.0" type="line"/>
      <point x="684.0" y="634.0" type="line"/>
      <point x="688.0" y="624.0"/>
      <point x="696.0" y="608.0"/>
      <point x="696.0" y="593.0" type="curve" smooth="yes"/>
      <point x="696.0" y="578.0"/>
      <point x="693.0" y="566.0"/>
      <point x="677.0" y="540.0" type="curve" smooth="yes"/>
      <point x="550.0" y="353.0" type="line"/>
      <point x="529.0" y="353.0" type="line" smooth="yes"/>
      <point x="512.0" y="353.0"/>
      <point x="509.0" y="340.0"/>
      <point x="509.0" y="331.0" type="curve" smooth="yes"/>
      <point x="509.0" y="327.0"/>
      <point x="510.0" y="322.0"/>
      <point x="514.0" y="321.0" type="curve"/>
      <point x="537.0" y="310.0"/>
      <point x="547.0" y="303.0"/>
      <point x="561.0" y="279.0" type="curve" smooth="yes"/>
      <point x="671.0" y="78.0" type="line" smooth="yes"/>
      <point x="702.0" y="21.0"/>
      <point x="737.0" y="-13.0"/>
      <point x="797.0" y="-13.0" type="curve" smooth="yes"/>
      <point x="825.0" y="-13.0"/>
      <point x="854.0" y="-3.0"/>
      <point x="881.0" y="24.0" type="curve"/>
      <point x="865.0" y="51.0" type="line"/>
      <point x="853.0" y="41.0"/>
      <point x="842.0" y="38.0"/>
      <point x="829.0" y="38.0" type="curve" smooth="yes"/>
      <point x="813.0" y="38.0"/>
      <point x="804.0" y="50.0"/>
      <point x="794.0" y="66.0" type="curve"/>
    </contour>
    <contour>
      <point x="205.0" y="540.0" type="line" smooth="yes"/>
      <point x="188.0" y="566.0"/>
      <point x="185.0" y="578.0"/>
      <point x="185.0" y="593.0" type="curve" smooth="yes"/>
      <point x="185.0" y="608.0"/>
      <point x="193.0" y="624.0"/>
      <point x="197.0" y="634.0" type="curve"/>
      <point x="206.0" y="651.0" type="line"/>
      <point x="188.0" y="666.0" type="line"/>
      <point x="20.0" y="666.0" type="line"/>
      <point x="10.0" y="634.0" type="line"/>
      <point x="31.0" y="629.0" type="line" smooth="yes"/>
      <point x="58.0" y="623.0"/>
      <point x="81.0" y="611.0"/>
      <point x="103.0" y="579.0" type="curve" smooth="yes"/>
      <point x="269.0" y="337.0" type="line"/>
      <point x="246.0" y="326.0"/>
      <point x="222.0" y="309.0"/>
      <point x="206.0" y="278.0" type="curve" smooth="yes"/>
      <point x="87.0" y="66.0" type="line" smooth="yes"/>
      <point x="78.0" y="50.0"/>
      <point x="69.0" y="38.0"/>
      <point x="52.0" y="38.0" type="curve" smooth="yes"/>
      <point x="40.0" y="38.0"/>
      <point x="29.0" y="41.0"/>
      <point x="15.0" y="51.0" type="curve"/>
      <point x="0.0" y="24.0" type="line"/>
      <point x="28.0" y="-3.0"/>
      <point x="56.0" y="-13.0"/>
      <point x="85.0" y="-13.0" type="curve" smooth="yes"/>
      <point x="144.0" y="-13.0"/>
      <point x="178.0" y="21.0"/>
      <point x="210.0" y="78.0" type="curve" smooth="yes"/>
      <point x="320.0" y="279.0" type="line" smooth="yes"/>
      <point x="334.0" y="303.0"/>
      <point x="345.0" y="310.0"/>
      <point x="367.0" y="321.0" type="curve"/>
      <point x="371.0" y="322.0"/>
      <point x="371.0" y="327.0"/>
      <point x="371.0" y="331.0" type="curve" smooth="yes"/>
      <point x="371.0" y="340.0"/>
      <point x="369.0" y="353.0"/>
      <point x="353.0" y="353.0" type="curve" smooth="yes"/>
      <point x="330.0" y="353.0" type="line"/>
    </contour>
  </outline>
</glyph>
<glyph name="uni041A" format="2">
  <advance width="620"/>
  <unicode hex="041A"/>
  <outline>
    <contour>
      <point x="276.0" y="0.0" type="line"/>
      <point x="285.0" y="30.0" type="line"/>
      <point x="266.0" y="35.0" type="line" smooth="yes"/>
      <point x="222.0" y="48.0"/>
      <point x="210.0" y="62.0"/>
      <point x="210.0" y="117.0" type="curve" smooth="yes"/>
      <point x="210.0" y="480.0" type="line" smooth="yes"/>
      <point x="210.0" y="554.0"/>
      <point x="221.0" y="594.0"/>
      <point x="252.0" y="634.0" type="curve" smooth="yes"/>
      <point x="264.0" y="651.0" type="line"/>
      <point x="252.0" y="666.0" type="line"/>
      <point x="48.0" y="666.0" type="line"/>
      <point x="37.0" y="634.0" type="line"/>
      <point x="59.0" y="629.0" type="line"/>
      <point x="105.0" y="616.0"/>
      <point x="118.0" y="600.0"/>
      <point x="118.0" y="543.0" type="curve" smooth="yes"/>
      <point x="118.0" y="123.0" type="line" smooth="yes"/>
      <point x="118.0" y="64.0"/>
      <point x="105.0" y="51.0"/>
      <point x="59.0" y="37.0" type="curve"/>
      <point x="37.0" y="32.0" type="line"/>
      <point x="48.0" y="0.0" type="line"/>
    </contour>
    <contour>
      <point x="398.0" y="278.0" type="line" smooth="yes"/>
      <point x="380.0" y="309.0"/>
      <point x="358.0" y="326.0"/>
      <point x="334.0" y="337.0" type="curve"/>
      <point x="501.0" y="579.0" type="line" smooth="yes"/>
      <point x="523.0" y="611.0"/>
      <point x="546.0" y="623.0"/>
      <point x="573.0" y="629.0" type="curve" smooth="yes"/>
      <point x="595.0" y="634.0" type="line"/>
      <point x="584.0" y="666.0" type="line"/>
      <point x="415.0" y="666.0" type="line"/>
      <point x="398.0" y="651.0" type="line"/>
      <point x="406.0" y="634.0" type="line"/>
      <point x="410.0" y="624.0"/>
      <point x="418.0" y="608.0"/>
      <point x="418.0" y="593.0" type="curve" smooth="yes"/>
      <point x="418.0" y="578.0"/>
      <point x="415.0" y="566.0"/>
      <point x="399.0" y="540.0" type="curve" smooth="yes"/>
      <point x="272.0" y="353.0" type="line"/>
      <point x="251.0" y="353.0" type="line" smooth="yes"/>
      <point x="234.0" y="353.0"/>
      <point x="232.0" y="340.0"/>
      <point x="232.0" y="331.0" type="curve" smooth="yes"/>
      <point x="232.0" y="327.0"/>
      <point x="233.0" y="322.0"/>
      <point x="236.0" y="321.0" type="curve"/>
      <point x="259.0" y="310.0"/>
      <point x="270.0" y="303.0"/>
      <point x="284.0" y="279.0" type="curve" smooth="yes"/>
      <point x="395.0" y="78.0" type="line" smooth="yes"/>
      <point x="426.0" y="21.0"/>
      <point x="459.0" y="-13.0"/>
      <point x="518.0" y="-13.0" type="curve" smooth="yes"/>
      <point x="547.0" y="-13.0"/>
      <point x="577.0" y="-3.0"/>
      <point x="603.0" y="24.0" type="curve"/>
      <point x="588.0" y="51.0" type="line"/>
      <point x="575.0" y="41.0"/>
      <point x="564.0" y="38.0"/>
      <point x="552.0" y="38.0" type="curve" smooth="yes"/>
      <point x="535.0" y="38.0"/>
      <point x="527.0" y="50.0"/>
      <point x="516.0" y="66.0" type="curve"/>
    </contour>
  </outline>
</glyph>
<glyph name="uni041B" format="2">
  <advance width="645"/>
  <unicode hex="041B"/>
  <outline>
    <contour>
      <point x="583.0" y="651.0" type="line"/>
      <point x="571.0" y="666.0" type="line"/>
      <point x="122.0" y="666.0" type="line"/>
      <point x="110.0" y="634.0" type="line"/>
      <point x="132.0" y="629.0" type="line" smooth="yes"/>
      <point x="168.0" y="620.0"/>
      <point x="173.0" y="614.0"/>
      <point x="173.0" y="552.0" type="curve" smooth="yes"/>
      <point x="173.0" y="299.0"/>
      <point x="159.0" y="70.0"/>
      <point x="91.0" y="70.0" type="curve" smooth="yes"/>
      <point x="67.0" y="70.0"/>
      <point x="56.0" y="95.0"/>
      <point x="51.0" y="119.0" type="curve" smooth="yes"/>
      <point x="47.0" y="140.0"/>
      <point x="44.0" y="162.0"/>
      <point x="29.0" y="162.0" type="curve" smooth="yes"/>
      <point x="0.0" y="162.0"/>
      <point x="-19.0" y="121.0"/>
      <point x="-19.0" y="80.0" type="curve" smooth="yes"/>
      <point x="-19.0" y="18.0"/>
      <point x="26.0" y="-13.0"/>
      <point x="77.0" y="-13.0" type="curve" smooth="yes"/>
      <point x="144.0" y="-13.0"/>
      <point x="243.0" y="15.0"/>
      <point x="243.0" y="577.0" type="curve" smooth="yes"/>
      <point x="243.0" y="608.0"/>
      <point x="267.0" y="614.0"/>
      <point x="301.0" y="614.0" type="curve" smooth="yes"/>
      <point x="378.0" y="614.0" type="line" smooth="yes"/>
      <point x="426.0" y="614.0"/>
      <point x="437.0" y="600.0"/>
      <point x="437.0" y="543.0" type="curve" smooth="yes"/>
      <point x="437.0" y="123.0" type="line" smooth="yes"/>
      <point x="437.0" y="64.0"/>
      <point x="424.0" y="51.0"/>
      <point x="378.0" y="37.0" type="curve"/>
      <point x="356.0" y="32.0" type="line"/>
      <point x="367.0" y="0.0" type="line"/>
      <point x="595.0" y="0.0" type="line"/>
      <point x="604.0" y="30.0" type="line"/>
      <point x="585.0" y="35.0" type="line" smooth="yes"/>
      <point x="540.0" y="48.0"/>
      <point x="529.0" y="62.0"/>
      <point x="529.0" y="117.0" type="curve" smooth="yes"/>
      <point x="529.0" y="480.0" type="line" smooth="yes"/>
      <point x="529.0" y="554.0"/>
      <point x="540.0" y="594.0"/>
      <point x="571.0" y="634.0" type="curve" smooth="yes"/>
    </contour>
  </outline>
</glyph>
<glyph name="uni0420" format="2">
  <advance width="552"/>
  <unicode hex="0420"/>
  <outline>
    <contour>
      <point x="210.0" y="584.0" type="line" smooth="yes"/>
      <point x="210.0" y="601.0"/>
      <point x="217.0" y="628.0"/>
      <point x="280.0" y="628.0" type="curve" smooth="yes"/>
      <point x="384.0" y="628.0"/>
      <point x="438.0" y="552.0"/>
      <point x="438.0" y="455.0" type="curve" smooth="yes"/>
      <point x="438.0" y="356.0"/>
      <point x="384.0" y="290.0"/>
      <point x="290.0" y="290.0" type="curve" smooth="yes"/>
      <point x="262.0" y="290.0"/>
      <point x="254.0" y="297.0"/>
      <point x="245.0" y="297.0" type="curve" smooth="yes"/>
      <point x="234.0" y="297.0"/>
      <point x="230.0" y="285.0"/>
      <point x="230.0" y="274.0" type="curve" smooth="yes"/>
      <point x="230.0" y="253.0"/>
      <point x="271.0" y="242.0"/>
      <point x="312.0" y="242.0" type="curve" smooth="yes"/>
      <point x="465.0" y="242.0"/>
      <point x="534.0" y="343.0"/>
      <point x="534.0" y="459.0" type="curve" smooth="yes"/>
      <point x="534.0" y="579.0"/>
      <point x="457.0" y="679.0"/>
      <point x="264.0" y="679.0" type="curve" smooth="yes"/>
      <point x="177.0" y="679.0"/>
      <point x="80.0" y="656.0"/>
      <point x="33.0" y="638.0" type="curve"/>
      <point x="44.0" y="603.0" type="line"/>
      <point x="97.0" y="603.0" type="line" smooth="yes"/>
      <point x="111.0" y="603.0"/>
      <point x="118.0" y="598.0"/>
      <point x="118.0" y="582.0" type="curve" smooth="yes"/>
      <point x="118.0" y="123.0" type="line" smooth="yes"/>
      <point x="118.0" y="66.0"/>
      <point x="105.0" y="49.0"/>
      <point x="59.0" y="37.0" type="curve" smooth="yes"/>
      <point x="37.0" y="32.0" type="line"/>
      <point x="48.0" y="0.0" type="line"/>
      <point x="252.0" y="0.0" type="line"/>
      <point x="264.0" y="15.0" type="line"/>
      <point x="252.0" y="32.0" type="line" smooth="yes"/>
      <point x="221.0" y="72.0"/>
      <point x="210.0" y="109.0"/>
      <point x="210.0" y="186.0" type="curve" smooth="yes"/>
    </contour>
  </outline>
</glyph>
<glyph name="uni0422" format="2">
  <advance width="552"/>
  <unicode hex="0422"/>
  <outline>
    <contour>
      <point x="502.0" y="509.0" type="line"/>
      <point x="534.0" y="520.0" type="line"/>
      <point x="534.0" y="685.0" type="line"/>
      <point x="518.0" y="697.0" type="line"/>
      <point x="502.0" y="685.0" type="line" smooth="yes"/>
      <point x="484.0" y="671.0"/>
      <point x="450.0" y="666.0"/>
      <point x="397.0" y="666.0" type="curve" smooth="yes"/>
      <point x="155.0" y="666.0" type="line" smooth="yes"/>
      <point x="102.0" y="666.0"/>
      <point x="69.0" y="671.0"/>
      <point x="50.0" y="685.0" type="curve" smooth="yes"/>
      <point x="34.0" y="697.0" type="line"/>
      <point x="18.0" y="685.0" type="line"/>
      <point x="18.0" y="520.0" type="line"/>
      <point x="50.0" y="509.0" type="line"/>
      <point x="55.0" y="531.0" type="line" smooth="yes"/>
      <point x="73.0" y="597.0"/>
      <point x="90.0" y="614.0"/>
      <point x="156.0" y="614.0" type="curve" smooth="yes"/>
      <point x="198.0" y="614.0" type="line" smooth="yes"/>
      <point x="225.0" y="614.0"/>
      <point x="230.0" y="600.0"/>
      <point x="230.0" y="543.0" type="curve" smooth="yes"/>
      <point x="230.0" y="186.0" type="line" smooth="yes"/>
      <point x="230.0" y="110.0"/>
      <point x="219.0" y="72.0"/>
      <point x="188.0" y="32.0" type="curve"/>
      <point x="177.0" y="15.0" type="line"/>
      <point x="188.0" y="0.0" type="line"/>
      <point x="392.0" y="0.0" type="line"/>
      <point x="403.0" y="32.0" type="line"/>
      <point x="381.0" y="37.0" type="line"/>
      <point x="334.0" y="51.0"/>
      <point x="321.0" y="64.0"/>
      <point x="321.0" y="123.0" type="curve" smooth="yes"/>
      <point x="321.0" y="543.0" type="line" smooth="yes"/>
      <point x="321.0" y="600.0"/>
      <point x="327.0" y="614.0"/>
      <point x="353.0" y="614.0" type="curve" smooth="yes"/>
      <point x="396.0" y="614.0" type="line" smooth="yes"/>
      <point x="461.0" y="614.0"/>
      <point x="479.0" y="597.0"/>
      <point x="497.0" y="531.0" type="curve" smooth="yes"/>
    </contour>
  </outline>
</glyph>
<glyph name="uni042A" format="2">
  <advance width="702"/>
  <unicode hex="042A"/>
  <outline>
    <contour>
      <point x="419.0" y="0.0" type="line" smooth="yes"/>
      <point x="596.0" y="0.0"/>
      <point x="661.0" y="82.0"/>
      <point x="661.0" y="195.0" type="curve" smooth="yes"/>
      <point x="661.0" y="299.0"/>
      <point x="574.0" y="389.0"/>
      <point x="433.0" y="389.0" type="curve" smooth="yes"/>
      <point x="387.0" y="389.0"/>
      <point x="343.0" y="379.0"/>
      <point x="343.0" y="356.0" type="curve" smooth="yes"/>
      <point x="343.0" y="345.0"/>
      <point x="346.0" y="335.0"/>
      <point x="355.0" y="335.0" type="curve" smooth="yes"/>
      <point x="365.0" y="335.0"/>
      <point x="378.0" y="343.0"/>
      <point x="416.0" y="343.0" type="curve" smooth="yes"/>
      <point x="505.0" y="343.0"/>
      <point x="564.0" y="279.0"/>
      <point x="564.0" y="199.0" type="curve" smooth="yes"/>
      <point x="564.0" y="111.0"/>
      <point x="513.0" y="48.0"/>
      <point x="424.0" y="48.0" type="curve" smooth="yes"/>
      <point x="389.0" y="48.0"/>
      <point x="321.0" y="53.0"/>
      <point x="321.0" y="170.0" type="curve" smooth="yes"/>
      <point x="321.0" y="480.0" type="line" smooth="yes"/>
      <point x="321.0" y="554.0"/>
      <point x="333.0" y="593.0"/>
      <point x="364.0" y="634.0" type="curve" smooth="yes"/>
      <point x="376.0" y="651.0" type="line"/>
      <point x="364.0" y="666.0" type="line"/>
      <point x="155.0" y="666.0" type="line" smooth="yes"/>
      <point x="102.0" y="666.0"/>
      <point x="69.0" y="671.0"/>
      <point x="50.0" y="685.0" type="curve" smooth="yes"/>
      <point x="34.0" y="697.0" type="line"/>
      <point x="18.0" y="685.0" type="line"/>
      <point x="18.0" y="520.0" type="line"/>
      <point x="50.0" y="509.0" type="line"/>
      <point x="55.0" y="531.0" type="line" smooth="yes"/>
      <point x="73.0" y="597.0"/>
      <point x="90.0" y="614.0"/>
      <point x="156.0" y="614.0" type="curve" smooth="yes"/>
      <point x="180.0" y="614.0" type="line" smooth="yes"/>
      <point x="207.0" y="614.0"/>
      <point x="230.0" y="600.0"/>
      <point x="230.0" y="543.0" type="curve" smooth="yes"/>
      <point x="230.0" y="123.0" type="line" smooth="yes"/>
      <point x="230.0" y="66.0"/>
      <point x="217.0" y="49.0"/>
      <point x="171.0" y="37.0" type="curve" smooth="yes"/>
      <point x="149.0" y="32.0" type="line"/>
      <point x="161.0" y="0.0" type="line"/>
    </contour>
  </outline>
</glyph>
<glyph name="uni042E" format="2">
  <advance width="966"/>
  <unicode hex="042E"/>
  <outline>
    <contour>
      <point x="276.0" y="0.0" type="line"/>
      <point x="285.0" y="30.0" type="line"/>
      <point x="266.0" y="35.0" type="line" smooth="yes"/>
      <point x="222.0" y="48.0"/>
      <point x="210.0" y="62.0"/>
      <point x="210.0" y="117.0" type="curve" smooth="yes"/>
      <point x="210.0" y="310.0" type="line"/>
      <point x="347.0" y="310.0" type="line"/>
      <point x="354.0" y="129.0"/>
      <point x="448.0" y="-13.0"/>
      <point x="640.0" y="-13.0" type="curve" smooth="yes"/>
      <point x="837.0" y="-13.0"/>
      <point x="934.0" y="140.0"/>
      <point x="934.0" y="332.0" type="curve" smooth="yes"/>
      <point x="934.0" y="524.0"/>
      <point x="837.0" y="678.0"/>
      <point x="640.0" y="678.0" type="curve" smooth="yes"/>
      <point x="453.0" y="678.0"/>
      <point x="359.0" y="540.0"/>
      <point x="348.0" y="366.0" type="curve"/>
      <point x="210.0" y="366.0" type="line"/>
      <point x="210.0" y="480.0" type="line" smooth="yes"/>
      <point x="210.0" y="554.0"/>
      <point x="221.0" y="594.0"/>
      <point x="252.0" y="634.0" type="curve" smooth="yes"/>
      <point x="264.0" y="651.0" type="line"/>
      <point x="252.0" y="666.0" type="line"/>
      <point x="48.0" y="666.0" type="line"/>
      <point x="37.0" y="634.0" type="line"/>
      <point x="59.0" y="629.0" type="line"/>
      <point x="105.0" y="616.0"/>
      <point x="118.0" y="600.0"/>
      <point x="118.0" y="543.0" type="curve" smooth="yes"/>
      <point x="118.0" y="123.0" type="line" smooth="yes"/>
      <point x="118.0" y="64.0"/>
      <point x="105.0" y="51.0"/>
      <point x="59.0" y="37.0" type="curve"/>
      <point x="37.0" y="32.0" type="line"/>
      <point x="48.0" y="0.0" type="line"/>
    </contour>
    <contour>
      <point x="833.0" y="329.0" type="curve" smooth="yes"/>
      <point x="833.0" y="170.0"/>
      <point x="762.0" y="41.0"/>
      <point x="636.0" y="41.0" type="curve" smooth="yes"/>
      <point x="510.0" y="41.0"/>
      <point x="447.0" y="167.0"/>
      <point x="447.0" y="324.0" type="curve" smooth="yes"/>
      <point x="447.0" y="489.0"/>
      <point x="517.0" y="626.0"/>
      <point x="645.0" y="626.0" type="curve" smooth="yes"/>
      <point x="791.0" y="626.0"/>
      <point x="833.0" y="446.0"/>
    </contour>
  </outline>
</glyph>
<glyph name="uni0432" format="2">
  <advance width="571"/>
  <unicode hex="0432"/>
  <outline>
    <contour>
      <point x="47.0" y="0.0" type="line"/>
      <point x="37.0" y="30.0" type="line"/>
      <point x="56.0" y="35.0" type="line" smooth="yes"/>
      <point x="100.0" y="45.0"/>
      <point x="111.0" y="61.0"/>
      <point x="111.0" y="115.0" type="curve" smooth="yes"/>
      <point x="111.0" y="383.0" type="line" smooth="yes"/>
      <point x="111.0" y="399.0"/>
      <point x="105.0" y="403.0"/>
      <point x="93.0" y="403.0" type="curve" smooth="yes"/>
      <point x="43.0" y="403.0" type="line"/>
      <point x="33.0" y="435.0" type="line"/>
      <point x="79.0" y="453.0"/>
      <point x="173.0" y="472.0"/>
      <point x="257.0" y="472.0" type="curve" smooth="yes"/>
      <point x="411.0" y="472.0"/>
      <point x="479.0" y="424.0"/>
      <point x="479.0" y="346.0" type="curve" smooth="yes"/>
      <point x="479.0" y="300.0"/>
      <point x="454.0" y="262.0"/>
      <point x="414.0" y="239.0" type="curve"/>
      <point x="475.0" y="222.0"/>
      <point x="510.0" y="184.0"/>
      <point x="510.0" y="130.0" type="curve" smooth="yes"/>
      <point x="510.0" y="40.0"/>
      <point x="435.0" y="0.0"/>
      <point x="299.0" y="0.0" type="curve" smooth="yes"/>
    </contour>
    <contour>
      <point x="297.0" y="213.0" type="line" smooth="yes"/>
      <point x="260.0" y="213.0"/>
      <point x="228.0" y="224.0"/>
      <point x="228.0" y="242.0" type="curve" smooth="yes"/>
      <point x="228.0" y="252.0"/>
      <point x="230.0" y="259.0"/>
      <point x="239.0" y="259.0" type="curve" smooth="yes"/>
      <point x="245.0" y="259.0"/>
      <point x="256.0" y="252.0"/>
      <point x="282.0" y="252.0" type="curve" smooth="yes"/>
      <point x="349.0" y="252.0"/>
      <point x="388.0" y="284.0"/>
      <point x="388.0" y="338.0" type="curve" smooth="yes"/>
      <point x="388.0" y="390.0"/>
      <point x="350.0" y="424.0"/>
      <point x="266.0" y="424.0" type="curve" smooth="yes"/>
      <point x="202.0" y="424.0"/>
      <point x="195.0" y="401.0"/>
      <point x="195.0" y="385.0" type="curve" smooth="yes"/>
      <point x="195.0" y="156.0" type="line" smooth="yes"/>
      <point x="195.0" y="50.0"/>
      <point x="264.0" y="46.0"/>
      <point x="301.0" y="46.0" type="curve" smooth="yes"/>
      <point x="355.0" y="46.0"/>
      <point x="414.0" y="71.0"/>
      <point x="414.0" y="134.0" type="curve" smooth="yes"/>
      <point x="414.0" y="184.0"/>
      <point x="370.0" y="210.0"/>
      <point x="304.0" y="213.0" type="curve" smooth="yes"/>
    </contour>
  </outline>
</glyph>
<glyph name="uni0439" format="2">
  <advance width="615"/>
  <unicode hex="0439"/>
  <outline>
    <contour>
      <point x="419.0" y="113.0" type="line" smooth="yes"/>
      <point x="419.0" y="60.0"/>
      <point x="408.0" y="47.0"/>
      <point x="365.0" y="35.0" type="curve" smooth="yes"/>
      <point x="346.0" y="29.0" type="line"/>
      <point x="355.0" y="0.0" type="line"/>
      <point x="564.0" y="0.0" type="line"/>
      <point x="573.0" y="28.0" type="line"/>
      <point x="555.0" y="33.0" type="line" smooth="yes"/>
      <point x="515.0" y="46.0"/>
      <point x="503.0" y="55.0"/>
      <point x="503.0" y="107.0" type="curve" smooth="yes"/>
      <point x="503.0" y="289.0" type="line" smooth="yes"/>
      <point x="503.0" y="360.0"/>
      <point x="514.0" y="394.0"/>
      <point x="542.0" y="433.0" type="curve" smooth="yes"/>
      <point x="552.0" y="448.0" type="line"/>
      <point x="542.0" y="461.0" type="line"/>
      <point x="355.0" y="461.0" type="line"/>
      <point x="346.0" y="433.0" type="line"/>
      <point x="365.0" y="427.0" type="line" smooth="yes"/>
      <point x="392.0" y="418.0"/>
      <point x="407.0" y="409.0"/>
      <point x="414.0" y="390.0" type="curve"/>
      <point x="190.0" y="139.0" type="line"/>
      <point x="190.0" y="289.0" type="line" smooth="yes"/>
      <point x="190.0" y="360.0"/>
      <point x="201.0" y="394.0"/>
      <point x="229.0" y="433.0" type="curve" smooth="yes"/>
      <point x="240.0" y="448.0" type="line"/>
      <point x="229.0" y="461.0" type="line"/>
      <point x="43.0" y="461.0" type="line"/>
      <point x="33.0" y="433.0" type="line"/>
      <point x="52.0" y="427.0" type="line" smooth="yes"/>
      <point x="95.0" y="415.0"/>
      <point x="106.0" y="401.0"/>
      <point x="106.0" y="348.0" type="curve" smooth="yes"/>
      <point x="106.0" y="113.0" type="line" smooth="yes"/>
      <point x="106.0" y="60.0"/>
      <point x="95.0" y="47.0"/>
      <point x="52.0" y="35.0" type="curve" smooth="yes"/>
      <point x="33.0" y="29.0" type="line"/>
      <point x="43.0" y="0.0" type="line"/>
      <point x="252.0" y="0.0" type="line"/>
      <point x="261.0" y="28.0" type="line"/>
      <point x="243.0" y="33.0" type="line" smooth="yes"/>
      <point x="216.0" y="40.0"/>
      <point x="201.0" y="48.0"/>
      <point x="195.0" y="69.0" type="curve"/>
      <point x="419.0" y="320.0" type="line"/>
    </contour>
    <contour>
      <point x="303.0" y="529.0" type="curve" smooth="yes"/>
      <point x="391.0" y="529.0"/>
      <point x="448.0" y="559.0"/>
      <point x="448.0" y="615.0" type="curve" smooth="yes"/>
      <point x="448.0" y="656.0"/>
      <point x="417.0" y="681.0"/>
      <point x="384.0" y="681.0" type="curve" smooth="yes"/>
      <point x="372.0" y="681.0"/>
      <point x="366.0" y="675.0"/>
      <point x="366.0" y="668.0" type="curve" smooth="yes"/>
      <point x="366.0" y="659.0"/>
      <point x="379.0" y="650.0"/>
      <point x="379.0" y="617.0" type="curve" smooth="yes"/>
      <point x="379.0" y="589.0"/>
      <point x="358.0" y="568.0"/>
      <point x="303.0" y="568.0" type="curve" smooth="yes"/>
      <point x="244.0" y="568.0"/>
      <point x="229.0" y="591.0"/>
      <point x="229.0" y="619.0" type="curve" smooth="yes"/>
      <point x="229.0" y="651.0"/>
      <point x="243.0" y="659.0"/>
      <point x="243.0" y="668.0" type="curve" smooth="yes"/>
      <point x="243.0" y="675.0"/>
      <point x="236.0" y="681.0"/>
      <point x="226.0" y="681.0" type="curve" smooth="yes"/>
      <point x="191.0" y="681.0"/>
      <point x="159.0" y="656.0"/>
      <point x="159.0" y="615.0" type="curve" smooth="yes"/>
      <point x="159.0" y="559.0"/>
      <point x="216.0" y="529.0"/>
    </contour>
  </outline>
</glyph>
<glyph name="uni0440" format="2">
  <advance width="552"/>
  <unicode hex="0440"/>
  <outline>
    <contour>
      <point x="179.0" y="419.0" type="line" smooth="yes"/>
      <point x="179.0" y="447.0"/>
      <point x="172.0" y="462.0"/>
      <point x="156.0" y="462.0" type="curve" smooth="yes"/>
      <point x="116.0" y="462.0"/>
      <point x="48.0" y="442.0"/>
      <point x="29.0" y="424.0" type="curve"/>
      <point x="29.0" y="395.0" type="line"/>
      <point x="77.0" y="384.0" type="line" smooth="yes"/>
      <point x="92.0" y="380.0"/>
      <point x="96.0" y="371.0"/>
      <point x="96.0" y="353.0" type="curve" smooth="yes"/>
      <point x="96.0" y="-98.0" type="line" smooth="yes"/>
      <point x="96.0" y="-157.0"/>
      <point x="88.0" y="-186.0"/>
      <point x="65.0" y="-218.0" type="curve" smooth="yes"/>
      <point x="54.0" y="-233.0" type="line"/>
      <point x="65.0" y="-246.0" type="line"/>
      <point x="228.0" y="-246.0" type="line"/>
      <point x="237.0" y="-218.0" type="line"/>
      <point x="218.0" y="-214.0" type="line" smooth="yes"/>
      <point x="186.0" y="-207.0"/>
      <point x="179.0" y="-191.0"/>
      <point x="179.0" y="-144.0" type="curve" smooth="yes"/>
      <point x="179.0" y="376.0" type="line"/>
      <point x="212.0" y="402.0"/>
      <point x="244.0" y="412.0"/>
      <point x="283.0" y="412.0" type="curve" smooth="yes"/>
      <point x="368.0" y="412.0"/>
      <point x="421.0" y="337.0"/>
      <point x="421.0" y="230.0" type="curve" smooth="yes"/>
      <point x="421.0" y="119.0"/>
      <point x="368.0" y="37.0"/>
      <point x="284.0" y="37.0" type="curve" smooth="yes"/>
      <point x="243.0" y="37.0"/>
      <point x="229.0" y="52.0"/>
      <point x="219.0" y="52.0" type="curve" smooth="yes"/>
      <point x="209.0" y="52.0"/>
      <point x="205.0" y="41.0"/>
      <point x="205.0" y="29.0" type="curve" smooth="yes"/>
      <point x="205.0" y="22.0"/>
      <point x="209.0" y="15.0"/>
      <point x="214.0" y="12.0" type="curve" smooth="yes"/>
      <point x="238.0" y="-4.0"/>
      <point x="271.0" y="-13.0"/>
      <point x="306.0" y="-13.0" type="curve" smooth="yes"/>
      <point x="442.0" y="-13.0"/>
      <point x="519.0" y="98.0"/>
      <point x="519.0" y="248.0" type="curve" smooth="yes"/>
      <point x="519.0" y="380.0"/>
      <point x="447.0" y="472.0"/>
      <point x="313.0" y="472.0" type="curve" smooth="yes"/>
      <point x="264.0" y="472.0"/>
      <point x="218.0" y="453.0"/>
      <point x="179.0" y="415.0" type="curve"/>
    </contour>
  </outline>
</glyph>
<glyph name="uni0442" format="2">
  <advance width="454"/>
  <unicode hex="0442"/>
  <outline>
    <contour>
      <point x="407.0" y="312.0" type="line"/>
      <point x="436.0" y="321.0" type="line"/>
      <point x="436.0" y="473.0" type="line"/>
      <point x="421.0" y="485.0" type="line"/>
      <point x="407.0" y="473.0" type="line"/>
      <point x="390.0" y="460.0"/>
      <point x="360.0" y="456.0"/>
      <point x="310.0" y="456.0" type="curve" smooth="yes"/>
      <point x="145.0" y="456.0" type="line" smooth="yes"/>
      <point x="96.0" y="456.0"/>
      <point x="65.0" y="460.0"/>
      <point x="47.0" y="473.0" type="curve"/>
      <point x="33.0" y="485.0" type="line"/>
      <point x="18.0" y="473.0" type="line"/>
      <point x="18.0" y="321.0" type="line"/>
      <point x="47.0" y="312.0" type="line"/>
      <point x="53.0" y="331.0" type="line"/>
      <point x="69.0" y="393.0"/>
      <point x="85.0" y="407.0"/>
      <point x="146.0" y="407.0" type="curve" smooth="yes"/>
      <point x="156.0" y="407.0" type="line" smooth="yes"/>
      <point x="179.0" y="407.0"/>
      <point x="185.0" y="396.0"/>
      <point x="185.0" y="343.0" type="curve" smooth="yes"/>
      <point x="185.0" y="172.0" type="line" smooth="yes"/>
      <point x="185.0" y="102.0"/>
      <point x="176.0" y="66.0"/>
      <point x="147.0" y="29.0" type="curve" smooth="yes"/>
      <point x="136.0" y="14.0" type="line"/>
      <point x="147.0" y="0.0" type="line"/>
      <point x="333.0" y="0.0" type="line"/>
      <point x="344.0" y="29.0" type="line"/>
      <point x="323.0" y="35.0" type="line" smooth="yes"/>
      <point x="280.0" y="47.0"/>
      <point x="269.0" y="60.0"/>
      <point x="269.0" y="113.0" type="curve" smooth="yes"/>
      <point x="269.0" y="343.0" type="line" smooth="yes"/>
      <point x="269.0" y="396.0"/>
      <point x="275.0" y="407.0"/>
      <point x="298.0" y="407.0" type="curve" smooth="yes"/>
      <point x="310.0" y="407.0" type="line" smooth="yes"/>
      <point x="370.0" y="407.0"/>
      <point x="385.0" y="393.0"/>
      <point x="402.0" y="331.0" type="curve" smooth="yes"/>
    </contour>
  </outline>
</glyph>
<glyph name="uni0447" format="2">
  <advance width="530"/>
  <unicode hex="0447"/>
  <outline>
    <contour>
      <point x="489.0" y="29.0" type="line"/>
      <point x="471.0" y="33.0" type="line"/>
      <point x="430.0" y="45.0"/>
      <point x="419.0" y="57.0"/>
      <point x="419.0" y="107.0" type="curve" smooth="yes"/>
      <point x="419.0" y="289.0" type="line" smooth="yes"/>
      <point x="419.0" y="358.0"/>
      <point x="428.0" y="395.0"/>
      <point x="457.0" y="433.0" type="curve" smooth="yes"/>
      <point x="468.0" y="447.0" type="line"/>
      <point x="457.0" y="461.0" type="line"/>
      <point x="271.0" y="461.0" type="line"/>
      <point x="261.0" y="433.0" type="line"/>
      <point x="280.0" y="427.0" type="line" smooth="yes"/>
      <point x="323.0" y="414.0"/>
      <point x="334.0" y="401.0"/>
      <point x="334.0" y="348.0" type="curve" smooth="yes"/>
      <point x="334.0" y="253.0" type="line"/>
      <point x="304.0" y="227.0"/>
      <point x="268.0" y="216.0"/>
      <point x="228.0" y="216.0" type="curve" smooth="yes"/>
      <point x="174.0" y="216.0"/>
      <point x="140.0" y="237.0"/>
      <point x="140.0" y="302.0" type="curve" smooth="yes"/>
      <point x="140.0" y="473.0" type="line"/>
      <point x="29.0" y="462.0" type="line"/>
      <point x="18.0" y="447.0" type="line"/>
      <point x="30.0" y="434.0" type="line"/>
      <point x="52.0" y="403.0"/>
      <point x="54.0" y="398.0"/>
      <point x="54.0" y="313.0" type="curve" smooth="yes"/>
      <point x="54.0" y="289.0" type="line" smooth="yes"/>
      <point x="54.0" y="196.0"/>
      <point x="103.0" y="152.0"/>
      <point x="197.0" y="152.0" type="curve" smooth="yes"/>
      <point x="260.0" y="152.0"/>
      <point x="301.0" y="172.0"/>
      <point x="334.0" y="198.0" type="curve"/>
      <point x="334.0" y="115.0" type="line" smooth="yes"/>
      <point x="334.0" y="61.0"/>
      <point x="324.0" y="45.0"/>
      <point x="280.0" y="35.0" type="curve" smooth="yes"/>
      <point x="261.0" y="30.0" type="line"/>
      <point x="271.0" y="0.0" type="line"/>
      <point x="480.0" y="0.0" type="line"/>
    </contour>
  </outline>
</glyph>
<glyph name="uni044B" format="2">
  <advance width="780"/>
  <unicode hex="044B"/>
  <outline>
    <contour>
      <point x="190.0" y="289.0" type="line" smooth="yes"/>
      <point x="190.0" y="359.0"/>
      <point x="201.0" y="395.0"/>
      <point x="229.0" y="433.0" type="curve" smooth="yes"/>
      <point x="240.0" y="448.0" type="line"/>
      <point x="229.0" y="461.0" type="line"/>
      <point x="43.0" y="461.0" type="line"/>
      <point x="33.0" y="433.0" type="line"/>
      <point x="52.0" y="427.0" type="line" smooth="yes"/>
      <point x="93.0" y="415.0"/>
      <point x="106.0" y="399.0"/>
      <point x="106.0" y="348.0" type="curve" smooth="yes"/>
      <point x="106.0" y="113.0" type="line" smooth="yes"/>
      <point x="106.0" y="61.0"/>
      <point x="93.0" y="47.0"/>
      <point x="52.0" y="35.0" type="curve" smooth="yes"/>
      <point x="33.0" y="29.0" type="line"/>
      <point x="43.0" y="0.0" type="line"/>
      <point x="281.0" y="0.0" type="line" smooth="yes"/>
      <point x="428.0" y="0.0"/>
      <point x="486.0" y="57.0"/>
      <point x="486.0" y="137.0" type="curve" smooth="yes"/>
      <point x="486.0" y="210.0"/>
      <point x="421.0" y="273.0"/>
      <point x="301.0" y="273.0" type="curve" smooth="yes"/>
      <point x="260.0" y="273.0"/>
      <point x="212.0" y="264.0"/>
      <point x="212.0" y="240.0" type="curve" smooth="yes"/>
      <point x="212.0" y="231.0"/>
      <point x="216.0" y="222.0"/>
      <point x="223.0" y="222.0" type="curve" smooth="yes"/>
      <point x="234.0" y="222.0"/>
      <point x="244.0" y="231.0"/>
      <point x="285.0" y="231.0" type="curve" smooth="yes"/>
      <point x="347.0" y="231.0"/>
      <point x="390.0" y="190.0"/>
      <point x="390.0" y="140.0" type="curve" smooth="yes"/>
      <point x="390.0" y="84.0"/>
      <point x="350.0" y="45.0"/>
      <point x="296.0" y="45.0" type="curve" smooth="yes"/>
      <point x="252.0" y="45.0"/>
      <point x="190.0" y="49.0"/>
      <point x="190.0" y="172.0" type="curve" smooth="yes"/>
    </contour>
    <contour>
      <point x="730.0" y="0.0" type="line"/>
      <point x="739.0" y="28.0" type="line"/>
      <point x="721.0" y="33.0" type="line" smooth="yes"/>
      <point x="681.0" y="45.0"/>
      <point x="670.0" y="56.0"/>
      <point x="670.0" y="107.0" type="curve" smooth="yes"/>
      <point x="670.0" y="289.0" type="line" smooth="yes"/>
      <point x="670.0" y="359.0"/>
      <point x="680.0" y="396.0"/>
      <point x="709.0" y="433.0" type="curve"/>
      <point x="719.0" y="448.0" type="line"/>
      <point x="709.0" y="461.0" type="line"/>
      <point x="521.0" y="461.0" type="line"/>
      <point x="512.0" y="433.0" type="line"/>
      <point x="532.0" y="427.0" type="line" smooth="yes"/>
      <point x="575.0" y="415.0"/>
      <point x="586.0" y="401.0"/>
      <point x="586.0" y="348.0" type="curve" smooth="yes"/>
      <point x="586.0" y="113.0" type="line" smooth="yes"/>
      <point x="586.0" y="60.0"/>
      <point x="575.0" y="47.0"/>
      <point x="532.0" y="35.0" type="curve" smooth="yes"/>
      <point x="512.0" y="29.0" type="line"/>
      <point x="521.0" y="0.0" type="line"/>
    </contour>
  </outline>
</glyph>
<glyph name="uni044C" format="2">
  <advance width="523"/>
  <unicode hex="044C"/>
  <outline>
    <contour>
      <point x="190.0" y="289.0" type="line" smooth="yes"/>
      <point x="190.0" y="359.0"/>
      <point x="201.0" y="395.0"/>
      <point x="229.0" y="433.0" type="curve" smooth="yes"/>
      <point x="240.0" y="448.0" type="line"/>
      <point x="229.0" y="461.0" type="line"/>
      <point x="43.0" y="461.0" type="line"/>
      <point x="33.0" y="433.0" type="line"/>
      <point x="52.0" y="427.0" type="line" smooth="yes"/>
      <point x="93.0" y="415.0"/>
      <point x="106.0" y="399.0"/>
      <point x="106.0" y="348.0" type="curve" smooth="yes"/>
      <point x="106.0" y="113.0" type="line" smooth="yes"/>
      <point x="106.0" y="61.0"/>
      <point x="93.0" y="47.0"/>
      <point x="52.0" y="35.0" type="curve" smooth="yes"/>
      <point x="33.0" y="29.0" type="line"/>
      <point x="43.0" y="0.0" type="line"/>
      <point x="281.0" y="0.0" type="line" smooth="yes"/>
      <point x="438.0" y="0.0"/>
      <point x="496.0" y="57.0"/>
      <point x="496.0" y="137.0" type="curve" smooth="yes"/>
      <point x="496.0" y="210.0"/>
      <point x="432.0" y="273.0"/>
      <point x="301.0" y="273.0" type="curve" smooth="yes"/>
      <point x="260.0" y="273.0"/>
      <point x="212.0" y="264.0"/>
      <point x="212.0" y="240.0" type="curve" smooth="yes"/>
      <point x="212.0" y="231.0"/>
      <point x="216.0" y="222.0"/>
      <point x="223.0" y="222.0" type="curve" smooth="yes"/>
      <point x="234.0" y="222.0"/>
      <point x="244.0" y="231.0"/>
      <point x="285.0" y="231.0" type="curve" smooth="yes"/>
      <point x="354.0" y="231.0"/>
      <point x="399.0" y="190.0"/>
      <point x="399.0" y="140.0" type="curve" smooth="yes"/>
      <point x="399.0" y="84.0"/>
      <point x="359.0" y="45.0"/>
      <point x="296.0" y="45.0" type="curve" smooth="yes"/>
      <point x="251.0" y="45.0"/>
      <point x="190.0" y="49.0"/>
      <point x="190.0" y="172.0" type="curve" smooth="yes"/>
    </contour>
  </outline>
</glyph>
<glyph name="uni044E" format="2">
  <advance width="781"/>
  <unicode hex="044E"/>
  <outline>
    <contour>
      <point x="515.0" y="37.0" type="curve" smooth="yes"/>
      <point x="438.0" y="37.0"/>
      <point x="398.0" y="112.0"/>
      <point x="398.0" y="229.0" type="curve" smooth="yes"/>
      <point x="398.0" y="346.0"/>
      <point x="442.0" y="424.0"/>
      <point x="521.0" y="424.0" type="curve" smooth="yes"/>
      <point x="616.0" y="424.0"/>
      <point x="643.0" y="304.0"/>
      <point x="643.0" y="228.0" type="curve" smooth="yes"/>
      <point x="643.0" y="113.0"/>
      <point x="588.0" y="37.0"/>
    </contour>
    <contour>
      <point x="190.0" y="259.0" type="line"/>
      <point x="190.0" y="289.0" type="line" smooth="yes"/>
      <point x="190.0" y="359.0"/>
      <point x="200.0" y="396.0"/>
      <point x="228.0" y="433.0" type="curve" smooth="yes"/>
      <point x="239.0" y="448.0" type="line"/>
      <point x="228.0" y="461.0" type="line"/>
      <point x="43.0" y="461.0" type="line"/>
      <point x="33.0" y="433.0" type="line"/>
      <point x="52.0" y="427.0" type="line" smooth="yes"/>
      <point x="95.0" y="415.0"/>
      <point x="106.0" y="401.0"/>
      <point x="106.0" y="348.0" type="curve" smooth="yes"/>
      <point x="106.0" y="113.0" type="line" smooth="yes"/>
      <point x="106.0" y="60.0"/>
      <point x="95.0" y="47.0"/>
      <point x="52.0" y="35.0" type="curve" smooth="yes"/>
      <point x="33.0" y="29.0" type="line"/>
      <point x="43.0" y="0.0" type="line"/>
      <point x="251.0" y="0.0" type="line"/>
      <point x="260.0" y="28.0" type="line"/>
      <point x="242.0" y="33.0" type="line" smooth="yes"/>
      <point x="202.0" y="45.0"/>
      <point x="190.0" y="56.0"/>
      <point x="190.0" y="107.0" type="curve" smooth="yes"/>
      <point x="190.0" y="205.0" type="line"/>
      <point x="303.0" y="205.0" type="line"/>
      <point x="310.0" y="72.0"/>
      <point x="388.0" y="-13.0"/>
      <point x="518.0" y="-13.0" type="curve" smooth="yes"/>
      <point x="652.0" y="-13.0"/>
      <point x="739.0" y="82.0"/>
      <point x="739.0" y="230.0" type="curve" smooth="yes"/>
      <point x="739.0" y="379.0"/>
      <point x="652.0" y="472.0"/>
      <point x="518.0" y="472.0" type="curve" smooth="yes"/>
      <point x="389.0" y="472.0"/>
      <point x="312.0" y="391.0"/>
      <point x="303.0" y="259.0" type="curve"/>
    </contour>
  </outline>
</glyph>
<glyph name="uni045B" format="2">
  <advance width="592"/>
  <unicode hex="045B"/>
  <outline>
    <contour>
      <point x="184.0" y="696.0" type="line" smooth="yes"/>
      <point x="184.0" y="714.0"/>
      <point x="172.0" y="726.0"/>
      <point x="154.0" y="726.0" type="curve" smooth="yes"/>
      <point x="120.0" y="726.0"/>
      <point x="69.0" y="702.0"/>
      <point x="33.0" y="670.0" type="curve"/>
      <point x="40.0" y="646.0" type="line"/>
      <point x="82.0" y="646.0" type="line" smooth="yes"/>
      <point x="95.0" y="646.0"/>
      <point x="100.0" y="641.0"/>
      <point x="100.0" y="626.0" type="curve" smooth="yes"/>
      <point x="100.0" y="563.0" type="line"/>
      <point x="18.0" y="563.0" type="line"/>
      <point x="5.0" y="552.0"/>
      <point x="-3.0" y="532.0"/>
      <point x="-3.0" y="504.0" type="curve"/>
      <point x="100.0" y="504.0" type="line"/>
      <point x="100.0" y="103.0" type="line" smooth="yes"/>
      <point x="100.0" y="56.0"/>
      <point x="93.0" y="40.0"/>
      <point x="61.0" y="34.0" type="curve"/>
      <point x="41.0" y="29.0" type="line"/>
      <point x="52.0" y="0.0" type="line"/>
      <point x="215.0" y="0.0" type="line"/>
      <point x="226.0" y="14.0" type="line"/>
      <point x="215.0" y="29.0" type="line" smooth="yes"/>
      <point x="192.0" y="60.0"/>
      <point x="184.0" y="91.0"/>
      <point x="184.0" y="148.0" type="curve" smooth="yes"/>
      <point x="184.0" y="222.0"/>
      <point x="239.0" y="347.0"/>
      <point x="319.0" y="347.0" type="curve" smooth="yes"/>
      <point x="378.0" y="347.0"/>
      <point x="399.0" y="313.0"/>
      <point x="399.0" y="249.0" type="curve" smooth="yes"/>
      <point x="399.0" y="85.0" type="line" smooth="yes"/>
      <point x="399.0" y="15.0"/>
      <point x="419.0" y="-13.0"/>
      <point x="470.0" y="-13.0" type="curve" smooth="yes"/>
      <point x="502.0" y="-13.0"/>
      <point x="542.0" y="10.0"/>
      <point x="575.0" y="46.0" type="curve"/>
      <point x="556.0" y="70.0" type="line"/>
      <point x="540.0" y="56.0"/>
      <point x="525.0" y="50.0"/>
      <point x="510.0" y="50.0" type="curve" smooth="yes"/>
      <point x="492.0" y="50.0"/>
      <point x="483.0" y="61.0"/>
      <point x="483.0" y="82.0" type="curve" smooth="yes"/>
      <point x="483.0" y="249.0" type="line" smooth="yes"/>
      <point x="483.0" y="365.0"/>
      <point x="452.0" y="418.0"/>
      <point x="359.0" y="418.0" type="curve" smooth="yes"/>
      <point x="288.0" y="418.0"/>
      <point x="216.0" y="361.0"/>
      <point x="184.0" y="280.0" type="curve"/>
      <point x="184.0" y="504.0" type="line"/>
      <point x="374.0" y="504.0" type="line"/>
      <point x="388.0" y="515.0"/>
      <point x="397.0" y="536.0"/>
      <point x="397.0" y="563.0" type="curve"/>
      <point x="184.0" y="563.0" type="line"/>
    </contour>
  </outline>
</glyph>
<glyph name="uni0490" format="2">
  <advance width="454"/>
  <unicode hex="0490"/>
  <outline>
    <contour>
      <point x="53.0" y="666.0" type="line"/>
      <point x="41.0" y="651.0" type="line"/>
      <point x="53.0" y="634.0" type="line" smooth="yes"/>
      <point x="84.0" y="593.0"/>
      <point x="96.0" y="554.0"/>
      <point x="96.0" y="480.0" type="curve" smooth="yes"/>
      <point x="96.0" y="186.0" type="line" smooth="yes"/>
      <point x="96.0" y="109.0"/>
      <point x="84.0" y="72.0"/>
      <point x="53.0" y="32.0" type="curve" smooth="yes"/>
      <point x="41.0" y="15.0" type="line"/>
      <point x="53.0" y="0.0" type="line"/>
      <point x="257.0" y="0.0" type="line"/>
      <point x="268.0" y="32.0" type="line"/>
      <point x="246.0" y="37.0" type="line" smooth="yes"/>
      <point x="200.0" y="49.0"/>
      <point x="187.0" y="66.0"/>
      <point x="187.0" y="123.0" type="curve" smooth="yes"/>
      <point x="187.0" y="543.0" type="line" smooth="yes"/>
      <point x="187.0" y="600.0"/>
      <point x="198.0" y="614.0"/>
      <point x="246.0" y="614.0" type="curve" smooth="yes"/>
      <point x="299.0" y="614.0" type="line" smooth="yes"/>
      <point x="353.0" y="614.0"/>
      <point x="385.0" y="608.0"/>
      <point x="404.0" y="594.0" type="curve" smooth="yes"/>
      <point x="421.0" y="582.0" type="line"/>
      <point x="436.0" y="594.0" type="line"/>
      <point x="436.0" y="820.0" type="line"/>
      <point x="404.0" y="831.0" type="line"/>
      <point x="399.0" y="810.0" type="line" smooth="yes"/>
      <point x="372.0" y="712.0"/>
      <point x="346.0" y="666.0"/>
      <point x="261.0" y="666.0" type="curve" smooth="yes"/>
    </contour>
  </outline>
</glyph>
<glyph name="candrabinduinverteddeva" format="2">
  <unicode hex="0900"/>
  <anchor x="-143.0" y="666.0" name="_Lohit-Devanagari-DVAnchor3"/>
  <outline>
    <contour>
      <point x="-193.0" y="813.0" type="curve" smooth="yes"/>
      <point x="-193.0" y="792.0"/>
      <point x="-163.0" y="759.0"/>
      <point x="-143.0" y="759.0" type="curve" smooth="yes"/>
      <point x="-122.0" y="759.0"/>
      <point x="-91.0" y="792.0"/>
      <point x="-91.0" y="813.0" type="curve" smooth="yes"/>
      <point x="-91.0" y="835.0"/>
      <point x="-122.0" y="867.0"/>
      <point x="-143.0" y="867.0" type="curve" smooth="yes"/>
      <point x="-162.0" y="867.0"/>
      <point x="-193.0" y="835.0"/>
    </contour>
    <contour>
      <point x="-143.0" y="951.0" type="curve" smooth="yes"/>
      <point x="-87.0" y="951.0"/>
      <point x="-44.0" y="911.0"/>
      <point x="-39.0" y="848.0" type="curve" smooth="yes"/>
      <point x="-35.0" y="802.0"/>
      <point x="-26.0" y="796.0"/>
      <point x="-14.0" y="796.0" type="curve" smooth="yes"/>
      <point x="9.0" y="796.0"/>
      <point x="37.0" y="821.0"/>
      <point x="37.0" y="865.0" type="curve" smooth="yes"/>
      <point x="37.0" y="940.0"/>
      <point x="-41.0" y="992.0"/>
      <point x="-143.0" y="992.0" type="curve" smooth="yes"/>
      <point x="-246.0" y="992.0"/>
      <point x="-324.0" y="940.0"/>
      <point x="-324.0" y="865.0" type="curve" smooth="yes"/>
      <point x="-324.0" y="821.0"/>
      <point x="-296.0" y="796.0"/>
      <point x="-273.0" y="796.0" type="curve" smooth="yes"/>
      <point x="-261.0" y="796.0"/>
      <point x="-252.0" y="802.0"/>
      <point x="-248.0" y="848.0" type="curve" smooth="yes"/>
      <point x="-243.0" y="911.0"/>
      <point x="-201.0" y="951.0"/>
    </contour>
  </outline>
</glyph>
<glyph name="candrabindudeva" format="2">
  <unicode hex="0901"/>
  <anchor x="-143.0" y="666.0" name="_Lohit-Devanagari-DVAnchor3"/>
  <outline>
    <contour>
      <point x="-143.0" y="800.0" type="curve" smooth="yes"/>
      <point x="-201.0" y="800.0"/>
      <point x="-243.0" y="840.0"/>
      <point x="-248.0" y="903.0" type="curve" smooth="yes"/>
      <point x="-252.0" y="949.0"/>
      <point x="-261.0" y="955.0"/>
      <point x="-273.0" y="955.0" type="curve" smooth="yes"/>
      <point x="-296.0" y="955.0"/>
      <point x="-324.0" y="930.0"/>
      <point x="-324.0" y="886.0" type="curve" smooth="yes"/>
      <point x="-324.0" y="811.0"/>
      <point x="-246.0" y="759.0"/>
      <point x="-143.0" y="759.0" type="curve" smooth="yes"/>
      <point x="-41.0" y="759.0"/>
      <point x="37.0" y="811.0"/>
      <point x="37.0" y="886.0" type="curve" smooth="yes"/>
      <point x="37.0" y="930.0"/>
      <point x="9.0" y="955.0"/>
      <point x="-14.0" y="955.0" type="curve" smooth="yes"/>
      <point x="-26.0" y="955.0"/>
      <point x="-35.0" y="949.0"/>
      <point x="-39.0" y="903.0" type="curve" smooth="yes"/>
      <point x="-44.0" y="840.0"/>
      <point x="-87.0" y="800.0"/>
    </contour>
    <contour>
      <point x="-193.0" y="938.0" type="curve" smooth="yes"/>
      <point x="-193.0" y="916.0"/>
      <point x="-162.0" y="884.0"/>
      <point x="-143.0" y="884.0" type="curve" smooth="yes"/>
      <point x="-122.0" y="884.0"/>
      <point x="-91.0" y="916.0"/>
      <point x="-91.0" y="938.0" type="curve" smooth="yes"/>
      <point x="-91.0" y="959.0"/>
      <point x="-122.0" y="992.0"/>
      <point x="-143.0" y="992.0" type="curve" smooth="yes"/>
      <point x="-163.0" y="992.0"/>
      <point x="-193.0" y="959.0"/>
    </contour>
  </outline>
</glyph>
<glyph name="anusvaradeva" format="2">
  <unicode hex="0902"/>
  <anchor x="-30.0" y="840.0" name="Lohit-Devanagari-DVAnchor2"/>
  <anchor x="-143.0" y="666.0" name="_Lohit-Devanagari-DVAnchor3"/>
  <outline>
    <contour>
      <point x="-201.0" y="878.0" type="curve" smooth="yes"/>
      <point x="-201.0" y="853.0"/>
      <point x="-165.0" y="816.0"/>
      <point x="-143.0" y="816.0" type="curve" smooth="yes"/>
      <point x="-119.0" y="816.0"/>
      <point x="-83.0" y="853.0"/>
      <point x="-83.0" y="878.0" type="curve" smooth="yes"/>
      <point x="-83.0" y="902.0"/>
      <point x="-119.0" y="940.0"/>
      <point x="-143.0" y="940.0" type="curve" smooth="yes"/>
      <point x="-166.0" y="940.0"/>
      <point x="-201.0" y="902.0"/>
    </contour>
  </outline>
</glyph>
<glyph name="cadeva" format="2">
  <advance width="646"/>
  <unicode hex="091A"/>
  <anchor x="513.0" y="664.0" name="Lohit-Devanagari-DVAnchor3"/>
  <outline>
    <contour>
      <point x="470.0" y="304.0" type="line"/>
      <point x="427.0" y="234.0"/>
      <point x="374.0" y="188.0"/>
      <point x="307.0" y="188.0" type="curve" smooth="yes"/>
      <point x="244.0" y="188.0"/>
      <point x="191.0" y="223.0"/>
      <point x="191.0" y="311.0" type="curve" smooth="yes"/>
      <point x="191.0" y="394.0"/>
      <point x="241.0" y="430.0"/>
      <point x="299.0" y="430.0" type="curve"/>
      <point x="299.0" y="467.0" type="line"/>
      <point x="176.0" y="467.0"/>
      <point x="105.0" y="399.0"/>
      <point x="105.0" y="301.0" type="curve" smooth="yes"/>
      <point x="105.0" y="193.0"/>
      <point x="192.0" y="135.0"/>
      <point x="281.0" y="135.0" type="curve" smooth="yes"/>
      <point x="360.0" y="135.0"/>
      <point x="414.0" y="169.0"/>
      <point x="469.0" y="235.0" type="curve"/>
      <point x="469.0" y="0.0" type="line"/>
      <point x="556.0" y="0.0" type="line"/>
      <point x="556.0" y="621.0" type="line"/>
      <point x="659.0" y="621.0" type="line"/>
      <point x="659.0" y="666.0" type="line"/>
      <point x="-13.0" y="666.0" type="line"/>
      <point x="-13.0" y="621.0" type="line"/>
      <point x="470.0" y="621.0" type="line"/>
    </contour>
    <contour>
      <point x="22.0" y="483.0" type="line" smooth="yes"/>
      <point x="15.0" y="483.0"/>
      <point x="12.0" y="467.0"/>
      <point x="12.0" y="457.0" type="curve" smooth="yes"/>
      <point x="12.0" y="446.0"/>
      <point x="15.0" y="430.0"/>
      <point x="22.0" y="430.0" type="curve" smooth="yes"/>
      <point x="389.0" y="430.0" type="line" smooth="yes"/>
      <point x="396.0" y="430.0"/>
      <point x="399.0" y="446.0"/>
      <point x="399.0" y="457.0" type="curve" smooth="yes"/>
      <point x="399.0" y="467.0"/>
      <point x="396.0" y="483.0"/>
      <point x="389.0" y="483.0" type="curve" smooth="yes"/>
    </contour>
  </outline>
</glyph>
<glyph name="nyadeva" format="2">
  <advance width="788"/>
  <unicode hex="091E"/>
  <anchor x="656.0" y="664.0" name="Lohit-Devanagari-DVAnchor3"/>
  <outline>
    <contour>
      <point x="348.0" y="498.0" type="curve" smooth="yes"/>
      <point x="252.0" y="498.0"/>
      <point x="201.0" y="456.0"/>
      <point x="201.0" y="403.0" type="curve" smooth="yes"/>
      <point x="201.0" y="357.0"/>
      <point x="229.0" y="329.0"/>
      <point x="265.0" y="329.0" type="curve" smooth="yes"/>
      <point x="274.0" y="329.0"/>
      <point x="278.0" y="330.0"/>
      <point x="278.0" y="337.0" type="curve" smooth="yes"/>
      <point x="278.0" y="344.0"/>
      <point x="270.0" y="349.0"/>
      <point x="270.0" y="382.0" type="curve" smooth="yes"/>
      <point x="270.0" y="423.0"/>
      <point x="298.0" y="458.0"/>
      <point x="349.0" y="458.0" type="curve" smooth="yes"/>
      <point x="407.0" y="458.0"/>
      <point x="439.0" y="411.0"/>
      <point x="439.0" y="327.0" type="curve" smooth="yes"/>
      <point x="439.0" y="255.0"/>
      <point x="393.0" y="209.0"/>
      <point x="316.0" y="209.0" type="curve" smooth="yes"/>
      <point x="200.0" y="209.0"/>
      <point x="88.0" y="305.0"/>
      <point x="88.0" y="423.0" type="curve" smooth="yes"/>
      <point x="88.0" y="430.0"/>
      <point x="80.0" y="433.0"/>
      <point x="70.0" y="433.0" type="curve" smooth="yes"/>
      <point x="56.0" y="433.0"/>
      <point x="43.0" y="427.0"/>
      <point x="43.0" y="414.0" type="curve" smooth="yes"/>
      <point x="43.0" y="276.0"/>
      <point x="177.0" y="146.0"/>
      <point x="316.0" y="146.0" type="curve" smooth="yes"/>
      <point x="421.0" y="146.0"/>
      <point x="503.0" y="204.0"/>
      <point x="516.0" y="290.0" type="curve"/>
      <point x="611.0" y="290.0" type="line"/>
      <point x="611.0" y="0.0" type="line"/>
      <point x="698.0" y="0.0" type="line"/>
      <point x="698.0" y="621.0" type="line"/>
      <point x="801.0" y="621.0" type="line"/>
      <point x="801.0" y="666.0" type="line"/>
      <point x="-13.0" y="666.0" type="line"/>
      <point x="-13.0" y="621.0" type="line"/>
      <point x="611.0" y="621.0" type="line"/>
      <point x="611.0" y="345.0" type="line"/>
      <point x="518.0" y="345.0" type="line"/>
      <point x="506.0" y="441.0"/>
      <point x="439.0" y="498.0"/>
    </contour>
  </outline>
</glyph>
<glyph name="ttadeva" format="2">
  <advance width="566"/>
  <unicode hex="091F"/>
  <anchor x="421.0" y="664.0" name="Lohit-Devanagari-DVAnchor3"/>
  <anchor x="299.0" y="45.0" name="Lohit-Devanagari-DVAnchor0"/>
  <anchor x="421.0" y="664.0" name="DVAnchor3"/>
  <outline>
    <contour>
      <point x="531.0" y="170.0" type="curve" smooth="yes"/>
      <point x="531.0" y="179.0"/>
      <point x="524.0" y="185.0"/>
      <point x="509.0" y="185.0" type="curve" smooth="yes"/>
      <point x="497.0" y="185.0"/>
      <point x="494.2958984375" y="183.744140625"/>
      <point x="483.0" y="171.0" type="curve" smooth="yes"/>
      <point x="444.0" y="127.0"/>
      <point x="373.0" y="85.0"/>
      <point x="299.0" y="85.0" type="curve" smooth="yes"/>
      <point x="192.0" y="85.0"/>
      <point x="135.0" y="148.0"/>
      <point x="135.0" y="247.0" type="curve" smooth="yes"/>
      <point x="135.0" y="339.0"/>
      <point x="197.0" y="435.0"/>
      <point x="461.0" y="457.0" type="curve"/>
      <point x="461.0" y="621.0" type="line"/>
      <point x="579.0" y="621.0" type="line"/>
      <point x="579.0" y="666.0" type="line"/>
      <point x="-13.0" y="666.0" type="line"/>
      <point x="-13.0" y="621.0" type="line"/>
      <point x="375.0" y="621.0" type="line"/>
      <point x="375.0" y="497.0" type="line"/>
      <point x="210.0" y="479.0"/>
      <point x="49.0" y="394.0"/>
      <point x="49.0" y="248.0" type="curve" smooth="yes"/>
      <point x="49.0" y="95.0"/>
      <point x="155.0" y="35.0"/>
      <point x="289.0" y="35.0" type="curve" smooth="yes"/>
      <point x="423.0" y="35.0"/>
      <point x="531.0" y="136.0"/>
    </contour>
  </outline>
</glyph>
<glyph name="tadeva" format="2">
  <advance width="608"/>
  <unicode hex="0924"/>
  <anchor x="478.0" y="664.0" name="Lohit-Devanagari-DVAnchor3"/>
  <anchor x="478.0" y="664.0" name="DVAnchor3"/>
  <outline>
    <contour>
      <point x="135.0" y="258.0" type="curve" smooth="yes"/>
      <point x="135.0" y="371.0"/>
      <point x="221.0" y="387.0"/>
      <point x="316.0" y="387.0" type="curve" smooth="yes"/>
      <point x="432.0" y="387.0" type="line"/>
      <point x="432.0" y="0.0" type="line"/>
      <point x="519.0" y="0.0" type="line"/>
      <point x="519.0" y="621.0" type="line"/>
      <point x="622.0" y="621.0" type="line"/>
      <point x="622.0" y="666.0" type="line"/>
      <point x="-13.0" y="666.0" type="line"/>
      <point x="-13.0" y="621.0" type="line"/>
      <point x="432.0" y="621.0" type="line"/>
      <point x="432.0" y="439.0" type="line"/>
      <point x="291.0" y="439.0" type="line" smooth="yes"/>
      <point x="126.0" y="439.0"/>
      <point x="53.0" y="368.0"/>
      <point x="53.0" y="247.0" type="curve" smooth="yes"/>
      <point x="53.0" y="130.0"/>
      <point x="215.71640014648438" y="36.28360366821289"/>
      <point x="252.0" y="0.0" type="curve" smooth="yes"/>
      <point x="254.0" y="-2.0"/>
      <point x="256.0" y="-3.0"/>
      <point x="258.0" y="-3.0" type="curve" smooth="yes"/>
      <point x="265.0" y="-3.0"/>
      <point x="281.0" y="14.0"/>
      <point x="281.0" y="26.0" type="curve" smooth="yes"/>
      <point x="281.0" y="28.0"/>
      <point x="279.76885986328125" y="30.714324951171875"/>
      <point x="276.0" y="34.0" type="curve" smooth="yes"/>
      <point x="198.0" y="102.0"/>
      <point x="135.0" y="164.0"/>
    </contour>
  </outline>
</glyph>
<glyph name="ssadeva" format="2">
  <advance width="551"/>
  <unicode hex="0937"/>
  <anchor x="409.0" y="664.0" name="Lohit-Devanagari-DVAnchor3"/>
  <outline>
    <contour>
      <point x="-13.0" y="666.0" type="line"/>
      <point x="-13.0" y="621.0" type="line"/>
      <point x="57.0" y="621.0" type="line"/>
      <point x="57.0" y="384.0" type="line" smooth="yes"/>
      <point x="57.0" y="265.0"/>
      <point x="119.0" y="197.0"/>
      <point x="223.0" y="197.0" type="curve" smooth="yes"/>
      <point x="278.0" y="197.0"/>
      <point x="329.0" y="222.0"/>
      <point x="366.0" y="259.0" type="curve"/>
      <point x="366.0" y="0.0" type="line"/>
      <point x="452.0" y="0.0" type="line"/>
      <point x="452.0" y="621.0" type="line"/>
      <point x="564.0" y="621.0" type="line"/>
      <point x="564.0" y="666.0" type="line"/>
    </contour>
    <contour>
      <point x="164.99114990234375" y="621.0" type="line"/>
      <point x="366.0" y="621.0" type="line"/>
      <point x="366.0" y="326.01300048828125" type="line"/>
    </contour>
    <contour>
      <point x="143.0" y="562.3189697265625" type="line"/>
      <point x="333.5516052246094" y="283.8836364746094" type="line"/>
      <point x="306.0893249511719" y="261.5188293457031"/>
      <point x="273.6741943359375" y="249.0"/>
      <point x="248.0" y="249.0" type="curve" smooth="yes"/>
      <point x="176.0" y="249.0"/>
      <point x="143.0" y="303.0"/>
      <point x="143.0" y="381.0" type="curve" smooth="yes"/>
    </contour>
  </outline>
</glyph>
<glyph name="aasigndeva" format="2">
  <advance width="266"/>
  <unicode hex="093E"/>
  <outline>
    <contour>
      <point x="-13.0" y="621.0" type="line"/>
      <point x="90.0" y="621.0" type="line"/>
      <point x="90.0" y="0.0" type="line"/>
      <point x="176.0" y="0.0" type="line"/>
      <point x="176.0" y="621.0" type="line"/>
      <point x="279.0" y="621.0" type="line"/>
      <point x="279.0" y="666.0" type="line"/>
      <point x="-13.0" y="666.0" type="line"/>
    </contour>
  </outline>
</glyph>
<glyph name="usigndeva" format="2">
  <unicode hex="0941"/>
  <anchor x="-180.0" y="-230.0" name="Lohit-Devanagari-DVAnchor1"/>
  <anchor x="-143.0" y="61.0" name="_Lohit-Devanagari-DVAnchor0"/>
  <outline>
    <contour>
      <point x="20.0" y="-109.0" type="curve" smooth="yes"/>
      <point x="20.0" y="-22.0"/>
      <point x="-52.0" y="33.0"/>
      <point x="-143.0" y="33.0" type="curve" smooth="yes"/>
      <point x="-200.0" y="33.0"/>
      <point x="-262.0" y="-2.0"/>
      <point x="-262.0" y="-19.0" type="curve" smooth="yes"/>
      <point x="-262.0" y="-35.0"/>
      <point x="-253.0" y="-54.0"/>
      <point x="-245.0" y="-54.0" type="curve" smooth="yes"/>
      <point x="-235.0" y="-54.0"/>
      <point x="-206.0" y="-15.0"/>
      <point x="-154.0" y="-15.0" type="curve" smooth="yes"/>
      <point x="-100.0" y="-15.0"/>
      <point x="-59.0" y="-42.0"/>
      <point x="-59.0" y="-109.0" type="curve" smooth="yes"/>
      <point x="-59.0" y="-183.0"/>
      <point x="-123.0" y="-213.0"/>
      <point x="-186.0" y="-213.0" type="curve" smooth="yes"/>
      <point x="-342.0" y="-213.0"/>
      <point x="-430.0" y="-95.0"/>
      <point x="-451.0" y="-95.0" type="curve" smooth="yes"/>
      <point x="-464.0" y="-95.0"/>
      <point x="-479.0" y="-113.0"/>
      <point x="-479.0" y="-128.0" type="curve" smooth="yes"/>
      <point x="-479.0" y="-146.0"/>
      <point x="-342.0" y="-267.0"/>
      <point x="-176.0" y="-267.0" type="curve" smooth="yes"/>
      <point x="-69.0" y="-267.0"/>
      <point x="20.0" y="-205.0"/>
    </contour>
  </outline>
</glyph>
<glyph name="uusigndeva" format="2">
  <unicode hex="0942"/>
  <anchor x="0.0" y="-230.0" name="Lohit-Devanagari-DVAnchor1"/>
  <anchor x="-143.0" y="69.0" name="_Lohit-Devanagari-DVAnchor0"/>
  <outline>
    <contour>
      <point x="-186.0" y="-252.0" type="curve" smooth="yes"/>
      <point x="-134.0" y="-252.0"/>
      <point x="-77.0" y="-220.0"/>
      <point x="-77.0" y="-205.0" type="curve" smooth="yes"/>
      <point x="-77.0" y="-189.0"/>
      <point x="-86.0" y="-170.0"/>
      <point x="-94.0" y="-170.0" type="curve" smooth="yes"/>
      <point x="-103.0" y="-170.0"/>
      <point x="-129.0" y="-204.0"/>
      <point x="-175.0" y="-204.0" type="curve" smooth="yes"/>
      <point x="-223.0" y="-204.0"/>
      <point x="-251.0" y="-161.0"/>
      <point x="-251.0" y="-117.0" type="curve" smooth="yes"/>
      <point x="-251.0" y="-70.0"/>
      <point x="-220.0" y="-21.0"/>
      <point x="-147.0" y="-21.0" type="curve" smooth="yes"/>
      <point x="-7.0" y="-21.0"/>
      <point x="69.0" y="-248.0"/>
      <point x="88.0" y="-248.0" type="curve" smooth="yes"/>
      <point x="105.0" y="-248.0"/>
      <point x="125.0" y="-236.0"/>
      <point x="125.0" y="-226.0" type="curve" smooth="yes"/>
      <point x="125.0" y="-197.0"/>
      <point x="19.0" y="33.0"/>
      <point x="-143.0" y="33.0" type="curve" smooth="yes"/>
      <point x="-254.0" y="33.0"/>
      <point x="-329.0" y="-27.0"/>
      <point x="-329.0" y="-120.0" type="curve" smooth="yes"/>
      <point x="-329.0" y="-201.0"/>
      <point x="-266.0" y="-252.0"/>
    </contour>
  </outline>
</glyph>
<glyph name="esigndeva" format="2">
  <unicode hex="0947"/>
  <anchor x="-150.0" y="820.0" name="Lohit-Devanagari-DVAnchor2"/>
  <anchor x="-143.0" y="664.0" name="_Lohit-Devanagari-DVAnchor3"/>
  <outline>
    <contour>
      <point x="-316.0" y="935.0" type="curve" smooth="yes"/>
      <point x="-243.0" y="935.0"/>
      <point x="-200.0" y="800.0"/>
      <point x="-183.0" y="666.0" type="curve"/>
      <point x="-106.0" y="666.0" type="line"/>
      <point x="-146.0" y="914.0"/>
      <point x="-220.0" y="975.0"/>
      <point x="-326.0" y="975.0" type="curve" smooth="yes"/>
      <point x="-397.0" y="975.0"/>
      <point x="-440.0" y="940.0"/>
      <point x="-440.0" y="896.0" type="curve" smooth="yes"/>
      <point x="-440.0" y="847.0"/>
      <point x="-399.0" y="822.0"/>
      <point x="-361.0" y="822.0" type="curve" smooth="yes"/>
      <point x="-353.0" y="822.0"/>
      <point x="-345.0" y="824.0"/>
      <point x="-345.0" y="831.0" type="curve" smooth="yes"/>
      <point x="-345.0" y="839.0"/>
      <point x="-362.0" y="854.0"/>
      <point x="-362.0" y="891.0" type="curve" smooth="yes"/>
      <point x="-362.0" y="914.0"/>
      <point x="-348.0" y="935.0"/>
    </contour>
  </outline>
</glyph>
